<?xml version="1.0" standalone="no"?>
<!DOCTYPE svg PUBLIC "-//W3C//DTD SVG 1.1//EN" "http://www.w3.org/Graphics/SVG/1.1/DTD/svg11.dtd" >
<svg>
<metadata>
Created by FontForge 20090914 at Tue Sep  3 05:56:18 2013
 By www-data
URW Software, Copyright 1993 by URW
</metadata>
<defs>
<font id="CorporateAVN-Regular" horiz-adv-x="1024" >
  <font-face 
    font-family="CorpoA (VN)"
    font-weight="400"
    font-stretch="normal"
    units-per-em="2048"
    panose-1="0 0 0 0 0 0 0 0 0 0"
    ascent="1638"
    descent="-410"
    x-height="966.999"
    cap-height="1371"
    bbox="-382 -542 1810 1867"
    underline-thickness="79"
    underline-position="-179"
    unicode-range="U+0020-U+F02C"
  />
<missing-glyph horiz-adv-x="512" 
d="M51 0v1365h410v-1365h-410zM410 51v1263h-308v-1263h308z" />
    <glyph glyph-name=".notdef" horiz-adv-x="512" 
d="M51 0v1365h410v-1365h-410zM410 51v1263h-308v-1263h308z" />
    <glyph glyph-name="space" unicode=" " horiz-adv-x="512" 
 />
    <glyph glyph-name="exclam" unicode="!" horiz-adv-x="507" 
d="M203 410l-35 930h172l-35 -930h-102zM256 224c32 0 60 -11.667 84 -35c23.333 -24 35 -52.667 35 -86s-11.667 -62 -35 -86c-24 -23.333 -52.667 -35 -86 -35s-62 11.667 -86 35c-23.333 24 -35 52.667 -35 86c0 34 11.667 62.667 35 86c24.667 23.333 54 35 88 35z" />
    <glyph glyph-name="quotedbl" unicode="&#x22;" horiz-adv-x="773" 
d="M298 818h-110l-23 547h156zM584 818h-111l-22 547h156z" />
    <glyph glyph-name="numbersign" unicode="#" horiz-adv-x="1243" 
d="M1104 546l-17 -111h-231l-69 -435h-128l69 435h-296l-69 -435h-128l69 435h-231l18 111h231l47 297h-231l17 112h231l65 410h128l-65 -410h297l64 410h128l-65 -410h231l-18 -112h-230l-47 -297h230zM793 843h-296l-47 -297h296z" />
    <glyph glyph-name="dollar" unicode="$" horiz-adv-x="1071" 
d="M501 40l-0.000976562 585.002c-94.667 38 -157 64.333 -187 79c-64.667 33.333 -112 71.666 -142 114.999c-36.667 52.667 -55 118.667 -55 198c0 150.667 67.667 259 203 325c54 26.667 114.333 42 181 46v162h64v-163c94.667 -6 176.667 -42.333 246 -109l64 114h28
v-378h-43c-43.333 195.333 -141.666 299 -294.999 311v-539c104.667 -40.667 176.667 -72.334 216 -95.001c128 -72 192 -178.333 192 -319c0 -152.667 -68.333 -265.667 -205 -339c-60 -32 -127.667 -50.333 -203 -55v-163h-64v164c-110.667 7.33301 -208 48 -292 122
l-81 -131h-28v444h45c19.333 -139.333 71 -240.333 155 -303c58.667 -43.333 125.667 -67 201 -71zM564.999 41.002c62.667 7.33301 112.667 24 150 50c71.333 50 107 124.667 107 224c0 64 -16 116.333 -48 157c-32 42 -101.667 84.333 -209 127v-558zM500.999 1323
c-50.667 -6 -94 -22 -130 -48c-70.667 -50 -106 -121.333 -106 -214c0 -88 36.667 -152.333 110 -193c30 -16.667 72 -35.667 126 -57v512z" />
    <glyph glyph-name="percent" unicode="%" horiz-adv-x="1244" 
d="M343 1376c78.667 0 141.333 -31.002 188 -93.002c48 -63.333 72 -140.666 72 -231.999s-24 -168.666 -72 -231.999c-49.333 -64 -115 -96 -197 -96c-83.333 0 -150 33 -200 99c-45.333 60 -68 135 -68 225c0 96 25 174.333 75 235c52 62.667 119.333 94 202 94z
M334.999 1327c-53.333 0 -92 -29 -116 -87c-20 -48.667 -30 -112.667 -30 -192c0 -184 48.333 -276 145 -276c97.333 0 146 92.333 146 277c0 185.333 -48.333 278 -145 278zM177.999 -0.00195312l801 1365h86l-801 -1365h-86zM917.999 642.998
c78.667 0 141.668 -31.334 189.001 -94.001s71 -139.667 71 -231c0 -92 -24 -169.667 -72 -233c-48.667 -64 -114.334 -96 -197.001 -96c-84 0 -151 33.333 -201 100c-45.333 59.333 -68 134 -68 224c0 96.667 25 175.334 75 236.001c52 62.667 119.667 94 203 94z
M909 593.997c-53.333 0 -92 -29.333 -116 -88c-20 -48 -30 -112 -30 -192c0 -184 48.333 -276 145 -276c98 0 147 92.333 147 277c0 186 -48.667 279 -146 279z" />
    <glyph glyph-name="ampersand" unicode="&#x26;" horiz-adv-x="1208" 
d="M555 734l336.001 -457.999c52 73.333 78 149 78 227c0 28.667 -12.333 48 -37 58c-13.333 5.33301 -37 9 -71 11v58c55.333 -6 105 -9 149 -9c44.667 0 94.667 3 150 9v-58c-44.667 -3.33301 -73.667 -9.33301 -87 -18c-14.667 -10.667 -25.667 -37.334 -33 -80.001
c-10 -62 -21.667 -111 -35 -147c-14.667 -40 -35.334 -79.333 -62.001 -118l54 -77c30.667 -44 55 -71 73 -81c20 -9.33301 54 -14.666 102 -15.999v-41c-49.333 4.66699 -92.333 7 -129 7s-79.334 -2.33301 -128.001 -7l-77 110c-36 -28 -67.333 -49.667 -94 -65
c-72.667 -41.333 -153.667 -62 -243 -62c-132 0 -239.333 38 -322 114c-73.333 68 -110 152.667 -110 254c0 105.333 42.667 198.666 128 279.999c39.333 36.667 93.333 78.667 162 126l-75 111c-48.667 72 -73 140.667 -73 206c0 76 27 139.667 81 191
c58.667 55.333 131.334 83 218.001 83c78 0 141.667 -23.333 191 -70c50.667 -47.333 76 -109 76 -185s-30.333 -149.667 -91 -221c-33.333 -39.333 -77 -83.333 -131 -132zM475.001 843.001c50 40.667 89.333 78.334 118 113.001c44.667 52 67 106 67 162
c0 47.333 -13.333 86.666 -40 117.999c-28 33.333 -64.333 50 -109 50c-50 0 -91 -19 -123 -57c-28 -32 -42 -71.667 -42 -119c0 -50 19.667 -105 59 -165zM437.001 644.001c-59.333 -39.333 -104.667 -77.001 -136 -113.001c-48.667 -56.667 -73 -121.667 -73 -195
c0 -83.333 26.667 -151.666 80 -204.999c54 -54 123 -81 207 -81c70.667 0 137 20 199 60c19.333 12.667 44 31 74 55z" />
    <glyph glyph-name="quotesingle" unicode="'" horiz-adv-x="487" 
d="M298 818h-110l-23 547h156z" />
    <glyph glyph-name="parenleft" unicode="(" horiz-adv-x="633" 
d="M450 1399h67c-136.667 -254.667 -205 -560 -205 -916c0 -357.333 68.333 -662.333 205 -915h-67c-201.333 241.333 -302 546.333 -302 915c0 255.333 46.667 478 140 668c40.667 83.333 94.667 166 162 248z" />
    <glyph glyph-name="parenright" unicode=")" horiz-adv-x="633" 
d="M183 -432h-67c136.667 252.667 205 557.667 205 915c0 356 -68.333 661.333 -205 916h67c67.333 -82 121.333 -164.667 162 -248c93.333 -190 140 -412.667 140 -668c0 -368.667 -100.667 -673.667 -302 -915z" />
    <glyph glyph-name="asterisk" unicode="*" horiz-adv-x="1071" 
d="M491 1086l-8 245h106l-8 -245l230 84l33 -101l-236 -68l151 -193l-86 -63l-137 203l-137 -203l-86 63l151 193l-236 68l33 101z" />
    <glyph glyph-name="plus" unicode="+" horiz-adv-x="1071" 
d="M110 630v121h363v358h126v-358h363v-121h-363v-358h-126v358h-363z" />
    <glyph glyph-name="comma" unicode="," horiz-adv-x="480" 
d="M179 -341l-102 -0.000976562c44 46 83.333 101 118 165c34 64 54 119.667 60 167h-8c-7.33301 -2 -13 -3 -17 -3c-26 0 -47.667 6.66699 -65 20c-25.333 18.667 -38 46.334 -38 83.001c0 32.667 11.333 59.667 34 81s51 32 85 32c40 0 71 -13.667 93 -41
c19.333 -24 29 -56.333 29 -97c0 -117.333 -63 -253 -189 -407z" />
    <glyph glyph-name="hyphen" unicode="-" horiz-adv-x="526" 
d="M0 503v92h526v-92h-526z" />
    <glyph glyph-name="period" unicode="." horiz-adv-x="470" 
d="M237 215c31.333 0 58.334 -11.332 81.001 -33.999s34 -50 34 -82c0 -32.667 -11.333 -60.334 -34 -83.001s-50 -34 -82 -34c-32.667 0 -60.334 11.333 -83.001 34c-22.667 23.333 -34 50.666 -34 81.999c0 32.667 11.333 60.334 34 83.001c23.333 22.667 51.333 34 84 34
z" />
    <glyph glyph-name="slash" unicode="/" horiz-adv-x="826" 
d="M-176 -398l868 1763h113l-868 -1763h-113z" />
    <glyph glyph-name="zero" unicode="0" horiz-adv-x="1071" 
d="M545 1354c82.667 0 156.667 -26.334 222 -79.001c68.667 -55.333 120.667 -146.666 156 -273.999c28 -102 42 -213 42 -333c0 -190.667 -33.333 -351.667 -100 -483c-69.333 -135.333 -179 -203 -329 -203c-142 0 -248 61.333 -318 184c-74 129.333 -111 294 -111 494
c0 218 39.667 391.333 119 520c72 116 178.333 174 319 174zM532 1295c-53.333 0 -101.331 -28 -143.998 -84c-70.667 -94.667 -106 -278.667 -106 -552c0 -188.667 22 -341 66 -457c19.333 -50.667 45.666 -90.167 78.999 -118.5s70.333 -42.5 111 -42.5
c168 0 252 207.667 252 623c0 204 -21.333 360 -64 468c-42.667 108.667 -107.334 163 -194.001 163z" />
    <glyph glyph-name="one" unicode="1" horiz-adv-x="1071" 
d="M634 1399v-1219c0 -42 4 -70.333 12 -85c12 -22.667 40.333 -37.334 85 -44.001c16.667 -2 40.667 -4.33301 72 -7v-50c-84.667 8.66699 -169.334 13 -254.001 13s-169 -4.33301 -253 -13v50c58 4.66699 97.667 11.334 119 20.001c27.333 12.667 43 32.334 47 59.001
c2 11.333 3 30.333 3 57v940h-230v50c84.667 6 158.334 29.333 221.001 70c60 42.667 100.667 95.667 122 159h56z" />
    <glyph glyph-name="two" unicode="2" horiz-adv-x="1071" 
d="M915 143l-20.002 -142.996h-765v114c152.667 177.333 272.334 325.666 359.001 444.999c84.667 115.333 145.334 207.666 182.001 276.999c36 69.333 54 132 54 188c0 60.667 -19.667 111.334 -59 152.001c-41.333 42.667 -95.666 64 -162.999 64
c-46.667 0 -90.334 -10.833 -131.001 -32.5s-72.667 -51.167 -96 -88.5c-24 -38.667 -41.667 -93.334 -53 -164.001h-67c12 122 38 209.667 78 263c34 45.333 80 79.666 138 102.999c52.667 22 109.667 33 171 33c97.333 0 178 -25 242 -75
c36.667 -28 65.334 -62.833 86.001 -104.5s31 -84.834 31 -129.501c0 -91.333 -41.333 -194 -124 -308c-80.667 -111.333 -244.334 -309.333 -491.001 -594h628z" />
    <glyph glyph-name="three" unicode="3" horiz-adv-x="1071" 
d="M115 379h69c6 -63.333 17.667 -114.333 35 -153c42.667 -94 125 -141 247 -141c92 0 165.333 29.333 220 88c48.667 53.333 73 123.333 73 210c0 136.667 -51.333 225.334 -154 266.001c-46 18.667 -108.333 28 -187 28h-24v72h24c80 0 143.333 17.333 190 52
c65.333 48.667 98 119.667 98 213c0 69.333 -18.667 125.333 -56 168c-40 45.333 -95.667 68 -167 68c-96 0 -168 -35.667 -216 -107c-23.333 -34.667 -41.333 -83 -54 -145h-63c24 237.333 149 356 375 356c114 0 203.333 -33.667 268 -101
c56 -59.333 84 -132.666 84 -219.999c0 -90.667 -32.333 -165.667 -97 -225c-38 -34.667 -89.667 -62 -155 -82c206 -50 309 -165 309 -345c0 -114.667 -40.667 -210.334 -122 -287.001c-80 -75.333 -181 -113 -303 -113c-86 0 -159.667 17.5 -221 52.5
s-106 84.833 -134 149.5c-22.667 51.333 -35.667 116.666 -39 195.999z" />
    <glyph glyph-name="four" unicode="4" horiz-adv-x="1071" 
d="M591 -31v385h-552l555 1014h166v-886h227v-128h-227v-385h-169zM594 482l2 771l-415 -771h413z" />
    <glyph glyph-name="five" unicode="5" horiz-adv-x="1071" 
d="M849 1193l-524.997 0.000976562l-69 -396c73.333 76.667 165.666 115 276.999 115c119.333 0 215.333 -39.667 288 -119c75.333 -83.333 113 -192.333 113 -327c0 -128.667 -37 -239.334 -111 -332.001c-80 -101.333 -189.333 -152 -328 -152
c-136.667 0 -235.334 47.333 -296.001 142c-32 50 -51.333 116 -58 198h67c7.33301 -57.333 21 -101.666 41 -132.999c43.333 -68.667 112.666 -103 207.999 -103c98 0 174 39.333 228 118c48 69.333 72 155.666 72 258.999c0 105.333 -24.667 190 -74 254
c-49.333 64.667 -117.333 97 -204 97c-110.667 0 -196 -51.333 -256 -154l-61 4l116 672h591z" />
    <glyph glyph-name="six" unicode="6" horiz-adv-x="1071" 
d="M749 1420l105 0.000976562c-92.667 -88 -176.167 -176.833 -250.5 -266.5s-135.166 -175.834 -182.499 -258.501c53.333 18 101 27 143 27c106 0 195 -38.333 267 -115c81.333 -86.667 122 -202 122 -346c0 -138.667 -38.667 -252.667 -116 -342
c-78.667 -91.333 -179.667 -137 -303 -137c-120 0 -219.667 41.667 -299 125c-83.333 87.333 -125 204 -125 350c0 143.333 50.667 291 152 443c76 113.333 189 242 339 386c49.333 47.333 98.666 92 147.999 134zM529 855.001c-38.667 0 -74.5 -9.83105 -107.5 -29.498
s-58.5 -46.834 -76.5 -81.501c-38 -70 -57 -167.333 -57 -292c0 -273.333 80 -410 240 -410c92 0 157.667 43.667 197 131c30.667 69.333 46 160.666 46 273.999c0 272 -80.667 408 -242 408z" />
    <glyph glyph-name="seven" unicode="7" horiz-adv-x="1071" 
d="M203 0l592 1187h-683v149h845l-602 -1336h-152z" />
    <glyph glyph-name="eight" unicode="8" horiz-adv-x="1071" 
d="M702 699c156 -54.667 233.998 -164.333 233.998 -329c0 -111.333 -34 -202.333 -102 -273c-73.333 -76.667 -173 -115 -299 -115c-118 0 -213.667 34 -287 102c-74.667 68.667 -112 163 -112 283c0 94 27.333 171.667 82 233c34.667 38 84.334 71 149.001 99
c-56 24.667 -98.333 53.667 -127 87c-48.667 56 -73 126.667 -73 212c0 102 32.333 185.333 97 250c70 70.667 163.333 106 280 106c106.667 0 192.334 -30 257.001 -90c68.667 -64.667 103 -151 103 -259c0 -140.667 -67.333 -242.667 -202 -306zM536.998 667.001
c-76.667 0 -136.667 -34.667 -180 -104c-33.333 -53.333 -50 -121.333 -50 -204c0 -91.333 18.333 -166 55 -224c40 -62.667 97.667 -94 173 -94c80 0 140 35 180 105c33.333 58 50 129 50 213c0 86.667 -17 157.667 -51 213c-39.333 63.333 -98.333 95 -177 95z
M537.998 1295c-71.333 0 -124.667 -32.334 -160 -97.001c-26.667 -48.667 -40 -110.667 -40 -186c0 -83.333 14 -149.666 42 -198.999c32.667 -57.333 84 -86 154 -86c66.667 0 118 29 154 87c30 49.333 45 113 45 191c0 193.333 -65 290 -195 290z" />
    <glyph glyph-name="nine" unicode="9" horiz-adv-x="1071" 
d="M345 -86l-105 -0.000976562c78 76.667 149 155.334 213 236.001c88.667 112 154.667 209.333 198 292c-52.667 -18.667 -100 -28 -142 -28c-100.667 0 -184.667 37.667 -252 113c-80 88.667 -120 205.667 -120 351c0 134.667 35.667 246.667 107 336
c74.667 93.333 172 140 292 140c113.333 0 208 -40.667 284 -122c81.333 -88 122 -206.667 122 -356c0 -141.333 -46.667 -287 -140 -437c-68 -110 -174 -239.667 -318 -389c-50 -52.667 -96.333 -98 -139 -136zM537 1294c-40 0 -76.1689 -11.832 -108.502 -35.499
s-57.166 -56.167 -74.499 -97.5c-27.333 -66.667 -41 -155.334 -41 -266.001c0 -128 19 -229.667 57 -305c36.667 -72.667 93.334 -109 170.001 -109c153.333 0 230 130.667 230 392c0 280.667 -77.667 421 -233 421z" />
    <glyph glyph-name="colon" unicode=":" horiz-adv-x="470" 
d="M237 215c31.333 0 58.334 -11.332 81.001 -33.999s34 -50 34 -82c0 -32.667 -11.333 -60.334 -34 -83.001s-50 -34 -82 -34c-32.667 0 -60.334 11.333 -83.001 34c-22.667 23.333 -34 50.666 -34 81.999c0 32.667 11.333 60.334 34 83.001c23.333 22.667 51.333 34 84 34
zM237.001 893.001c31.333 0 58.333 -11.332 81 -33.999s34 -50 34 -82c0 -32.667 -11.333 -60.334 -34 -83.001s-50 -34 -82 -34s-59.667 11.333 -83 34c-22.667 23.333 -34 50.666 -34 81.999c0 32.667 11.333 60.334 34 83.001c23.333 22.667 51.333 34 84 34z" />
    <glyph glyph-name="semicolon" unicode=";" horiz-adv-x="480" 
d="M246 893c31.333 0 58.334 -11.332 81.001 -33.999s34 -50 34 -82c0 -32.667 -11.333 -60.334 -34 -83.001s-50 -34 -82 -34c-32.667 0 -60.334 11.333 -83.001 34c-22.667 23.333 -34 50.666 -34 81.999c0 32.667 11.333 60.334 34 83.001c23.333 22.667 51.333 34 84 34
zM179.001 -340.999l-102 -0.000976562c44 46 83.333 101 118 165c34 64 54 119.667 60 167h-8c-7.33301 -2 -13 -3 -17 -3c-26 0 -47.667 6.66699 -65 20c-25.333 18.667 -38 46.334 -38 83.001c0 32.667 11.333 59.667 34 81s51 32 85 32c40 0 71 -13.667 93 -41
c19.333 -24 29 -56.333 29 -97c0 -117.333 -63 -253 -189 -407z" />
    <glyph glyph-name="less" unicode="&#x3c;" 
d="M935 1249v-70l-656 -428l656 -437v-186l-846 563v13z" />
    <glyph glyph-name="equal" unicode="=" horiz-adv-x="1071" 
d="M110 764v120h852v-120h-852zM110 497v120h852v-120h-852z" />
    <glyph glyph-name="greater" unicode="&#x3e;" 
d="M89 128v70l655 428l-655 437v186l846 -563v-12z" />
    <glyph glyph-name="question" unicode="?" horiz-adv-x="784" 
d="M373 392l-87.002 0.000976562c-5.33301 40 -8 75.333 -8 106c0 74 13.667 135.667 41 185c18.667 34.667 42.667 66.667 72 96l60 61c78 78 117 151 117 219c0 64 -23.667 112.667 -71 146c-31.333 21.333 -69.333 32 -114 32c-80 0 -143.333 -28 -190 -84
c-32 -38.667 -51.667 -91.334 -59 -158.001h-55c0 71.333 10.667 130 32 176c28.667 63.333 76.334 111 143.001 143c54 26.667 113.667 40 179 40c73.333 0 135.333 -18 186 -54c78 -56 117 -135.667 117 -239c0 -62.667 -16 -119 -48 -169
c-25.333 -40 -73.666 -88 -144.999 -144c-52.667 -42 -89.667 -77 -111 -105c-41.333 -54 -62 -123 -62 -207c0 -11.333 1 -26 3 -44zM348.998 224.001c32 0 60 -11.667 84 -35c23.333 -24 35 -52.667 35 -86s-11.667 -62 -35 -86c-24 -23.333 -52.667 -35 -86 -35
s-62 11.667 -86 35c-23.333 24 -35 52.667 -35 86c0 34 11.667 62.667 35 86c24.667 23.333 54 35 88 35z" />
    <glyph glyph-name="at" unicode="@" horiz-adv-x="1449" 
d="M1290 357h95.998c-33.333 -58.667 -63.833 -104.5 -91.5 -137.5s-64.5 -66.5 -110.5 -100.5c-124.667 -93.333 -261.667 -140 -411 -140c-155.333 0 -296 41.667 -422 125c-106 70.667 -185 164 -237 280c-41.333 92 -62 189 -62 291c0 144 39 275.667 117 395
c70 108.667 163.667 191 281 247c98 46 202.333 69 313 69c180.667 0 335 -58 463 -174c114 -102.667 171 -234.334 171 -395.001c0 -144.667 -45.333 -267.334 -136 -368.001c-56 -62.667 -119.667 -109 -191 -139c-41.333 -17.333 -79.666 -26 -114.999 -26
c-57.333 0 -98.666 19.333 -123.999 58c-13.333 20 -23 51.667 -29 95c-32.667 -42.667 -60.667 -73 -84 -91c-43.333 -34.667 -91.666 -52 -144.999 -52c-78 0 -142.667 29.333 -194 88c-44.667 50.667 -67 115 -67 193c0 126 47 234.333 141 325
c84.667 81.333 178 122 280 122c89.333 0 146 -51.333 170 -154l36 136h140l-144 -536c-8 -30 -12 -51.333 -12 -64c0 -17.333 4.66699 -32.666 14 -45.999c12 -16.667 28.667 -25 50 -25c34 0 73.667 16.667 119 50c68.667 50.667 121.667 121 159 211
c32 75.333 48 149.666 48 222.999c0 140 -57.333 257.333 -172 352c-106 88 -231 132 -375 132c-166.667 0 -307.334 -51.667 -422.001 -155c-62 -55.333 -110.333 -123 -145 -203c-37.333 -83.333 -56 -171.666 -56 -264.999c0 -156.667 48.333 -290.334 145 -401.001
c53.333 -61.333 119.666 -110.666 198.999 -147.999c92.667 -43.333 192.334 -65 299.001 -65c114.667 0 221 33 319 99c54 36.667 99 77.667 135 123c12 14.667 28.667 38.334 50 71.001zM742.998 976c-33.333 0 -67.332 -13.1689 -101.999 -39.502
s-66.334 -63.166 -95.001 -110.499c-61.333 -101.333 -92 -202.666 -92 -303.999c0 -44.667 10.333 -84 31 -118c26 -42.667 62.333 -64 109 -64c80 0 148.333 64.333 205 193c45.333 102.667 68 201 68 295c0 38.667 -7.66699 70.667 -23 96c-21.333 34.667 -55 52 -101 52
z" />
    <glyph glyph-name="A" unicode="A" horiz-adv-x="1316" 
d="M844 395l-476.001 -0.000976562l-68 -192c-16.667 -46.667 -25 -78.667 -25 -96c0 -28.667 18.333 -47 55 -55c17.333 -4 44 -6.66699 80 -8v-50c-78 7.33301 -143 11 -195 11s-117 -3.66699 -195 -11v50c60.667 4 102.334 13.333 125.001 28
c24.667 17.333 48.667 56 72 116l467 1221l421 -1244c20 -56 46.667 -90 80 -102c24 -9.33301 60.667 -15.666 110 -18.999v-50c-94 10 -177 15 -249 15c-72.667 0 -156 -5 -250 -15v50c36.667 2.66699 65 7 85 13c30.667 8.66699 46 24.667 46 48c0 18 -4.33301 41 -13 69z
M391.999 458.999h432l-199 627z" />
    <glyph glyph-name="B" unicode="B" horiz-adv-x="1172" 
d="M785 729c56 -11.333 102.333 -28.333 139 -51c42 -26.667 76.333 -62.334 103 -107.001c31.333 -53.333 47 -113 47 -179c0 -92 -29 -174 -87 -246c-56.667 -69.333 -134.334 -113.666 -233.001 -132.999c-42.667 -8.66699 -99.667 -13 -171 -13h-518v50
c57.333 4 97 10.667 119 20c27.333 12 43 31.667 47 59c2 10.667 3 29.667 3 57v993c0 42 -4 70.333 -12 85c-18 29.333 -70.333 46.333 -157 51v50h540c66 0 120.833 -5.83301 164.5 -17.5s82.834 -30.5 117.501 -56.5c81.333 -62.667 122 -149 122 -259
c0 -146 -74.667 -247 -224 -303zM406 745h140c68 0 118.333 7.66699 151 23c86.667 40 130 126 130 258c0 92 -19 161.667 -57 209c-36.667 44.667 -100 67 -190 67h-174v-557zM406 682v-513c0 -43.333 7.33301 -71.333 22 -84c17.333 -14 52 -21 104 -21h75
c84 0 149 22 195 66c60 57.333 90 141.333 90 252c0 103.333 -25 181 -75 233c-42.667 44.667 -114.667 67 -216 67h-195z" />
    <glyph glyph-name="C" unicode="C" horiz-adv-x="1229" 
d="M1027 460l73.998 0.000976562c-4.66699 -104 -26 -192.333 -64 -265c-38.667 -72 -94 -127.667 -166 -167c-66.667 -36 -140.667 -54 -222 -54c-110.667 0 -210 32.667 -298 98c-90 66 -156.333 164.667 -199 296c-30.667 94.667 -46 198.667 -46 312
c0 205.333 48.333 375.666 145 510.999c48.667 68 112 120 190 156c64.667 29.333 135.667 44 213 44c126.667 0 233.667 -41 321 -123l72 119h37v-403h-47c-56 226.667 -175.333 340 -358 340c-136.667 0 -235.667 -60.667 -297 -182c-60.667 -118 -91 -270 -91 -456
c0 -174.667 27.667 -318 83 -430c62.667 -127.333 163.334 -191 302.001 -191c88.667 0 164.334 28.667 227.001 86c74 67.333 115.333 170.333 124 309z" />
    <glyph glyph-name="D" unicode="D" horiz-adv-x="1301" 
d="M226 186l-0.000976562 992.999c0 42 -4 70.333 -12 85c-18 29.333 -70.333 46.333 -157 51v50h502c124.667 0 222.667 -16 294 -48c112.667 -50.667 201.667 -141 267 -271c56 -110.667 84 -232 84 -364c0 -151.333 -36.333 -287.666 -109 -408.999
c-75.333 -126.667 -180.666 -209 -315.999 -247c-62 -17.333 -135.667 -26 -221 -26h-501v50c57.333 4 97 10.667 119 20c27.333 12 43 31.667 47 59c2 10.667 3 29.667 3 57zM399.999 1302v-1136c0 -34.667 2.66699 -57.667 8 -69c10 -19.333 31.667 -31 65 -35
c13.333 -2 34.666 -3 63.999 -3c150.667 0 262.334 38.333 335.001 115c100 106.667 150 277 150 511c0 216.667 -44.667 379.667 -134 489c-69.333 85.333 -177.333 128 -324 128h-164z" />
    <glyph glyph-name="E" unicode="E" horiz-adv-x="1113" 
d="M1015 330l-47.0029 -330h-903v50c57.333 4 97 10.667 119 20c27.333 12 43 31.667 47 59c2 10.667 3 29.667 3 57v993c0 42 -4 70.333 -12 85c-18 29.333 -70.333 46.333 -157 51v50h892l36 -307h-46c-24 91.333 -51.667 154.333 -83 189
c-33.333 36 -86.666 54.333 -159.999 55h-296v-561h293c37.333 0 63 6 77 18c25.333 22.667 40 73 44 151h50v-402h-50c-2 61.333 -11.667 105 -29 131c-18.667 26 -53 39 -103 39h-282v-494c0 -37.333 3 -61.333 9 -72c14.667 -32 57.334 -48.333 128.001 -49h145
c78.667 0 135.334 15.333 170.001 46c46.667 41.333 82.667 115 108 221h47z" />
    <glyph glyph-name="F" unicode="F" horiz-adv-x="1066" 
d="M417 678l-0.00195312 -498c0 -42.667 4 -71 12 -85c12 -22.667 40.333 -37.334 85 -44.001c16.667 -2 40.667 -4.33301 72 -7v-50c-105.333 10 -190.666 15 -255.999 15c-64.667 0 -150 -5 -256 -15v50c58 4.66699 97.667 11.334 119 20.001
c27.333 12.667 43 32.334 47 59.001c2 10.667 3 29.667 3 57v999c0 42 -4 70.333 -12 85c-18 29.333 -70.333 46.333 -157 51v50h892l36 -307h-46c-19.333 76 -40.333 130.333 -63 163c-21.333 31.333 -46.333 53 -75 65c-25.333 10.667 -60.333 16 -105 16h-296v-561h293
c37.333 0 63 6 77 18c25.333 23.333 40 73.666 44 150.999h50v-402h-50c-2 60.667 -11.667 104.667 -29 132c-15.333 25.333 -49.666 38 -102.999 38h-282z" />
    <glyph glyph-name="G" unicode="G" horiz-adv-x="1300" 
d="M1098 1391l-0.00195312 -407h-47c-22.667 77.333 -48 139 -76 185c-31.333 49.333 -73 88 -125 116s-109.333 42 -172 42c-101.333 0 -184.666 -34 -249.999 -102c-96.667 -102.667 -145 -281.667 -145 -537c0 -434.667 130.333 -652 391 -652
c87.333 0 179.333 26 276 78v346c0 27.333 -3.66699 47 -11 59c-14.667 24 -64 38.333 -148 43v50c94 -8 171.667 -12 233 -12s139 4 233 12v-50c-58.667 -4 -97.334 -11.333 -116.001 -22c-15.333 -8.66699 -24.333 -22 -27 -40c-1.33301 -4.66699 -2 -19 -2 -43v-333
c-160 -98 -313 -147 -459 -147c-115.333 0 -217.666 32.667 -306.999 98c-92 67.333 -159 164 -201 290c-31.333 95.333 -47 203.333 -47 324c0 210 48.667 378 146 504c100.667 130 237.334 195 410.001 195c121.333 0 229.333 -39 324 -117l83 120h37z" />
    <glyph glyph-name="H" unicode="H" horiz-adv-x="1388" 
d="M406 744l575.005 -0.00390625v441c0 42 -4 70.333 -12 85c-12 22.667 -40.333 37.334 -85 44.001c-18 2.66699 -42 5 -72 7v50c104 -10 189.667 -15 257 -15s151.666 5 252.999 15v-50c-57.333 -4 -97 -10.667 -119 -20c-27.333 -12 -43 -31.667 -47 -59
c-2 -10 -3 -29 -3 -57v-1005c0 -42 4 -70.333 12 -85c12 -22.667 40.333 -37.334 85 -44.001c16.667 -2 40.667 -4.33301 72 -7v-50c-106 10 -190.333 15 -253 15s-148.334 -5 -257.001 -15v50c58 4.66699 97.667 11.334 119 20.001c27.333 12.667 43 32.334 47 59.001
c2 10.667 3 29.667 3 57v501h-575v-501c0 -42 4 -70.333 12 -85c12.667 -22.667 41 -37.334 85 -44.001c16.667 -2 40.667 -4.33301 72 -7v-50c-108.667 10 -194.334 15 -257.001 15s-147 -5 -253 -15v50c58 4.66699 97.667 11.334 119 20.001
c27.333 12.667 43 32.334 47 59.001c2 10.667 3 29.667 3 57v1005c0 42 -4 70.333 -12 85c-12 22.667 -40.333 37.334 -85 44.001c-18 2.66699 -42 5 -72 7v50c101.333 -10 185.666 -15 252.999 -15s153 5 257 15v-50c-57.333 -4 -97 -10.667 -119 -20
c-26.667 -12 -42.334 -31.667 -47.001 -59c-2 -10 -3 -29 -3 -57v-441z" />
    <glyph glyph-name="I" unicode="I" horiz-adv-x="642" 
d="M234 180l0.000976562 1005c0 42 -4 70.333 -12 85c-12 22.667 -40.333 37.334 -85 44.001c-18 2.66699 -42 5 -72 7v50c104 -10 189.333 -15 256 -15s152 5 256 15v-50c-57.333 -4 -97 -10.667 -119 -20c-26.667 -12 -42.334 -31.667 -47.001 -59
c-2 -10.667 -3 -29.667 -3 -57v-1005c0 -42.667 4 -71 12 -85c12 -22.667 40.333 -37.334 85 -44.001c16.667 -2 40.667 -4.33301 72 -7v-50c-108.667 10 -194 15 -256 15s-147.333 -5 -256 -15v50c58 4.66699 97.667 11.334 119 20.001c27.333 12.667 43 32.334 47 59.001
c2 10.667 3 29.667 3 57z" />
    <glyph glyph-name="J" unicode="J" horiz-adv-x="638" 
d="M-12 -142l0.00488281 61c18 -1.33301 32.333 -2 43 -2c63.333 0 111.666 13.667 144.999 41c28.667 23.333 46.667 59 54 107c4 22.667 6 59 6 109v1011c0 44.667 -3.66699 73.334 -11 86.001c-18.667 28 -71.334 44.667 -158.001 50v50
c103.333 -10 188.666 -15 255.999 -15s152.666 5 255.999 15v-50c-54.667 -3.33301 -94.334 -10 -119.001 -20c-28 -12.667 -43.667 -32.334 -47 -59.001c-2 -10 -3 -29 -3 -57v-940c0 -106 -13 -183 -39 -231c-58.667 -106 -164 -159 -316 -159c-18.667 0 -41 1 -67 3z" />
    <glyph glyph-name="K" unicode="K" horiz-adv-x="1305" 
d="M402 715l466.001 512c18.667 20.667 28 37.667 28 51c0 20.667 -17 33 -51 37c-17.333 2.66699 -42.333 4.66699 -75 6v50c76 -6 146 -9 210 -9s134 3 210 9v-50c-48.667 -2 -87 -7.33301 -115 -16c-42.667 -13.333 -86 -44 -130 -92l-353 -389l455 -649
c41.333 -57.333 81.666 -94.333 120.999 -111c28.667 -10.667 66.334 -17.334 113.001 -20.001v-50c-102.667 10.667 -192 16 -268 16c-75.333 0 -164 -5.33301 -266 -16v50c36 2.66699 64 5.66699 84 9c38 6 57 21 57 45c0 12.667 -12 36.667 -36 72l-368 547l-84 -90v-447
c0 -42 4 -70.333 12 -85c18 -28.667 69 -45.667 153 -51v-50c-90.667 10 -171 15 -241 15c-69.333 0 -155.333 -5 -258 -15v50c57.333 4 97 10.667 119 20c26.667 12 42 31.667 46 59c2.66699 12 4 31 4 57v1005c0 42.667 -4 71 -12 85
c-12 22.667 -40.333 37.334 -85 44.001c-18.667 2.66699 -42.667 5 -72 7v50c104.667 -10 190.667 -15 258 -15c68 0 150.333 5 247 15v-50c-56.667 -3.33301 -96.334 -10 -119.001 -20c-27.333 -12 -43 -31.667 -47 -59c-2 -10 -3 -29 -3 -57v-470z" />
    <glyph glyph-name="L" unicode="L" horiz-adv-x="1035" 
d="M1015 330l-47.001 -330.002h-903v50c57.333 4 97 10.667 119 20c27.333 12 43 31.667 47 59c2 10.667 3 29.667 3 57v999c0 42 -4 70.333 -12 85c-12 22.667 -40.333 37.334 -85 44.001c-18 2.66699 -42 5 -72 7v50c104 -10 189.333 -15 256 -15s152 5 256 15v-50
c-57.333 -4 -97 -10.667 -119 -20c-26.667 -12 -42.334 -31.667 -47.001 -59c-2 -10.667 -3 -29.667 -3 -57v-995c0 -37.333 3 -61.333 9 -72c14.667 -32 57.334 -48.333 128.001 -49h145c63.333 0.666992 110 8.66699 140 24c28.667 14.667 54.834 42.334 78.501 83.001
s43.5 92 59.5 154h47z" />
    <glyph glyph-name="M" unicode="M" horiz-adv-x="1682" 
d="M346 1244l-41.999 -1064v-20c0 -29.333 4 -51 12 -65c16 -27.333 68.333 -44.333 157 -51v-50c-86 6.66699 -153.333 10 -202 10c-48 0 -116.667 -3.33301 -206 -10v50c58.667 4 98.667 11 120 21c22 10 36.333 29.333 43 58c3.33301 14 5.33301 33 6 57l43 1005v7
c0 37.333 -4 63.333 -12 78c-16.667 28.667 -69 45.667 -157 51v50c64.667 -5.33301 121 -8 169 -8c64 0 128.667 3.66699 194 11l380 -1036l386 1036c79.333 -7.33301 145.333 -11 198 -11c42 0 95.333 2.66699 160 8v-50c-54.667 -3.33301 -94.334 -10 -119.001 -20
c-33.333 -14 -50 -47 -50 -99v-17l21 -1005c1.33301 -42 6 -70.333 14 -85c18 -28.667 70 -45.667 156 -51v-50c-106.667 10 -192.334 15 -257.001 15c-64 0 -149 -5 -255 -15v50c52 2.66699 91.667 9.33398 119 20.001c26.667 10.667 42.334 30.334 47.001 59.001
c2 11.333 3 27 3 47v10l-17 1061l-339 -913l-52 -144l-27 -78l-24 -66h-30l-23 66l-28 79l-29 80l-25 71z" />
    <glyph glyph-name="N" unicode="N" horiz-adv-x="1377" 
d="M1149 -41h-29.999l-163 250l-50 76l-604 908v-1013c0 -44.667 3.66699 -73.334 11 -86.001c20 -28 72.667 -44.667 158 -50v-50c-97.333 6.66699 -166.333 10 -207 10c-43.333 0 -109.666 -3.33301 -198.999 -10v50c56.667 4 96.334 10.667 119.001 20
c28 12.667 43.667 32.334 47 59.001c2 11.333 3 30.333 3 57v1081c-20.667 22 -45.334 37.333 -74.001 46c-25.333 7.33301 -57.666 12 -96.999 14v50c61.333 -4.66699 118.666 -7 171.999 -7c50.667 0 100.667 2.33301 150 7l695 -1037v851
c0 44.667 -3.66699 73.334 -11 86.001c-18 28 -70.667 44.667 -158 50v50c92.667 -6.66699 162 -10 208 -10c47.333 0 113.666 3.33301 198.999 10v-50c-54.667 -3.33301 -94.334 -10 -119.001 -20c-28 -12.667 -43.667 -32.334 -47 -59.001c-2 -10 -3 -29 -3 -57v-1226z
" />
    <glyph glyph-name="O" unicode="O" horiz-adv-x="1295" 
d="M655 1391c118 0 223.667 -38 317 -114c84 -69.333 145.333 -167.666 184 -294.999c27.333 -90.667 41 -190.334 41 -299.001c0 -192 -42.333 -354 -127 -486c-48 -74.667 -111.333 -131.667 -190 -171c-68 -34.667 -144.333 -52 -229 -52c-122 0 -229 36.333 -321 109
c-88 68.667 -152 170.667 -192 306c-26.667 90 -40 188 -40 294c0 194.667 41.667 355 125 481c99.333 151.333 243.333 227 432 227zM644 1334c-90 0 -166.667 -39.668 -230 -119.001c-87.333 -108.667 -131 -284 -131 -526c0 -170 24 -314.667 72 -434
c26 -66 64.333 -120 115 -162c50.667 -41.333 111.334 -62 182.001 -62c96.667 0 175.334 40.333 236.001 121c47.333 64 81.666 155.667 102.999 275c14 78.667 21 165 21 259c0 172.667 -23 315.334 -69 428.001c-60.667 146.667 -160.334 220 -299.001 220z" />
    <glyph glyph-name="P" unicode="P" horiz-adv-x="1116" 
d="M408 616v-436c0 -42.667 4 -71 12 -85c12 -22.667 40.333 -37.334 85 -44.001c16.667 -2 40.667 -4.33301 72 -7v-50c-108.667 10 -194 15 -256 15s-147.333 -5 -256 -15v50c58 4.66699 97.667 11.334 119 20.001c27.333 12.667 43 32.334 47 59.001
c2 10.667 3 29.667 3 57v999c0 42 -4 70.333 -12 85c-18 29.333 -70.333 46.333 -157 51v50h540c71.333 0 130.5 -5.66699 177.5 -17s88.833 -30 125.5 -56c46 -32.667 82.667 -76.334 110 -131.001c26.667 -54.667 40 -112.667 40 -174c0 -127.333 -50 -226 -150 -296
c-70.667 -50 -164.667 -75 -282 -75h-218zM408 679l163 -0.000976562c95.333 0 166.666 20.333 213.999 61c66 56.667 99 141.334 99 254.001c0 102 -25.667 180.667 -77 236c-45.333 48 -119.666 72 -222.999 72h-176v-623z" />
    <glyph glyph-name="Q" unicode="Q" horiz-adv-x="1289" 
d="M1319 30v-53.001h-68c-74.667 0 -137.667 18 -189 54c-23.333 16.667 -51.333 39 -84 67c-90 -82.667 -200 -124 -330 -124c-120.667 0 -226.667 36.333 -318 109c-88 69.333 -152 171 -192 305c-26.667 91.333 -40 191 -40 299c0 189.333 41 348.333 123 477
c45.333 70.667 105.333 126.334 180 167.001c73.333 40 154.333 60 243 60c122.667 0 230 -38 322 -114c84 -68 145.333 -166 184 -294c27.333 -91.333 41 -192 41 -302c0 -168 -35 -317 -105 -447c40 -64.667 76 -112.667 108 -144c40 -38 81.667 -58 125 -60zM641 1334
c-90.667 0 -167.667 -39.999 -231 -119.999c-86.667 -108 -130 -282 -130 -522c0 -170.667 24 -316.334 72 -437.001c26.667 -65.333 65.334 -119 116.001 -161c50.667 -41.333 111 -62 181 -62c97.333 0 176 40.333 236 121c47.333 63.333 81.666 155 102.999 275
c14 78.667 21 163.667 21 255c0 173.333 -23.333 317 -70 431c-60.667 146.667 -160 220 -298 220z" />
    <glyph glyph-name="R" unicode="R" horiz-adv-x="1221" 
d="M406 649v-469.003c0 -42 4 -70.333 12 -85c12.667 -22.667 41 -37.334 85 -44.001c16.667 -2 40.667 -4.33301 72 -7v-50c-105.333 10 -189.666 15 -252.999 15c-62.667 0 -148.334 -5 -257.001 -15v50c58 4.66699 97.667 11.334 119 20.001
c27.333 12.667 43 32.334 47 59.001c2 10.667 3 29.667 3 57v999c0 42 -4 70.333 -12 85c-18 29.333 -70.333 46.333 -157 51v50h549c122 0 216.667 -22 284 -66c46.667 -31.333 84 -73.666 112 -126.999c28 -52.667 42 -108 42 -166c0 -87.333 -29.333 -163.333 -88 -228
c-50.667 -55.333 -133 -94.666 -247 -117.999c30 -8 58.667 -21.667 86 -41c28 -19.333 57.667 -64 89 -134l141 -323c26 -58 52 -92.667 78 -104c19.333 -8 49 -12.667 89 -14v-50c-54.667 4 -99.667 6 -135 6s-80.333 -2 -135 -6l-57 126l-157 366
c-21.333 48.667 -40.666 83 -57.999 103c-24.667 29.333 -59.334 47.333 -104.001 54c-22.667 4 -46 6 -70 6h-78zM408 711.997h171.001c92.667 0 163 21.667 211 65c58.667 54 88 132.333 88 235c0 96 -24.333 168.333 -73 217s-120.334 73 -215.001 73h-182v-590z" />
    <glyph glyph-name="S" unicode="S" horiz-adv-x="1063" 
d="M119 413l48 0.000976562c40.667 -244.667 161 -367 361 -367c87.333 0 157 27 209 81c49.333 51.333 74 114.333 74 189c0 82 -30.667 146 -92 192c-30.667 23.333 -96 60.666 -196 111.999c-153.333 78 -249.333 135.333 -288 172c-62.667 58 -94 135.333 -94 232
c0 110 37.333 198 112 264c71.333 64 164 96 278 96c103.333 0 192.333 -35.333 267 -106l61 114h37v-377h-48c-16.667 72.667 -39 132 -67 178c-52 86 -130 129 -234 129c-76.667 0 -139.334 -25.667 -188.001 -77c-46.667 -48.667 -70 -106.667 -70 -174
c0 -76.667 38.667 -139 116 -187c32 -20 98.667 -55.667 200 -107c110.667 -56 188.334 -101 233.001 -135c82.667 -62.667 124 -152.667 124 -270c0 -116.667 -39.333 -211.667 -118 -285c-75.333 -70.667 -172.333 -106 -291 -106c-122 0 -229.667 39.667 -323 119
l-74 -131h-37v444z" />
    <glyph glyph-name="T" unicode="T" horiz-adv-x="1083" 
d="M625 1302l-0.00195312 -1122c0 -44.667 3.66699 -73.334 11 -86.001c20 -27.333 72.667 -44 158 -50v-50c-105.333 10 -190.666 15 -255.999 15c-64.667 0 -150 -5 -256 -15v50c56.667 4 96.334 10.667 119.001 20c28 12.667 43.667 32.334 47 59.001
c2 10.667 3 29.667 3 57v1122h-110c-86.667 -0.666992 -147.667 -27.334 -183 -80.001c-24 -36 -47.333 -92.333 -70 -169h-50l55 312h896l57 -312h-49c-21.333 80 -43.666 137 -66.999 171c-22.667 32.667 -49.334 54.334 -80.001 65.001
c-23.333 8.66699 -55.333 13 -96 13h-129z" />
    <glyph glyph-name="U" unicode="U" horiz-adv-x="1361" 
d="M1138 1185l0.00195312 -749.004c0 -85.333 -8 -151 -24 -197c-31.333 -89.333 -88 -156.666 -170 -201.999c-72.667 -40 -160.667 -60 -264 -60c-154.667 0 -274.667 46.333 -360 139c-46 50 -75 107 -87 171c-6.66699 38 -10 82.333 -10 133v765c0 42 -4 70.333 -12 85
c-12 22.667 -40.333 37.334 -85 44.001c-18 2.66699 -42 5 -72 7v50c104 -10 189.333 -15 256 -15s152 5 256 15v-50c-57.333 -4 -97 -10.667 -119 -20c-26.667 -12 -42.334 -31.667 -47.001 -59c-2 -10.667 -3 -29.667 -3 -57v-782c0 -81.333 8 -140.333 24 -177
c25.333 -57.333 69 -99.333 131 -126c47.333 -21.333 103.333 -32 168 -32c68 0 128.5 11.833 181.5 35.5s92.833 56.834 119.5 99.501c32 50.667 48 125 48 223v759c0 42 -4 70.333 -12 85c-12 22.667 -40.333 37.334 -85 44.001c-18 2.66699 -42 5 -72 7v50
c93.333 -6.66699 162.666 -10 207.999 -10c46.667 0 113 3.33301 199 10v-50c-57.333 -4 -97 -10.667 -119 -20c-27.333 -12 -43 -31.667 -47 -59c-2 -10 -3 -29 -3 -57z" />
    <glyph glyph-name="V" unicode="V" horiz-adv-x="1312" 
d="M676 -25h-51.002l-418 1215c-22 62 -48 99 -78 111c-23.333 10 -59.666 16.667 -108.999 20v50c86 -10 168 -15 246 -15c78.667 0 161 5 247 15v-50c-31.333 -2 -57.666 -5.66699 -78.999 -11c-38.667 -8.66699 -58 -26 -58 -52c0 -10 5.33301 -31 16 -63l314 -932
l318 910c14.667 41.333 22 69.666 22 84.999c0 26.667 -17 44.334 -51 53.001c-19.333 4.66699 -48 8 -86 10v50c68 -7.33301 129.667 -11 185 -11s121.333 3.66699 198 11v-50c-43.333 -3.33301 -78 -10.333 -104 -21c-35.333 -14 -60.333 -41.667 -75 -83z" />
    <glyph glyph-name="W" unicode="W" horiz-adv-x="1796" 
d="M576 -25h-40.001l-332 1226c-13.333 49.333 -34.333 82 -63 98c-22 12 -56.333 19.333 -103 22v50c83.333 -10 162.666 -15 237.999 -15s154.333 5 237 15v-50c-33.333 -2.66699 -59.333 -6 -78 -10c-38.667 -8 -58 -26 -58 -54c0 -11.333 3.66699 -30.666 11 -57.999
l230 -850l314 1047h47l307 -1049l234 847c8.66699 30.667 13 53 13 67c0 26 -16 43 -48 51c-20 4.66699 -46.667 7.66699 -80 9v50c64.667 -7.33301 124.334 -11 179.001 -11s114.334 3.66699 179.001 11v-50c-49.333 -2.66699 -84 -9.33398 -104 -20.001
c-28.667 -16 -49 -45 -61 -87l-349 -1239h-38l-312 1105z" />
    <glyph glyph-name="X" unicode="X" horiz-adv-x="1272" 
d="M23 -6l0.00488281 50.0029c55.333 1.33301 99.333 12.666 132 33.999c35.333 22.667 71 62.667 107 120l304 483l-277 516c-20 37.333 -36 61.666 -48 72.999c-28.667 28.667 -80.334 45.667 -155.001 51v50c88 -9.33301 172.333 -14 253 -14s165 4.66699 253 14v-50
c-32 -2.66699 -58 -5.66699 -78 -9c-38.667 -7.33301 -58 -23 -58 -47c0 -14.667 7 -35.667 21 -63l193 -359l214 338c27.333 43.333 41 72.333 41 87c0 23.333 -16 38.333 -48 45c-16.667 3.33301 -43.334 6 -80.001 8v50c67.333 -6.66699 133.666 -10 198.999 -10
c64.667 0 130.667 3.33301 198 10v-50c-50 -4 -88.667 -11 -116 -21c-32.667 -13.333 -62.667 -41.666 -90 -84.999l-281 -441l319 -596c32.667 -60.667 64.334 -98.334 95.001 -113.001c23.333 -10.667 63 -17.667 119 -21v-50c-100.667 9.33301 -187.334 14 -260.001 14
s-159.667 -4.66699 -261 -14v50c37.333 3.33301 65.666 6.66602 84.999 9.99902c38 6 57 22.333 57 49c0 17.333 -12.333 49 -37 95l-222 414l-267 -429c-26 -42 -39 -70 -39 -84c0 -26.667 18 -42.667 54 -48c15.333 -2.66699 40.666 -5 75.999 -7v-50
c-75.333 6 -142.333 9 -201 9s-126 -3 -202 -9z" />
    <glyph glyph-name="Y" unicode="Y" horiz-adv-x="1211" 
d="M523 595l-304.001 605c-26 51.333 -54 84.333 -84 99c-23.333 10.667 -59 18 -107 22v50c92 -9.33301 176 -14 252 -14s159.667 4.66699 251 14v-50c-34 -2 -62.333 -5 -85 -9c-38.667 -6.66699 -58 -22.334 -58 -47.001c0 -13.333 7 -34 21 -62l262 -520l261 523
c13.333 26 20 46 20 60c0 24.667 -18.333 40.334 -55 47.001c-20 3.33301 -48 6 -84 8v50c75.333 -6.66699 138.333 -10 189 -10s113.667 3.33301 189 10v-50c-47.333 -5.33301 -82 -12.333 -104 -21c-30.667 -13.333 -58 -43 -82 -89l-308 -616v-415
c0 -44.667 3.66699 -73.334 11 -86.001c20 -28 72.667 -44.667 158 -50v-50c-108.667 10 -194 15 -256 15c-62.667 0 -148 -5 -256 -15v50c56.667 4 96.334 10.667 119.001 20c28 12.667 43.667 32.334 47 59.001c2 11.333 3 30.333 3 57v415z" />
    <glyph glyph-name="Z" unicode="Z" horiz-adv-x="1102" 
d="M64 0l739.999 1302h-343c-56 -0.666992 -98.667 -8 -128 -22c-61.333 -29.333 -106.333 -101.333 -135 -216h-53l55 301h833l-739 -1302h387c66.667 0 113.334 6.33301 140.001 19c62 28 117.667 111.667 167 251h50l-61 -333h-913z" />
    <glyph glyph-name="bracketleft" unicode="[" horiz-adv-x="633" 
d="M575 1304h-209v-1641h209v-61h-355v1763h355v-61z" />
    <glyph glyph-name="backslash" unicode="\" horiz-adv-x="826" 
d="M1001 -398h-113l-868 1763h113z" />
    <glyph glyph-name="bracketright" unicode="]" horiz-adv-x="633" 
d="M57 -337h209v1641h-209v61h355v-1763h-355v61z" />
    <glyph glyph-name="asciicircum" unicode="^" 
d="M1073 588h-70l-429 656l-437 -656h-186l564 846h12z" />
    <glyph glyph-name="underscore" unicode="_" 
d="M50 -179h923v-79h-923v79z" />
    <glyph glyph-name="grave" unicode="`" 
d="M585 1129l-285 256h167l170 -256h-52z" />
    <glyph glyph-name="a" unicode="a" horiz-adv-x="955" 
d="M639 161c-27.333 -49.333 -53.668 -85.668 -79.001 -109.001c-49.333 -46.667 -114.666 -70 -195.999 -70c-82 0 -149.333 23.667 -202 71c-55.333 50 -83 114 -83 192c0 122.667 77.667 216.334 233 281.001c88 36.667 189 62.334 303 77.001v122
c0 68.667 -10.333 117.334 -31 146.001c-29.333 40 -75.333 60 -138 60c-53.333 0 -98.333 -14.333 -135 -43c-23.333 -19.333 -35 -45 -35 -77v-18c0.666992 -12 1 -22 1 -30c0 -60.667 -27.667 -91 -83 -91c-45.333 0 -68 23 -68 69c0 62.667 30 117.667 90 165
c68 53.333 150 80 246 80c66.667 0 126.667 -14.333 180 -43c66 -36 107.333 -87.667 124 -155c8.66699 -34.667 13 -81.334 13 -140.001v-418c0 -64.667 5 -111.334 15 -140.001s31.667 -43 65 -43c12.667 0 30 2.33301 52 7v-54c-46 -9.33301 -84.333 -14 -115 -14
c-58 0 -100 21 -126 63c-16 26 -26.333 63.333 -31 112zM614.998 549.998c-93.333 -16.667 -170 -40.002 -230 -70.002c-93.333 -47.333 -140 -121.666 -140 -222.999c0 -59.333 16 -105.666 48 -138.999c29.333 -31.333 70 -47 122 -47c88 0 147.333 40.333 178 121
c14.667 39.333 22 99.333 22 180v178z" />
    <glyph glyph-name="b" unicode="b" horiz-adv-x="1043" 
d="M167 -23v1201c0 39.333 -4 66.666 -12 81.999c-11.333 20 -34 32 -68 36c-18 1.33301 -39.667 2 -65 2v36c108.667 9.33301 211.334 27.333 308.001 54v-561c28 44 53.333 76 76 96c44.667 41.333 103 62 175 62c113.333 0 205.333 -48 276 -144
c69.333 -94.667 104 -214 104 -358c0 -146 -36.667 -266.333 -110 -361c-72.667 -94 -165.667 -141 -279 -141c-120.667 0 -209.334 59.667 -266.001 179l-88 -183h-51zM559 928.001c-39.333 0 -75.166 -12 -107.499 -36s-56.833 -57 -73.5 -99
c-33.333 -82 -50 -189.333 -50 -322c0 -123.333 14.333 -222.333 43 -297c17.333 -43.333 44.666 -78.333 81.999 -105c30 -20.667 64 -31 102 -31c60 0 110.333 25.333 151 76c55.333 70 83 193.667 83 371c0 295.333 -76.667 443 -230 443z" />
    <glyph glyph-name="c" unicode="c" horiz-adv-x="892" 
d="M789 1009l0.000976562 -337h-46c-12.667 61.333 -28.667 110 -48 146c-19.333 36.667 -45.833 65.667 -79.5 87s-69.834 32 -108.501 32c-85.333 0 -148 -45 -188 -135c-37.333 -84.667 -56 -192.667 -56 -324c0 -288 79.333 -432 238 -432c126 0 201.667 89.667 227 269
h82c-8.66699 -74.667 -27.667 -137 -57 -187c-57.333 -100 -147 -150 -269 -150c-120 0 -217.333 47 -292 141c-71.333 90 -107 209.333 -107 358c0 157.333 39.667 284 119 380c74 90 169.333 135 286 135c80.667 0 150 -29 208 -87l55 104h36z" />
    <glyph glyph-name="d" unicode="d" horiz-adv-x="1050" 
d="M1013 68l-0.000976562 -35.998c-112.667 -13.333 -202.667 -31 -270 -53c-13.333 55.333 -22.666 110 -27.999 164c-56.667 -112 -141 -168 -253 -168c-111.333 0 -202.333 47 -273 141c-72 94.667 -108 215 -108 361c0 143.333 34.333 262.333 103 357
c70 96.667 160 145 270 145c71.333 0 128.666 -20.667 171.999 -62c21.333 -20 46 -52.333 74 -97v358c0 39.333 -4 66.666 -12 81.999c-11.333 20 -34.333 32 -69 36c-17.333 1.33301 -38.666 2 -63.999 2v36c110 9.33301 213 27.333 309 54v-1180c0 -40 2.33301 -68 7 -84
c6.66699 -24.667 22.667 -40.334 48 -47.001c18.667 -5.33301 50 -8.33301 94 -9zM468.999 922.002c-144 0 -216 -147.667 -216 -443c0 -123.333 14.667 -224.333 44 -303c16 -44 40.5 -79 73.5 -105s69.5 -39 109.5 -39c54 0 100.333 22.667 139 68
c55.333 64 83 184.667 83 362c0 306.667 -77.667 460 -233 460z" />
    <glyph glyph-name="e" unicode="e" horiz-adv-x="939" 
d="M777 315h80c-8.66699 -78 -33.667 -145 -75 -201c-65.333 -89.333 -161 -134 -287 -134c-130 0 -230.333 44.667 -301 134c-75.333 95.333 -113 219 -113 371c0 150 37.667 272.333 113 367c72 90 168 135 288 135c93.333 0 173 -29.667 239 -89
c86 -78 131 -208.333 135 -391h-609c-0.666992 -18.667 -1 -33 -1 -43c0 -115.333 20 -213.333 60 -294c40.667 -81.333 111 -122 211 -122c99.333 0 172 43 218 129c20 37.333 34 83.333 42 138zM692 580c-10.667 236 -81.333 354 -212 354c-132.667 0 -209 -118 -229 -354
h441z" />
    <glyph glyph-name="f" unicode="f" horiz-adv-x="606" 
d="M368 967l234 -0.000976562v-75h-234v-747c0 -34 4 -57.333 12 -70c15.333 -23.333 60.333 -36.666 135 -39.999v-41c-94.667 8 -171 12 -229 12s-134.333 -4 -229 -12v41c47.333 2 81.666 7 102.999 15c22.667 9.33301 36.334 25.333 41.001 48
c2 8.66699 3 24.334 3 47.001v747h-141v63c56.667 1.33301 95 7.33301 115 18c17.333 9.33301 28.666 26 33.999 50c1.33301 9.33301 3 29.666 5 60.999c3.33301 60 9.66602 106.333 18.999 139c15.333 56 50 99.667 104 131c46 26.667 98.333 40 157 40
c64.667 0 116.334 -17.333 155.001 -52c30.667 -27.333 46 -61 46 -101c0 -51.333 -25.333 -77 -76 -77c-22 0 -40 6 -54 18c-12.667 11.333 -19 25.333 -19 42c0 6.66699 1 16 3 28c1.33301 11.333 2 21.333 2 30c0 15.333 -4 28 -12 38
c-11.333 14.667 -27.666 22 -48.999 22c-50.667 0 -86.667 -26.667 -108 -80c-11.333 -29.333 -17 -82.333 -17 -159v-136z" />
    <glyph glyph-name="g" unicode="g" horiz-adv-x="1008" 
d="M707 932l272.004 0.00195312v-82l-196 5c33.333 -51.333 50 -108.333 50 -171c0 -108.667 -44.333 -192.334 -133 -251.001c-38.667 -25.333 -112 -51.666 -220 -78.999c-58.667 -14.667 -105.334 -27.667 -140.001 -39c-46 -15.333 -69 -37.666 -69 -66.999
c0 -24.667 13.333 -41 40 -49c20.667 -6 69 -11.667 145 -17c152.667 -10.667 258.667 -27.667 318 -51c56 -22 98.667 -57.333 128 -106c20.667 -34.667 31 -73.334 31 -116.001c0 -44 -10.667 -86.333 -32 -127s-50.333 -73.667 -87 -99
c-84 -59.333 -192.333 -89 -325 -89c-114.667 0 -212.334 22 -293.001 66c-42.667 23.333 -75.834 54.166 -99.501 92.499s-35.5 80.166 -35.5 125.499c0 100 65.667 173 197 219c-28.667 12 -50 23.333 -64 34c-29.333 22.667 -44 51 -44 85c0 76 73.667 131.333 221 166
c-52.667 16 -96.667 38.667 -132 68c-69.333 58 -104 133.667 -104 227c0 94.667 31 169 93 223c64.667 56.667 154 85 268 85c79.333 0 149.666 -17.667 210.999 -53zM485.004 933.002c-62.667 0 -111 -23 -145 -69c-33.333 -46 -50 -108.667 -50 -188
c0 -70.667 14.333 -128.334 43 -173.001c33.333 -54 84 -81 152 -81c67.333 0 117.333 26.333 150 79c28.667 46.667 43 106.334 43 179.001c0 168.667 -64.333 253 -193 253zM457.004 36.002c-95.333 0 -172.666 -16.001 -231.999 -48.001
c-53.333 -28.667 -80 -70.667 -80 -126c0 -61.333 30.667 -109.666 92 -144.999c69.333 -39.333 152.666 -59 249.999 -59c96 0 175 18.333 237 55c55.333 33.333 83 81.333 83 144c0 119.333 -116.667 179 -350 179z" />
    <glyph glyph-name="h" unicode="h" horiz-adv-x="1106" 
d="M355 1388l-0.00292969 -539c65.333 91.333 152 137 260 137c110.667 0 193.667 -42.333 249 -127c33.333 -50 50 -124 50 -222v-492c0 -33.333 4 -56.666 12 -69.999c16.667 -24 61.667 -37.333 135 -40v-41c-89.333 8 -164 12 -224 12c-60.667 0 -135 -4 -223 -12v40
c41.333 1.33301 73 7 95 17c21.333 10.667 34 26 38 46c2 8.66699 3 23.667 3 45v502c0 81.333 -10.333 138.666 -31 171.999c-30.667 51.333 -81 77 -151 77c-72.667 0 -130 -27.667 -172 -83c-27.333 -36.667 -41 -94.667 -41 -174v-494c0 -31.333 3.66699 -53.333 11 -66
c16.667 -26 57.334 -40 122.001 -42v-40c-87.333 8 -161 12 -221 12c-59.333 0 -133.666 -4 -222.999 -12v41c47.333 2 81.666 7 102.999 15c22.667 9.33301 36.334 25.333 41.001 48c2 8.66699 3 24.334 3 47.001v1033c0 39.333 -4 66.666 -12 81.999
c-11.333 20 -34.333 32 -69 36c-17.333 1.33301 -38.666 2 -63.999 2v36c107.333 9.33301 210.333 27.333 309 54z" />
    <glyph glyph-name="i" unicode="i" horiz-adv-x="571" 
d="M372 1003l-0.00195312 -858.001c0 -33.333 4 -56.666 12 -69.999c16.667 -24 61.667 -37.333 135 -40v-41c-97.333 8 -173.666 12 -228.999 12s-131.666 -4 -228.999 -12v41c47.333 2 81.666 7 102.999 15c22.667 9.33301 36.334 25.333 41.001 48
c2 8.66699 3 24.334 3 47.001v648c0 39.333 -4 66.666 -12 81.999c-11.333 20 -34.333 31.667 -69 35c-16.667 2 -38 3 -64 3v35c110.667 10 213.667 28.333 309 55zM284.998 1365c30 0 55.665 -10.667 76.998 -32c22 -22 33 -48.667 33 -80c0 -30.667 -10.667 -57 -32 -79
c-21.333 -21.333 -47.666 -32 -78.999 -32s-57.666 11 -78.999 33c-22 21.333 -33 47.333 -33 78c0 32 10.667 58.667 32 80c22 21.333 49 32 81 32z" />
    <glyph glyph-name="j" unicode="j" horiz-adv-x="556" 
d="M365 1003v-974.999c0 -58.667 -3.5 -106.667 -10.5 -144s-19.5 -73.333 -37.5 -108c-44 -85.333 -117.333 -142.666 -220 -171.999c-44.667 -12.667 -91 -19 -139 -19v53c63.333 9.33301 116.333 30.666 159 63.999c38 32 62.333 71.667 73 119
c7.33301 30 11 70.333 11 121v851c0 39.333 -4 66.666 -12 81.999c-11.333 20 -34.333 31.667 -69 35c-16.667 2 -38 3 -64 3v35c108.667 10 211.667 28.333 309 55zM277 1365c30.667 0 56.665 -10.667 77.998 -32c22 -22 33 -48.667 33 -80c0 -30.667 -10.667 -57 -32 -79
c-21.333 -21.333 -47.666 -32 -78.999 -32s-57.666 11 -78.999 33c-22 21.333 -33 47.333 -33 78c0 32 10.667 58.667 32 80c22 21.333 48.667 32 80 32z" />
    <glyph glyph-name="k" unicode="k" horiz-adv-x="1094" 
d="M353 476l329.001 348.999c23.333 24.667 35 44 35 58c0 28.667 -37.333 45 -112 49v41c72.667 -6.66699 137 -10 193 -10c56.667 0 124.334 3.33301 203.001 10v-41c-48 -4 -84 -11 -108 -21c-28 -12 -60.667 -37.333 -98 -76l-196 -206l290 -483
c30 -48.667 57.333 -79 82 -91c24 -11.333 58 -18 102 -20v-41c-58.667 4.66699 -105.334 7 -140.001 7c-35.333 0 -80.666 -2.33301 -135.999 -7l-303 536l-143 -147v-238c0 -33.333 4 -56.666 12 -69.999c16.667 -24 61.667 -37.333 135 -40v-41
c-94.667 8 -170.334 12 -227.001 12s-132.334 -4 -227.001 -12v41c47.333 2 81.666 7 102.999 15c22.667 9.33301 36.334 25.333 41.001 48c2 8.66699 3 24.334 3 47.001v1033c0 39.333 -4 66.666 -12 81.999c-11.333 20 -34.333 32 -69 36
c-17.333 1.33301 -38.666 2 -63.999 2v36c107.333 10.667 209.666 28.667 306.999 54v-912z" />
    <glyph glyph-name="l" unicode="l" horiz-adv-x="559" 
d="M368 1388l-0.00292969 -1243c0 -33.333 4 -56.666 12 -69.999c16.667 -24 61.667 -37.333 135 -40v-41c-97.333 8 -173.666 12 -228.999 12s-131.666 -4 -228.999 -12v41c47.333 2 81.666 7 102.999 15c22.667 9.33301 36.334 25.333 41.001 48
c2 8.66699 3 24.334 3 47.001v1033c0 39.333 -4 66.666 -12 81.999c-11.333 20 -34.333 32 -69 36c-17.333 1.33301 -38.666 2 -63.999 2v36c107.333 9.33301 210.333 27.333 309 54z" />
    <glyph glyph-name="m" unicode="m" horiz-adv-x="1631" 
d="M62 907v34.9971c116 16.667 206.333 37.334 271 62.001c12 -54.667 18.667 -113 20 -175c27.333 39.333 53 69 77 89c54 45.333 120 68 198 68c118.667 0 202 -53.333 250 -160c24.667 38 48.667 67.333 72 88c53.333 48 122.666 72 207.999 72
c118.667 0 200.334 -40.667 245.001 -122c24 -43.333 36 -110 36 -200v-519c0 -33.333 4 -56.666 12 -69.999c15.333 -23.333 60.666 -36.666 135.999 -39.999v-41c-89.333 8 -164 12 -224 12c-60.667 0 -134.667 -4 -222 -12v40c40.667 1.33301 71.667 7 93 17
c20.667 10 33.334 25.333 38.001 46c2 8.66699 3 23.667 3 45v526c0 72.667 -8 123.334 -24 152.001c-26.667 48 -74.334 72 -143.001 72c-135.333 0 -203 -80.667 -203 -242v-508c0 -31.333 3.66699 -53.333 11 -66c16 -26 57 -40 123 -42v-40
c-87.333 8 -159.333 12 -216 12c-56 0 -128 -4 -216 -12v40c40 1.33301 71 7 93 17c21.333 10 34 25.333 38 46c2 8 3 23 3 45v523c0 74.667 -8.66699 127 -26 157c-28 46.667 -73.667 70 -137 70c-77.333 0 -134.666 -30 -171.999 -90
c-23.333 -37.333 -35 -95.333 -35 -174v-486c0 -31.333 3.66699 -53.333 11 -66c16 -26 57.333 -40 124 -42v-40c-87.333 8 -161.333 12 -222 12c-60 0 -134.667 -4 -224 -12v41c47.333 2 81.333 7 102 15c23.333 9.33301 37.333 25.333 42 48c2 8.66699 3 24.334 3 47.001
v634c-0.666992 35.333 -1.66699 59.666 -3 72.999c-2.66699 24.667 -13 39.667 -31 45c-14.667 5.33301 -51.667 8.66602 -111 9.99902z" />
    <glyph glyph-name="n" unicode="n" horiz-adv-x="1122" 
d="M62 907l-0.000976562 35.001c113.333 16 203.666 36.333 270.999 61c10 -36.667 17 -96 21 -178c72 107.333 164.333 161 277 161c110.667 0 193.667 -42 249 -126c33.333 -50 50 -124.333 50 -223v-492c0 -34 4 -57.333 12 -70c16 -24 61 -37.333 135 -40v-41
c-89.333 8 -164.333 12 -225 12s-134.334 -4 -221.001 -12v40c40.667 1.33301 72.334 7 95.001 17c20.667 10.667 33 26 37 46c2 8 3 23 3 45v502c0 81.333 -10.333 138.666 -31 171.999c-30.667 51.333 -81 77 -151 77c-72.667 0 -130 -27.667 -172 -83
c-27.333 -36.667 -41 -94.667 -41 -174v-494c0 -31.333 3.66699 -53.333 11 -66c16.667 -26 57.334 -40 122.001 -42v-40c-87.333 8 -161 12 -221 12c-59.333 0 -133.666 -4 -222.999 -12v41c47.333 2 81.666 7 102.999 15c22.667 9.33301 36.334 25.333 41.001 48
c2 8.66699 3 24.334 3 47.001v634c-0.666992 36 -2 60.333 -4 73c-4 29.333 -24 46.333 -60 51c-16.667 1.33301 -43.667 2.66602 -81 3.99902z" />
    <glyph glyph-name="o" unicode="o" horiz-adv-x="960" 
d="M494 992c118 0 212 -49.332 282 -147.999c68.667 -97.333 103 -216.333 103 -357c0 -142.667 -35.333 -262.334 -106 -359.001c-73.333 -100 -171.333 -150 -294 -150s-220.667 50 -294 150c-69.333 94 -104 211.667 -104 353c0 150 37.667 272.333 113 367
c76 96 176 144 300 144zM480 939.001c-54 0 -100.666 -24.333 -139.999 -73c-58 -72 -87 -199.667 -87 -383c0 -301.333 75 -452 225 -452c61.333 0 111.666 26.667 150.999 80c52 71.333 78 194 78 368c0 306.667 -75.667 460 -227 460z" />
    <glyph glyph-name="p" unicode="p" horiz-adv-x="1068" 
d="M312 990c12 -41.333 20.998 -99.0029 26.998 -173.003c62 112.667 149 169 261 169s204 -47 276 -141c73.333 -94.667 110 -215 110 -361c0 -144 -34.667 -263 -104 -357c-70.667 -96.667 -162.667 -145 -276 -145c-72 0 -130.333 20.667 -175 62
c-22.667 20 -48 52.333 -76 97v-400c0 -33.333 4 -56.666 12 -69.999c16 -23.333 60.667 -36.666 134 -39.999v-41c-90.667 8.66699 -166.667 13 -228 13c-60.667 0 -137 -4.33301 -229 -13v41c48 2 82.333 7 103 15c22.667 9.33301 36.334 25.333 41.001 48
c2 8.66699 3 24.334 3 47.001v1052c0 56 -11.667 91.667 -35 107c-15.333 9.33301 -52.666 15 -111.999 17v35c100.667 8 190 20.667 268 38zM577.998 928.997c-52.667 0 -99 -22.666 -139 -67.999c-57.333 -64.667 -86 -186.334 -86 -365.001
c0 -304.667 78.333 -457 235 -457c150.667 0 226 146 226 438c0 301.333 -78.667 452 -236 452z" />
    <glyph glyph-name="q" unicode="q" horiz-adv-x="1066" 
d="M712 141c-27.333 -44 -52.6699 -76.3359 -76.0029 -97.0029c-45.333 -41.333 -103.666 -62 -174.999 -62c-114 0 -206 48.333 -276 145c-69.333 94.667 -104 213.667 -104 357c0 146 36.667 266.333 110 361c72 94 164.333 141 277 141c114 0 200.667 -56.333 260 -169
c5.33301 72.667 14.333 130.334 27 173.001c74 -16.667 162.667 -29.334 266 -38.001v-35l-26 -1c-49.333 -2 -82.333 -12 -99 -30c-14 -18 -21.333 -49 -22 -93v-1052c0 -33.333 4 -56.666 12 -69.999c16 -23.333 61 -36.666 135 -39.999v-41
c-89.333 8.66699 -164.666 13 -225.999 13c-62 0 -138.333 -4.33301 -229 -13v41c47.333 2.66699 81.333 7.66699 102 15c22.667 9.33301 36.334 25.333 41.001 48c2 8.66699 3 24.334 3 47.001v400zM482.996 928.997c-56.667 0 -105.333 -25.334 -146 -76.001
c-56 -69.333 -84 -193.666 -84 -372.999c0 -294 75.333 -441 226 -441c156.667 0 235 151.333 235 454c0 290.667 -77 436 -231 436z" />
    <glyph glyph-name="r" unicode="r" horiz-adv-x="776" 
d="M62 916v34.9961c108 10.667 198 26.667 270 48c10 -64.667 16.333 -129 19 -193c16 40 37 75 63 105c48 54 106.667 81 176 81c56.667 0 101.667 -17.667 135 -53c28.667 -31.333 43 -69 43 -113c0 -28.667 -7 -51.667 -21 -69c-16 -20 -37.333 -30 -64 -30
c-24 0 -44 6.33301 -60 19s-24 29 -24 49c0 6.66699 2.33301 21.334 7 44.001c1.33301 6 2 11.667 2 17c0 14.667 -5.66699 26.667 -17 36c-12 9.33301 -26.333 14 -43 14c-64 0 -112.667 -41.333 -146 -124c-20.667 -52 -31 -121.333 -31 -208v-429
c0 -33.333 4 -56.666 12 -69.999c15.333 -23.333 60.333 -36.666 135 -39.999v-41c-94 8 -170.333 12 -229 12s-135 -4 -229 -12v41c47.333 2 81.666 7 102.999 15c22.667 9.33301 36.334 25.333 41.001 48c2 8.66699 3 24.334 3 47.001v637
c-0.666992 38.667 -1.66699 64.334 -3 77.001c-4 30 -24.333 47.667 -61 53c-18 1.33301 -45 2.66602 -81 3.99902z" />
    <glyph glyph-name="s" unicode="s" horiz-adv-x="872" 
d="M109 -24v342.002h45c11.333 -58 26.333 -105.667 45 -143c20.667 -40.667 50.834 -72.834 90.501 -96.501s83.167 -35.5 130.5 -35.5c62.667 0 114.667 19 156 57c37.333 35.333 56 77.666 56 126.999c0 50 -22 89.667 -66 119c-24.667 16.667 -75.667 42.667 -153 78
c-82 37.333 -132.667 61 -152 71c-92.667 48.667 -139 121 -139 217c0 82.667 28.667 148.334 86 197.001c60 50.667 134 76 222 76c73.333 0 143.333 -21.667 210 -65l34 84h36v-318h-46c-17.333 160.667 -89 241 -215 241c-59.333 0 -107.666 -18.667 -144.999 -56
c-32.667 -32 -49 -69.667 -49 -113c0 -39.333 14.333 -72.333 43 -99c19.333 -18 62.666 -42 129.999 -72l132 -58c67.333 -29.333 116.666 -59.333 147.999 -90c41.333 -40 62 -94.667 62 -164c0 -80.667 -28 -148.334 -84 -203.001c-62 -60.667 -143.667 -91 -245 -91
c-90 0 -172.333 28.667 -247 86l-49 -91h-36z" />
    <glyph glyph-name="t" unicode="t" horiz-adv-x="634" 
d="M609 105l-0.000976562 -61c-69.333 -41.333 -135.666 -62 -198.999 -62c-99.333 0 -165.666 38.667 -198.999 116c-13.333 30 -21.333 69 -24 117c-0.666992 12 -1 46.667 -1 104v573h-128v63c35.333 2.66699 65.333 9.66699 90 21c76 38 127.667 132.333 155 283h51
v-292h238v-75h-238v-596c0 -83.333 6 -139.333 18 -168c17.333 -44 51.666 -66 102.999 -66c34 0 78.667 14.333 134 43z" />
    <glyph glyph-name="u" unicode="u" horiz-adv-x="1103" 
d="M341 1003v-683.994c0 -82 11.333 -140 34 -174c30.667 -46.667 81 -70 151 -70c77.333 0 135 29.333 173 88c25.333 38.667 38 100 38 184v446c0 39.333 -4 66.666 -12 81.999c-11.333 20 -34 31.667 -68 35c-18 2 -39.667 3 -65 3v35c106 9.33301 209 27.666 309 54.999
v-833c0 -34.667 4 -58 12 -70c10.667 -16.667 34.667 -26.334 72 -29.001c14.667 -0.666992 37.334 -1.33398 68.001 -2.00098v-36c-111.333 -10.667 -205.333 -28.667 -282 -54c-6 38 -10.333 100.333 -13 187c-26.667 -50.667 -54.334 -88.667 -83.001 -114
c-52.667 -46 -118.334 -69 -197.001 -69c-110 0 -192.667 38.333 -248 115c-35.333 49.333 -53 124.333 -53 225v470c0 39.333 -4 66.666 -12 81.999c-11.333 20 -34.333 31.667 -69 35c-17.333 2 -38.666 3 -63.999 3v35c106 9.33301 209 27.666 309 54.999z" />
    <glyph glyph-name="v" unicode="v" horiz-adv-x="993" 
d="M547 215l224 616.998c11.333 30.667 17 50.334 17 59.001c0 19.333 -13.333 31.333 -40 36c-14 2 -35 3.66699 -63 5v41c78 -6 130.333 -9 157 -9c28 0 79 3 153 9v-41c-44 -2 -75 -8 -93 -18c-24 -12 -43.667 -39 -59 -81l-236 -636
c-36.667 -96.667 -64 -170.667 -82 -222h-55l-78 215l-240 649c-16 42.667 -37.333 69.334 -64 80.001c-17.333 6.66699 -47 11 -89 13v41c100.667 -7.33301 174 -11 220 -11c49.333 0 119 3.66699 209 11v-41c-24 -1.33301 -43.667 -3 -59 -5
c-34 -4.66699 -51 -18.667 -51 -42c0 -9.33301 4 -25.333 12 -48z" />
    <glyph glyph-name="w" unicode="w" horiz-adv-x="1449" 
d="M732 738l-196.998 -582.001l-57 -181h-55c-26 90.667 -44.667 154.334 -56 191.001l-207 662c-14.667 46.667 -32.667 75.667 -54 87c-16.667 8.66699 -46.334 14.334 -89.001 17.001v41c82 -6.66699 151.333 -10 208 -10s126 3.33301 208 10v-41
c-34.667 -1.33301 -60.667 -4.33301 -78 -9c-26 -6.66699 -39 -19.667 -39 -39c0 -6 4 -22.333 12 -49l175 -585l248 743h57l240 -747l178 587c7.33301 23.333 11 40.666 11 51.999c0 22.667 -15 36.667 -45 42c-14 2 -36 3.66699 -66 5v41c66.667 -5.33301 122 -8 166 -8
s93.667 2.66699 149 8v-41c-40.667 -2.66699 -71.334 -9 -92.001 -19c-25.333 -14 -44.333 -40.333 -57 -79l-209 -667c-24 -78.667 -42.667 -142.667 -56 -192h-55l-55 177z" />
    <glyph glyph-name="x" unicode="x" horiz-adv-x="1044" 
d="M448 478l-214.001 368.004c-20.667 35.333 -44.334 58.666 -71.001 69.999c-22.667 9.33301 -53.667 14.666 -93 15.999v41c85.333 -7.33301 157 -11 215 -11s128 3.66699 210 11v-41c-62.667 -2.66699 -94 -16.334 -94 -41.001c0 -9.33301 6.66699 -25.333 20 -48
l130 -226l154 219c18 25.333 27 43.666 27 54.999c0 18.667 -13.667 30.667 -41 36c-15.333 2.66699 -36 4.33398 -62 5.00098v41c66.667 -5.33301 122 -8 166 -8c44.667 0 100.334 2.66699 167.001 8v-41c-40.667 -2.66699 -72 -8 -94 -16
c-27.333 -10.667 -54.666 -35 -81.999 -73l-202 -282l245 -420c28 -46.667 55 -76.334 81 -89.001c21.333 -10 55.333 -15.667 102 -17v-41c-90 7.33301 -165 11 -225 11c-60.667 0 -134.667 -3.66699 -222 -11v41c69.333 2.66699 104 17 104 43c0 11.333 -7 29.333 -21 54
l-166 288l-190 -270c-22.667 -32.667 -34 -55.667 -34 -69c0 -20.667 14.667 -34 44 -40c13.333 -2.66699 35 -4.66699 65 -6v-41c-78 6 -133.667 9 -167 9s-89.333 -3 -168 -9v41c44.667 2.66699 78.667 10.667 102 24c26 16 55.333 47.667 88 95z" />
    <glyph glyph-name="y" unicode="y" horiz-adv-x="1022" 
d="M478 33l-301.996 804.001c-16 41.333 -36.333 67.666 -61 78.999c-20 8 -51.333 13.333 -94 16v41c78 -6.66699 147.667 -10 209 -10s131 3.33301 209 10v-41c-22.667 -1.33301 -42.334 -3.33301 -59.001 -6c-32 -5.33301 -48 -18 -48 -38c0 -6.66699 5 -24.667 15 -54
l215 -591l224 585c11.333 28.667 17 47.667 17 57c0 22 -15.333 35.667 -46 41c-18.667 3.33301 -42.334 5.33301 -71.001 6v41c51.333 -5.33301 102 -8 152 -8c51.333 0 110 2.66699 176 8v-41c-34.667 -4 -63.334 -10.667 -86.001 -20
c-30.667 -14.667 -53.667 -41.667 -69 -81l-387 -1000c-35.333 -91.333 -80.333 -154.333 -135 -189c-44.667 -28 -98.667 -42 -162 -42c-6 0 -15.667 0.333008 -29 1v103c47.333 0 85.666 4.66699 114.999 14c64 20 115.333 74.333 154 163z" />
    <glyph glyph-name="z" unicode="z" horiz-adv-x="915" 
d="M69 0l554.998 913.999h-227c-47.333 0 -83.666 -6 -108.999 -18c-36.667 -17.333 -68 -54 -94 -110c-9.33301 -20 -21.333 -48.333 -36 -85h-42l46 266h680l-557 -914h241c62.667 0.666992 107 10.334 133 29.001c50.667 36 92.334 107 125.001 213h42l-53 -295h-704z
" />
    <glyph glyph-name="braceleft" unicode="{" horiz-adv-x="633" 
d="M529 -432l-41 -0.000976562c-83.333 -2 -145.666 15.667 -186.999 53c-36 35.333 -54 94.666 -54 177.999v538c0 58 -13.667 99.333 -41 124c-20.667 18.667 -49.667 34 -87 46c37.333 12 66.666 27.333 87.999 46c26.667 24 40 65.333 40 124v491
c0 90 21.333 152 64 186c43.333 32 102.333 47 177 45h41c-94 -21.333 -139.667 -82.333 -137 -183v-500c0 -68 -12.667 -117.333 -38 -148c-16.667 -19.333 -46 -39.666 -88 -60.999c47.333 -24 79 -47.333 95 -70c20.667 -31.333 31 -77.666 31 -138.999v-547
c-2.66699 -100.667 43 -161.667 137 -183z" />
    <glyph glyph-name="bar" unicode="|" 
d="M463 1365h97v-1706h-97v1706z" />
    <glyph glyph-name="braceright" unicode="}" horiz-adv-x="633" 
d="M104 1399l40.999 0.00195312c82 2.66699 144.333 -15.333 187 -54c36 -34 54 -93 54 -177v-491c0 -57.333 13.333 -98.333 40 -123c20 -18.667 49.333 -34.334 88 -47.001c-37.333 -12 -66.666 -27.667 -87.999 -47c-26.667 -24.667 -40 -65.667 -40 -123v-538
c0 -90 -21.333 -152 -64 -186c-42 -32 -101 -47 -177 -45h-41c94 21.333 139.667 82.333 137 183v547c0 68 12.667 117.333 38 148c16 19.333 45.333 39.666 88 60.999c-47.333 24 -79 47.667 -95 71c-20.667 31.333 -31 77.333 -31 138v500
c2.66699 100.667 -43 161.667 -137 183z" />
    <glyph glyph-name="asciitilde" unicode="~" horiz-adv-x="1365" 
d="M1090 1502l27.002 -17c-26 -46 -61.667 -87 -107 -123c-58 -46 -115.333 -69 -172 -69c-28.667 0 -72.334 9.66699 -131.001 29c-116 38 -196.667 57 -242 57c-48.667 0 -91 -17.333 -127 -52c-14.667 -14 -35.334 -37 -62.001 -69l-27 17
c80.667 129.333 175.667 194 285 194c38 0 100.333 -14.667 187 -44c72.667 -24.667 127 -37 163 -37c76 0 144.667 38 206 114z" />
    <glyph glyph-name="nonbreakingspace" unicode="&#xa0;" horiz-adv-x="512" 
 />
    <glyph glyph-name="exclamdown" unicode="&#xa1;" horiz-adv-x="507" 
d="M304 557l36 -930h-172l35 930h101zM255 986c32.667 0 60.666 -12.001 83.999 -36.001c24 -23.333 36 -51.666 36 -84.999s-12 -62 -36 -86c-23.333 -23.333 -51.666 -35 -84.999 -35c-34 0 -62.667 11.667 -86 35s-35 52 -35 86s11.667 62.333 35 85
c24.667 24 53.667 36 87 36z" />
    <glyph glyph-name="cent" unicode="&#xa2;" horiz-adv-x="1071" 
d="M613 1127l-0.00195312 -877.001c54 10.667 97.333 37.834 130 81.501s54.334 104.5 65.001 182.5h78c-11.333 -94.667 -40.333 -170.167 -87 -226.5s-108.667 -90.833 -186 -103.5v-160h-64v156c-87.333 7.33301 -160.333 37.333 -219 90c-106 94 -159 231.333 -159 412
c0 118 25 220 75 306c68.667 118.667 169.667 183.667 303 195v157h64v-159c62.667 -7.33301 117.334 -35 164.001 -83l54 103h36v-334h-46c-28 157.333 -97.333 244 -208 260zM548.998 1126c-137.333 -26.667 -206 -172 -206 -436c0 -186 28.667 -311.333 86 -376
c30.667 -34.667 70.667 -56 120 -64v876z" />
    <glyph glyph-name="sterling" unicode="&#xa3;" horiz-adv-x="1071" 
d="M428 739l260.996 -0.00195312v-76h-271l-30 -234c-19.333 -146 -68.333 -266.667 -147 -362c84.667 41.333 156.667 62 216 62c29.333 0 74 -6.66699 134 -20c47.333 -10.667 87.333 -16 120 -16c94.667 0 154.334 67.667 179.001 203h72
c-11.333 -98 -37 -169.667 -77 -215c-30 -35.333 -72.333 -59.333 -127 -72c-24.667 -6 -64 -9 -118 -9h-530c32.667 40.667 56.334 87 71.001 139c15.333 52 28 120.667 38 206l38 318h-147v76h157l20 169c17.333 142.667 56.333 254.334 117 335.001
c72 96.667 170 145 294 145c148.667 0 232.334 -85 251.001 -255h-81c-5.33301 40.667 -13.666 73.667 -24.999 99c-25.333 56.667 -71 85 -137 85c-88 0 -154 -45 -198 -135c-22 -45.333 -39.667 -121.666 -53 -228.999z" />
    <glyph glyph-name="currency" unicode="&#xa4;" horiz-adv-x="1365" 
d="M127 230l187 191c-70.667 90 -106 187.667 -106 293c0 102 35.667 199 107 291l-194 191l73 73l191 -191c94 72 193.333 108 298 108s202.667 -35.667 294 -107l192 190l73 -73l-191 -190c71.333 -94 107 -192 107 -294c0 -101.333 -35 -198 -105 -290l191 -192l-72 -73
l-192 191c-91.333 -70.667 -189.333 -106 -294 -106c-99.333 0 -198.333 35.333 -297 106l-190 -191zM678 1071c-95.333 0 -178 -35.333 -248 -106c-68.667 -69.333 -103 -153 -103 -251c0 -98.667 34.667 -183 104 -253c70 -69.333 154 -104 252 -104s181.667 35 251 105
c69.333 69.333 104 153 104 251c0 100.667 -34.333 185 -103 253c-71.333 70 -157 105 -257 105z" />
    <glyph glyph-name="yen" unicode="&#xa5;" horiz-adv-x="1071" 
d="M423 671l-59.999 153.001h-255v75h224l-119 301c-20 49.333 -46.333 82.666 -79 99.999c-22.667 10.667 -53.667 17.667 -93 21v50c95.333 -9.33301 172 -14 230 -14c58.667 0 135.667 4.66699 231 14v-50c-28 -2.66699 -51.333 -5.66699 -70 -9
c-38.667 -8 -58 -24 -58 -48c0 -10.667 5.66699 -31 17 -61l199 -511l207 514c11.333 28.667 17 50 17 64c0 20 -14.667 34 -44 42c-16 4 -42 7 -78 9v50c75.333 -6.66699 132.666 -10 171.999 -10c38.667 0 96 3.33301 172 10v-50c-36 -4 -65 -10.333 -87 -19
c-35.333 -14.667 -62.333 -45 -81 -91l-125 -312h216v-75h-246l-61 -153h307v-75h-338v-416c0 -44.667 3.66699 -73.334 11 -86.001c19.333 -28 72 -44.667 158 -50v-50c-105.333 10 -190.333 15 -255 15s-150 -5 -256 -15v50c55.333 4 95 10.667 119 20
c28 12.667 43.667 32.334 47 59.001c2 10.667 3 29.667 3 57v416h-340v75h315z" />
    <glyph glyph-name="brokenbar" unicode="&#xa6;" 
d="M463 1365h97v-679h-97v679zM463 314h97v-655h-97v655z" />
    <glyph glyph-name="section" unicode="&#xa7;" horiz-adv-x="1071" 
d="M158 29l73 -0.00195312c22.667 -164.667 115 -247 277 -247c64 0 116.667 15.333 158 46c52.667 39.333 79 91.666 79 156.999c0 45.333 -15 85 -45 119c-20.667 22.667 -54 47.667 -100 75l-284 165c-58 34 -99 70.333 -123 109c-26 40.667 -39 87.334 -39 140.001
c0 85.333 30.667 147.666 92 186.999c32 20.667 77.333 39 136 55c-50.667 33.333 -89.334 62 -116.001 86c-50 46.667 -75 104.667 -75 174c0 86 33 157 99 213c63.333 53.333 144 80 242 80c135.333 0 235.333 -47 300 -141c34 -49.333 52.667 -111.666 56 -186.999h-72
c-5.33301 58 -20.666 105.333 -45.999 142c-45.333 66 -114.666 99 -207.999 99c-64.667 0 -118 -16 -160 -48c-43.333 -33.333 -65 -76.666 -65 -129.999c0 -52 23 -97 69 -135c20 -16.667 50 -36 90 -58l244 -139c62 -36 106 -71.667 132 -107
c30 -41.333 45 -90.333 45 -147c0 -75.333 -26 -137.666 -78 -186.999c-30 -28 -72 -54 -126 -78c47.333 -30 84 -58.333 110 -85c46.667 -48.667 70 -107 70 -175c0 -94.667 -37.333 -172 -112 -232c-67.333 -53.333 -152.333 -80 -255 -80c-144 0 -249 51.667 -315 155
c-30.667 47.333 -48.334 105.333 -53.001 174zM457 791.998c-52.667 -12 -92.999 -26.335 -120.999 -43.002c-47.333 -28 -71 -69 -71 -123c0 -37.333 11.667 -69.666 35 -96.999c18 -20.667 47 -42.667 87 -66l264 -156c105.333 46.667 158 109.334 158 188.001
c0 37.333 -11 69 -33 95c-20.667 24 -53.334 48.667 -98.001 74z" />
    <glyph glyph-name="dieresis" unicode="&#xa8;" 
d="M328 1378c29.333 0 54.667 -10.667 76 -32s32 -47 32 -77c0 -30.667 -10.667 -56.667 -32 -78s-47 -32 -77 -32c-30.667 0 -56.667 10.667 -78 32c-21.333 22 -32 47.667 -32 77c0 31.333 10.667 57.333 32 78c22 21.333 48.333 32 79 32zM701.001 1378
c29.333 0 54.667 -10.667 76 -32s32 -47 32 -77c0 -30.667 -10.667 -56.667 -32 -78s-47 -32 -77 -32c-30.667 0 -56.667 10.667 -78 32c-21.333 22 -32 47.667 -32 77c0 31.333 10.667 57.333 32 78c22 21.333 48.333 32 79 32z" />
    <glyph glyph-name="copyright" unicode="&#xa9;" horiz-adv-x="1593" 
d="M805 1388c126.667 0 246.667 -34.665 360 -103.998s200 -163 260 -281c51.333 -100.667 77 -207.334 77 -320.001c0 -94 -17.833 -184.167 -53.5 -270.5s-86.834 -162.5 -153.501 -228.5c-66 -66.667 -142.167 -117.834 -228.5 -153.501s-176.5 -53.5 -270.5 -53.5
c-93.333 0 -183.166 17.833 -269.499 53.5s-162.5 86.834 -228.5 153.501c-66 66 -117 142.167 -153 228.5s-54 175.833 -54 268.5c0 133.333 34.667 257 104 371c67.333 111.333 161 197.666 281 258.999c100 51.333 209.667 77 329 77zM789 1317
c-80.667 0 -159.5 -16.333 -236.5 -49s-145.167 -78.334 -204.5 -137.001s-105.166 -127.167 -137.499 -205.5s-48.5 -159.5 -48.5 -243.5c0 -175.333 62 -325 186 -449c59.333 -59.333 128 -105.166 206 -137.499s158.667 -48.5 242 -48.5c175.333 0 325 62 449 186
s186 273.333 186 448c0 85.333 -16.333 167.333 -49 246s-78.334 146.667 -137.001 204c-126.667 124 -278.667 186 -456 186zM1032 558.002l59.998 0.00195312c-3.33301 -67.333 -17 -123 -41 -167c-24 -42 -57.667 -74.833 -101 -98.5s-92 -35.5 -146 -35.5
c-51.333 0 -99.666 10.667 -144.999 32s-82.666 50.666 -111.999 87.999c-60.667 79.333 -91 181.666 -91 306.999c0 122.667 31 223.667 93 303c62 80 148.333 120 259 120c77.333 0 143 -23 197 -69l43 67h33v-251h-41c-34.667 133.333 -107.334 200 -218.001 200
c-84 0 -145 -34.333 -183 -103c-36.667 -66.667 -55 -154.667 -55 -264c0 -104 17.333 -188.667 52 -254c38.667 -72 100 -108 184 -108c83.333 0 143.333 33.667 180 101c18.667 34.667 29.334 78.667 32.001 132z" />
    <glyph glyph-name="ordfeminine" unicode="&#xaa;" horiz-adv-x="714" 
d="M637 821v-48.001c-32 -6 -58.333 -9 -79 -9c-30 0 -53.333 8 -70 24c-15.333 13.333 -26.333 36.333 -33 69c-39.333 -64 -95.666 -96 -168.999 -96c-53.333 0 -97.666 15.333 -132.999 46c-36 31.333 -54 72 -54 122c0 120 112.667 195.333 338 226v69
c0 40.667 -6 69.334 -18 86.001c-16.667 22.667 -44 34 -82 34c-32 0 -58.667 -8.33301 -80 -25c-13.333 -10.667 -20 -25 -20 -43v-10c0.666992 -10.667 1 -17.667 1 -21c0 -40.667 -20 -61 -60 -61c-32.667 0 -49 16.333 -49 49c0 40.667 19.667 76.334 59 107.001
c44 34 97 51 159 51c78.667 0 136.667 -25 174 -75c22 -28.667 33 -75 33 -139v-257c0 -38.667 3 -66.334 9 -83.001c5.33301 -14.667 16.666 -22 33.999 -22c9.33301 0 22.666 2 39.999 6zM437 1108c-52.667 -8.66699 -97.667 -22.333 -135 -41
c-56 -28 -84 -71.667 -84 -131c0 -34 9.33301 -60.667 28 -80c17.333 -18 41.333 -27 72 -27c52 0 87.333 23.333 106 70c8.66699 24 13 60 13 108v101zM74 653h589v-77h-589v77z" />
    <glyph glyph-name="guillemotleft" unicode="&#xab;" horiz-adv-x="817" 
d="M359 967h60l-169 -478l169 -489h-60l-248 489zM637 967h60l-169 -478l169 -489h-60l-248 489z" />
    <glyph glyph-name="logicalnot" unicode="&#xac;" 
d="M776 0v470h-701v76h875v-546h-174z" />
    <glyph glyph-name="sfthyphen" unicode="&#xad;" horiz-adv-x="526" 
d="M0 503v92h526v-92h-526z" />
    <glyph glyph-name="registered" unicode="&#xae;" horiz-adv-x="1593" 
d="M805 1388c126.667 0 246.667 -34.665 360 -103.998s200 -163 260 -281c51.333 -100.667 77 -207.334 77 -320.001c0 -94 -17.833 -184.167 -53.5 -270.5s-86.834 -162.5 -153.501 -228.5c-66 -66.667 -142.167 -117.834 -228.5 -153.501s-176.5 -53.5 -270.5 -53.5
c-93.333 0 -183.166 17.833 -269.499 53.5s-162.5 86.834 -228.5 153.501c-66 66 -117 142.167 -153 228.5s-54 175.833 -54 268.5c0 133.333 34.667 257 104 371c67.333 111.333 161 197.666 281 258.999c100 51.333 209.667 77 329 77zM789 1317
c-80.667 0 -159.5 -16.333 -236.5 -49s-145.167 -78.334 -204.5 -137.001s-105.166 -127.167 -137.499 -205.5s-48.5 -159.5 -48.5 -243.5c0 -175.333 62 -325 186 -449c59.333 -59.333 128 -105.166 206 -137.499s158.667 -48.5 242 -48.5c175.333 0 325 62 449 186
s186 273.333 186 448c0 85.333 -16.333 167.333 -49 246s-78.334 146.667 -137.001 204c-126.667 124 -278.667 186 -456 186zM680 656.002l0.00195312 -270.003c0 -24 2 -39.667 6 -47c11.333 -14.667 44 -23.667 98 -27v-43c-66 6 -120.333 9 -163 9s-98 -3 -166 -9v43
c39.333 2.66699 65.333 6.66699 78 12c14.667 6 23 16 25 30c1.33301 5.33301 2 16 2 32v589c0 24 -2 39.667 -6 47c-10.667 14.667 -43.667 23.667 -99 27v43h346c77.333 0 137.333 -13.333 180 -40c30 -19.333 54 -45.166 72 -77.499s27 -66.166 27 -101.499
c0 -78.667 -37 -138 -111 -178c-20.667 -11.333 -46.334 -20.333 -77.001 -27c19.333 -9.33301 33.666 -18.666 42.999 -27.999c15.333 -16 30.333 -39.667 45 -71l87 -191c16 -33.333 31.333 -52.666 46 -57.999c11.333 -4.66699 31 -7.33398 59 -8.00098v-43
c-40.667 2.66699 -71 4 -91 4c-20.667 0 -50 -1.33301 -88 -4l-37 78l-98 216c-20.667 46 -43 73.667 -67 83c-16 6.66699 -39.333 10 -70 10h-41zM681.002 706.999h98c119.333 0 179 56.667 179 170c0 109.333 -57.333 164 -172 164h-105v-334z" />
    <glyph glyph-name="macron" unicode="&#xaf;" 
d="M199 1237v103h625v-103h-625z" />
    <glyph glyph-name="degree" unicode="&#xb0;" 
d="M515 1391c77.333 0 144 -27.3311 200 -81.998c56.667 -54.667 85 -121.334 85 -200.001c0 -77.333 -28 -143.666 -84 -198.999c-56.667 -55.333 -125 -83 -205 -83c-79.333 0 -147.333 27.667 -204 83c-56 55.333 -84 121.666 -84 198.999
c0 79.333 28 145.666 84 198.999c58 55.333 127.333 83 208 83zM509 1300c-52 0 -96.999 -18.668 -134.999 -56.001s-57 -82.333 -57 -135s18.667 -97.667 56 -135c38.667 -37.333 84.667 -56 138 -56c54 0 100.333 19 139 57c37.333 36.667 56 81.334 56 134.001
c0 53.333 -19 98.333 -57 135c-38.667 37.333 -85.334 56 -140.001 56z" />
    <glyph glyph-name="plusminus" unicode="&#xb1;" horiz-adv-x="1071" 
d="M110 630v121h363v358h126v-358h363v-121h-363v-344h-126v344h-363zM110 53v122h852v-122h-852z" />
    <glyph glyph-name="twosuperior" unicode="&#xb2;" horiz-adv-x="698" 
d="M593 631l-13.999 -98h-487v77c96 106 170.667 194 224 264c52.667 68 90 122.333 112 163c22 39.333 33 75.333 33 108c0 34 -11.333 62.333 -34 85c-24.667 24 -57 36 -97 36c-94 0 -150 -56 -168 -168h-55c8 77.333 25 132.666 51 165.999c44 54.667 109.667 82 197 82
c61.333 0 112.666 -15 153.999 -45c50 -37.333 75 -85 75 -143c0 -45.333 -17.667 -95.666 -53 -150.999c-33.333 -51.333 -136 -172.333 -308 -363l-12 -13h382z" />
    <glyph glyph-name="threesuperior" unicode="&#xb3;" horiz-adv-x="698" 
d="M81 771l56.002 0.00292969c4 -40.667 11 -72 21 -94c24.667 -52.667 73.667 -79 147 -79c55.333 0 99 16.667 131 50c29.333 30 44 69.667 44 119c0 78 -30.333 128.333 -91 151c-28 10.667 -66 16 -114 16h-21v56h21c48.667 0 87 9.66699 115 29
c38.667 27.333 58 67.333 58 120c0 39.333 -11 70.666 -33 93.999c-23.333 25.333 -56.333 38 -99 38c-87.333 0 -141.333 -49.333 -162 -148h-52c15.333 148.667 95 223 239 223c73.333 0 130.666 -20.333 171.999 -61c36 -36.667 54 -81.667 54 -135
c0 -82.667 -45.667 -142.334 -137 -179.001c114.667 -32.667 172 -101.334 172 -206.001c0 -69.333 -26 -127.333 -78 -174c-50.667 -45.333 -115.334 -68 -194.001 -68c-161.333 0 -244.333 82.667 -249 248z" />
    <glyph glyph-name="acute" unicode="&#xb4;" 
d="M615 1385h167l-285 -256h-52z" />
    <glyph glyph-name="mu" unicode="&#xb5;" horiz-adv-x="900" 
d="M917 105l-0.000976562 -31.0029l-153 -94c-2.66699 -1.33301 -5.66699 -2 -9 -2c-12 0 -25.5 5 -40.5 15s-25.833 21.333 -32.5 34c-10 20 -19.667 62.333 -29 127c-61.333 -60 -107 -100.333 -137 -121c-60.667 -42 -123.334 -63 -188.001 -63
c-112 0 -186.667 60.667 -224 182v-62c0 -59.333 2.66699 -112.333 8 -159c1.33301 -9.33301 6.33301 -49.333 15 -120c5.33301 -43.333 8 -76.666 8 -99.999c0 -27.333 -6.66699 -50.333 -20 -69s-29.666 -28 -48.999 -28c-26 0 -45.667 13.667 -59 41
c-8 14.667 -12 30.334 -12 47.001c0 28.667 4.66699 70.334 14 125.001c36.667 264.667 55.334 515.667 56.001 753v357h129v-587c0 -86.667 6.66699 -146.667 20 -180c30 -72.667 86.333 -109 169 -109c64 0 123 22 177 66c24 20 53 54.333 87 103v707h128v-701
c0 -58 4.33301 -97 13 -117c11.333 -25.333 33.333 -38 66 -38c18 0 39 8 63 24z" />
    <glyph glyph-name="paragraph" unicode="&#xb6;" horiz-adv-x="1071" 
d="M1006 -234l0.000976562 -49.999c-124.667 10.667 -250 16 -376 16c-125.333 0 -250.333 -5.33301 -375 -16v50c57.333 4 97 10.667 119 20c26.667 12.667 42.334 32.334 47.001 59.001c2 10.667 3 29.667 3 57v766c-218.667 31.333 -328 151.666 -328 360.999
c0 137.333 50.667 233 152 287c61.333 32.667 160.666 49 297.999 49h460v-50c-56 -3.33301 -95.667 -10 -119 -20c-26.667 -12 -42.334 -31.667 -47.001 -59c-2 -11.333 -3 -30.333 -3 -57v-1277c0 -42 4 -70.333 12 -85c12 -22.667 40.333 -37.334 85 -44.001
c18 -2.66699 42 -5 72 -7zM727.001 -68.999l-0.00195312 1232c0 55.333 -3.66699 90 -11 104c-11.333 22.667 -38.666 34 -81.999 34c-44.667 0 -73.667 -11 -87 -33c-8.66699 -15.333 -13 -50 -13 -104v-1234c0 -53.333 4.66699 -88 14 -104
c12.667 -22.667 41.334 -34 86.001 -34c44 0 71.333 11.333 82 34c7.33301 14.667 11 49.667 11 105z" />
    <glyph glyph-name="periodcentered" unicode="&#xb7;" horiz-adv-x="470" 
d="M237 617c31.333 0 58.334 -11.332 81.001 -33.999s34 -50 34 -82c0 -32.667 -11.333 -60.334 -34 -83.001s-50 -34 -82 -34c-32.667 0 -60.334 11.333 -83.001 34c-22.667 23.333 -34 51 -34 83s11.333 59.333 34 82c23.333 22.667 51.333 34 84 34z" />
    <glyph glyph-name="cedilla" unicode="&#xb8;" 
d="M499 0h88l-63 -120c49.333 -5.33301 85 -14.333 107 -27c44 -24.667 66 -62 66 -112c0 -47.333 -19 -85.333 -57 -114c-34 -25.333 -77.333 -38 -130 -38c-48 0 -99.333 11 -154 33v61c46 -12.667 81.333 -19 106 -19c28 0 50.667 6 68 18c23.333 16.667 35 40 35 70
c0 35.333 -19.333 60 -58 74c-20 7.33301 -51.667 12 -95 14z" />
    <glyph glyph-name="onesuperior" unicode="&#xb9;" horiz-adv-x="698" 
d="M417 1373l0.00292969 -726.001c0 -23.333 2.33301 -38.666 7 -45.999c10.667 -15.333 43.334 -24.333 98.001 -27v-44c-56.667 6 -111.334 9 -164.001 9s-107.334 -3 -164.001 -9v44c38.667 2.66699 64.667 6.33398 78 11.001c14.667 6.66699 23 17 25 31
c1.33301 6 2 16.333 2 31v548h-143v42c57.333 4.66699 103.666 18.167 138.999 40.5s60.666 54.166 75.999 95.499h46z" />
    <glyph glyph-name="ordmasculine" unicode="&#xba;" horiz-adv-x="714" 
d="M366 1391c77.333 0 138.667 -31.001 184 -93.001c44 -60 66 -133.333 66 -220c0 -88.667 -23 -163 -69 -223c-46.667 -62.667 -110 -94 -190 -94c-79.333 0 -143 31.333 -191 94c-44.667 58 -67 131 -67 219c0 92.667 24.333 168.334 73 227.001c49.333 60 114 90 194 90
zM358.001 1345c-50 0 -86 -27.668 -108 -83.001c-19.333 -47.333 -29 -109.666 -29 -186.999c0 -178.667 45 -268 135 -268c92 0 138 89 138 267c0 180.667 -45.333 271 -136 271zM63.001 652.998h589v-77h-589v77z" />
    <glyph glyph-name="guillemotright" unicode="&#xbb;" horiz-adv-x="816" 
d="M457 967l248 -478l-248 -489h-60l169 489l-169 478h60zM179 967l248 -478l-248 -489h-60l169 489l-169 478h60z" />
    <glyph glyph-name="onequarter" unicode="&#xbc;" horiz-adv-x="1497" 
d="M417 1373v-725.999c0 -23.333 2.33301 -39 7 -47c10.667 -15.333 43 -24.333 97 -27v-42c-56 5.33301 -110.333 8 -163 8c-52 0 -106.333 -2.66699 -163 -8v42c38 2 64 5.66699 78 11c14.667 6.66699 23 17 25 31c1.33301 5.33301 2 16 2 32v549h-143v41
c57.333 4.66699 103.833 18.167 139.5 40.5s60.5 54.166 74.5 95.499h46zM314 0.000976562l783 1336h86l-783 -1336h-86zM1192 -17.999v227h-348l352 614h115v-523h141v-91h-141v-227h-119zM1194 300.001v420l-236 -420h236z" />
    <glyph glyph-name="onehalf" unicode="&#xbd;" horiz-adv-x="1497" 
d="M417 1373l0.000976562 -726.002c0 -24 2.33301 -39.667 7 -47c10.667 -15.333 43 -24.333 97 -27v-42c-56 5.33301 -110 8 -162 8c-52.667 0 -107.334 -2.66699 -164.001 -8v42c38.667 2 64.667 5.66699 78 11c14.667 6.66699 23 17 25 31c1.33301 5.33301 2 16 2 32v549
h-143v41c57.333 4.66699 103.833 18.334 139.5 41.001s60.5 54.334 74.5 95.001h46zM314.001 -0.00195312l783 1336h86l-783 -1336h-86zM1391 97.998l-14.001 -97.999h-487v77c97.333 108 172.333 196 225 264c52 68 89.333 122.333 112 163c22 40 33 75.667 33 107
c0 34 -11.667 62.667 -35 86c-24 24 -56.333 36 -97 36c-94 0 -150 -56.333 -168 -169h-55c8 78 25 133.333 51 166c44 55.333 110 83 198 83c61.333 0 112.333 -15.333 153 -46c50 -36.667 75 -84.334 75 -143.001c0 -56 -26 -118 -78 -186
c-47.333 -62 -145.666 -175.333 -294.999 -340h382z" />
    <glyph glyph-name="threequarters" unicode="&#xbe;" horiz-adv-x="1497" 
d="M82 770l54.999 0.000976562c3.33301 -40 10.333 -71.333 21 -94c24.667 -52.667 73.667 -79 147 -79c56 0 100 16.667 132 50c29.333 30 44 70 44 120c0 56 -16.667 97.833 -50 125.5s-84 41.5 -152 41.5h-24v55h26c44.667 0 80.334 9.33301 107.001 28
c40.667 27.333 61 68.333 61 123c0 39.333 -11 70.666 -33 93.999c-23.333 25.333 -56.333 38 -99 38c-88 0 -142.333 -49.333 -163 -148h-51c15.333 148 95 222 239 222c68 0 122.667 -18.333 164 -55c40.667 -36.667 61 -83.667 61 -141s-21 -103 -63 -137
c-17.333 -14.667 -42.333 -29 -75 -43c36.667 -11.333 66 -24.333 88 -39c56.667 -36 85 -91.333 85 -166c0 -69.333 -26 -127.333 -78 -174c-50 -45.333 -114.333 -68 -193 -68c-160.667 0 -243.667 82.333 -249 247zM313.999 0.000976562l783 1336h86l-783 -1336h-86z
M1192 -17.999v227h-348l352 614h115v-523h141v-91h-141v-227h-119zM1194 300.001v420l-236 -420h236z" />
    <glyph glyph-name="questiondown" unicode="&#xbf;" horiz-adv-x="784" 
d="M411 575l87.0029 -0.000976562c5.33301 -40 8 -75.667 8 -107c0 -72.667 -13.667 -133.667 -41 -183c-18.667 -34 -42.667 -66 -72 -96l-60 -61c-78 -78 -117 -150.667 -117 -218c0 -64.667 23.667 -113.667 71 -147c31.333 -21.333 69.333 -32 114 -32
c79.333 0 142.666 28 189.999 84c32 38 51.333 90.667 58 158h56c0 -71.333 -10.667 -130 -32 -176c-28.667 -63.333 -76.334 -111.333 -143.001 -144c-54 -26.667 -113.333 -40 -178 -40c-74 0 -136.333 18.333 -187 55c-78 55.333 -117 135.333 -117 240
c0 62 16 118 48 168c25.333 39.333 73.666 87.333 144.999 144c52.667 41.333 89.667 76 111 104c41.333 54 62 123 62 207c0 10.667 -1 25.334 -3 44.001zM438.003 985.999c32.667 0 61 -12.001 85 -36.001c23.333 -23.333 35 -51.666 35 -84.999s-11.667 -62 -35 -86
c-23.333 -23.333 -52 -35 -86 -35s-62.667 11.667 -86 35c-23.333 24 -35 52.667 -35 86c0 34 11.667 62.333 35 85c24.667 24 53.667 36 87 36z" />
    <glyph glyph-name="Agrave" unicode="&#xc0;" horiz-adv-x="1316" 
d="M844 395l-476.001 -0.000976562l-68 -192c-16.667 -46.667 -25 -78.667 -25 -96c0 -28.667 18.333 -47 55 -55c17.333 -4 44 -6.66699 80 -8v-50c-78 7.33301 -143 11 -195 11s-117 -3.66699 -195 -11v50c60.667 4 102.334 13.333 125.001 28
c24.667 17.333 48.667 56 72 116l467 1221l421 -1244c20 -56 46.667 -90 80 -102c24 -9.33301 60.667 -15.666 110 -18.999v-50c-94 10 -177 15 -249 15c-72.667 0 -156 -5 -250 -15v50c36.667 2.66699 65 7 85 13c30.667 8.66699 46 24.667 46 48c0 18 -4.33301 41 -13 69z
M391.999 458.999h432l-199 627zM745.999 1485l-285 256h167l170 -256h-52z" />
    <glyph glyph-name="Aacute" unicode="&#xc1;" horiz-adv-x="1316" 
d="M844 395l-476.001 -0.000976562l-68 -192c-16.667 -46.667 -25 -78.667 -25 -96c0 -28.667 18.333 -47 55 -55c17.333 -4 44 -6.66699 80 -8v-50c-78 7.33301 -143 11 -195 11s-117 -3.66699 -195 -11v50c60.667 4 102.334 13.333 125.001 28
c24.667 17.333 48.667 56 72 116l467 1221l421 -1244c20 -56 46.667 -90 80 -102c24 -9.33301 60.667 -15.666 110 -18.999v-50c-94 10 -177 15 -249 15c-72.667 0 -156 -5 -250 -15v50c36.667 2.66699 65 7 85 13c30.667 8.66699 46 24.667 46 48c0 18 -4.33301 41 -13 69z
M391.999 458.999h432l-199 627zM742.999 1737h167l-285 -256h-52z" />
    <glyph glyph-name="Acircumflex" unicode="&#xc2;" horiz-adv-x="1316" 
d="M844 395l-476.001 -0.000976562l-68 -192c-16.667 -46.667 -25 -78.667 -25 -96c0 -28.667 18.333 -47 55 -55c17.333 -4 44 -6.66699 80 -8v-50c-78 7.33301 -143 11 -195 11s-117 -3.66699 -195 -11v50c60.667 4 102.334 13.333 125.001 28
c24.667 17.333 48.667 56 72 116l467 1221l421 -1244c20 -56 46.667 -90 80 -102c24 -9.33301 60.667 -15.666 110 -18.999v-50c-94 10 -177 15 -249 15c-72.667 0 -156 -5 -250 -15v50c36.667 2.66699 65 7 85 13c30.667 8.66699 46 24.667 46 48c0 18 -4.33301 41 -13 69z
M391.999 458.999h432l-199 627zM639.999 1687h96l205 -242h-67l-192 153l-192 -153h-56z" />
    <glyph glyph-name="Atilde" unicode="&#xc3;" horiz-adv-x="1316" 
d="M844 395l-476.001 -0.000976562l-68 -192c-16.667 -46.667 -25 -78.667 -25 -96c0 -28.667 18.333 -47 55 -55c17.333 -4 44 -6.66699 80 -8v-50c-78 7.33301 -143 11 -195 11s-117 -3.66699 -195 -11v50c60.667 4 102.334 13.333 125.001 28
c24.667 17.333 48.667 56 72 116l467 1221l421 -1244c20 -56 46.667 -90 80 -102c24 -9.33301 60.667 -15.666 110 -18.999v-50c-94 10 -177 15 -249 15c-72.667 0 -156 -5 -250 -15v50c36.667 2.66699 65 7 85 13c30.667 8.66699 46 24.667 46 48c0 18 -4.33301 41 -13 69z
M391.999 458.999h432l-199 627zM425.999 1535c14.667 55.333 33.667 95.332 57 119.999c29.333 30 63 44.333 101 43c40.667 0 79.667 -14.333 117 -43c53.333 -37.333 94.666 -55.333 123.999 -54c38 2 67.333 33.667 88 95l35 -8c-9.33301 -56 -28.333 -98.333 -57 -127
c-25.333 -28 -55.666 -43.333 -90.999 -46c-39.333 -1.33301 -88.666 20.334 -147.999 65.001c-32 23.333 -61 35 -87 35c-42.667 0 -76.334 -30 -101.001 -90z" />
    <glyph glyph-name="Adieresis" unicode="&#xc4;" horiz-adv-x="1316" 
d="M844 395l-476.001 -0.000976562l-68 -192c-16.667 -46.667 -25 -78.667 -25 -96c0 -28.667 18.333 -47 55 -55c17.333 -4 44 -6.66699 80 -8v-50c-78 7.33301 -143 11 -195 11s-117 -3.66699 -195 -11v50c60.667 4 102.334 13.333 125.001 28
c24.667 17.333 48.667 56 72 116l467 1221l421 -1244c20 -56 46.667 -90 80 -102c24 -9.33301 60.667 -15.666 110 -18.999v-50c-94 10 -177 15 -249 15c-72.667 0 -156 -5 -250 -15v50c36.667 2.66699 65 7 85 13c30.667 8.66699 46 24.667 46 48c0 18 -4.33301 41 -13 69z
M391.999 458.999h432l-199 627zM501.999 1739c30.667 0 57.333 -11.333 80 -34s34 -50 34 -82s-11.333 -59.333 -34 -82s-50 -34 -82 -34s-59.333 11.333 -82 34s-34 50 -34 82c0 32.667 11.333 60 34 82c23.333 22.667 51.333 34 84 34zM866.998 1739
c30.667 0 57.333 -11.333 80 -34s34 -50 34 -82s-11.333 -59.333 -34 -82s-50 -34 -82 -34s-59.333 11.333 -82 34s-34 50 -34 82c0 32.667 11.333 60 34 82c23.333 22.667 51.333 34 84 34z" />
    <glyph glyph-name="Aring" unicode="&#xc5;" horiz-adv-x="1316" 
d="M844 395l-476.001 -0.000976562l-68 -192c-16.667 -46.667 -25 -78.667 -25 -96c0 -28.667 18.333 -47 55 -55c17.333 -4 44 -6.66699 80 -8v-50c-78 7.33301 -143 11 -195 11s-117 -3.66699 -195 -11v50c60.667 4 102.334 13.333 125.001 28
c24.667 17.333 48.667 56 72 116l467 1221l421 -1244c20 -56 46.667 -90 80 -102c24 -9.33301 60.667 -15.666 110 -18.999v-50c-94 10 -177 15 -249 15c-72.667 0 -156 -5 -250 -15v50c36.667 2.66699 65 7 85 13c30.667 8.66699 46 24.667 46 48c0 18 -4.33301 41 -13 69z
M391.999 458.999h432l-199 627zM687.999 1799c45.333 0 84.999 -16.668 118.999 -50.001c33.333 -33.333 50 -73.666 50 -120.999s-16.667 -87.666 -50 -120.999s-73.666 -50 -120.999 -50s-88 16.667 -122 50c-33.333 33.333 -50 73.666 -50 120.999
c0 48 16.667 88.333 50 121c34.667 33.333 76 50 124 50zM683.998 1727c-26.667 0 -49.666 -9.66797 -68.999 -29.001s-29 -42.666 -29 -69.999s9.66699 -50.666 29 -69.999s43 -29 71 -29c27.333 0 50.666 9.66699 69.999 29s29 42.666 29 69.999
c0 28 -9.66699 51.333 -29 70c-20 19.333 -44 29 -72 29z" />
    <glyph glyph-name="AE" unicode="&#xc6;" horiz-adv-x="1834" 
d="M1687 1365l35.999 -307.004h-46c-19.333 74 -40 128.667 -62 164c-20 30.667 -45.333 52 -76 64c-28 10.667 -63 16 -105 16h-296v-561h293c36.667 0 62.334 6.33301 77.001 19c25.333 21.333 40 71.333 44 150h50v-402h-50c-2.66699 64 -12.334 108 -29.001 132
c-17.333 25.333 -51.666 38 -102.999 38h-282v-494c0 -37.333 2.66699 -61.666 8 -72.999c15.333 -31.333 58.333 -47.333 129 -48h145c63.333 0.666992 110 9 140 25c28 14.667 54 42.834 78 84.501s44 94.167 60 157.5h47l-47 -330h-903v50c57.333 4 97 10.667 119 20
c26.667 12 42.334 31.667 47.001 59c2 11.333 3 30.333 3 57v276h-483l-171 -305c-14.667 -25.333 -22 -45.333 -22 -60c0 -24.667 17.333 -40 52 -46c20 -3.33301 49.667 -5.66602 89 -6.99902v-50c-100.667 6.66699 -168.667 10 -204 10c-36 0 -104.333 -3.33301 -205 -10
v50c56.667 4 99 13.667 127 29c31.333 18.667 64.666 58.334 99.999 119.001l677 1173h763zM517.999 525.996h446v779z" />
    <glyph glyph-name="Ccedilla" unicode="&#xc7;" horiz-adv-x="1229" 
d="M678 -25l-49 -93.9971c50.667 -4 87.667 -12.667 111 -26c46 -26 69 -66.333 69 -121c0 -48.667 -19.333 -88.334 -58 -119.001c-34.667 -28 -78.334 -42 -131.001 -42c-49.333 0 -103.666 10.667 -162.999 32v68c45.333 -12 81 -18 107 -18
c29.333 0 53.333 6.33301 72 19c25.333 17.333 38 41.333 38 72c0 38 -19.667 63.667 -59 77c-20.667 7.33301 -54.667 11.666 -102 12.999l75 142c-105.333 12.667 -197 54.334 -275 125.001c-70.667 64 -124.334 152.333 -161.001 265c-30.667 94.667 -46 198.667 -46 312
c0 205.333 48.333 375.666 145 510.999c48.667 68 112 120 190 156c64.667 29.333 136 44 214 44c126 0 232.667 -41 320 -123l72 119h37v-403h-47c-56 226.667 -175.333 340 -358 340c-136 0 -235 -60.667 -297 -182c-60.667 -118 -91 -270 -91 -456
c0 -174.667 27.667 -318 83 -430c62.667 -127.333 163.334 -191 302.001 -191c88.667 0 164.667 28.667 228 86c73.333 66.667 114.333 169.667 123 309h74c-4 -164.667 -54.667 -290.334 -152 -377.001c-74.667 -66 -165 -102 -271 -108z" />
    <glyph glyph-name="Egrave" unicode="&#xc8;" horiz-adv-x="1113" 
d="M1015 330l-47.0029 -330h-903v50c57.333 4 97 10.667 119 20c27.333 12 43 31.667 47 59c2 10.667 3 29.667 3 57v993c0 42 -4 70.333 -12 85c-18 29.333 -70.333 46.333 -157 51v50h892l36 -307h-46c-24 91.333 -51.667 154.333 -83 189
c-33.333 36 -86.666 54.333 -159.999 55h-296v-561h293c37.333 0 63 6 77 18c25.333 22.667 40 73 44 151h50v-402h-50c-2 61.333 -11.667 105 -29 131c-18.667 26 -53 39 -103 39h-282v-494c0 -37.333 3 -61.333 9 -72c14.667 -32 57.334 -48.333 128.001 -49h145
c78.667 0 135.334 15.333 170.001 46c46.667 41.333 82.667 115 108 221h47zM668.997 1485l-285 256h167l170 -256h-52z" />
    <glyph glyph-name="Eacute" unicode="&#xc9;" horiz-adv-x="1113" 
d="M1015 330l-47.0029 -330h-903v50c57.333 4 97 10.667 119 20c27.333 12 43 31.667 47 59c2 10.667 3 29.667 3 57v993c0 42 -4 70.333 -12 85c-18 29.333 -70.333 46.333 -157 51v50h892l36 -307h-46c-24 91.333 -51.667 154.333 -83 189
c-33.333 36 -86.666 54.333 -159.999 55h-296v-561h293c37.333 0 63 6 77 18c25.333 22.667 40 73 44 151h50v-402h-50c-2 61.333 -11.667 105 -29 131c-18.667 26 -53 39 -103 39h-282v-494c0 -37.333 3 -61.333 9 -72c14.667 -32 57.334 -48.333 128.001 -49h145
c78.667 0 135.334 15.333 170.001 46c46.667 41.333 82.667 115 108 221h47zM604.997 1737h167l-285 -256h-52z" />
    <glyph glyph-name="Ecircumflex" unicode="&#xca;" horiz-adv-x="1113" 
d="M1015 330l-47.0029 -330h-903v50c57.333 4 97 10.667 119 20c27.333 12 43 31.667 47 59c2 10.667 3 29.667 3 57v993c0 42 -4 70.333 -12 85c-18 29.333 -70.333 46.333 -157 51v50h892l36 -307h-46c-24 91.333 -51.667 154.333 -83 189
c-33.333 36 -86.666 54.333 -159.999 55h-296v-561h293c37.333 0 63 6 77 18c25.333 22.667 40 73 44 151h50v-402h-50c-2 61.333 -11.667 105 -29 131c-18.667 26 -53 39 -103 39h-282v-494c0 -37.333 3 -61.333 9 -72c14.667 -32 57.334 -48.333 128.001 -49h145
c78.667 0 135.334 15.333 170.001 46c46.667 41.333 82.667 115 108 221h47zM517.997 1687h96l205 -242h-67l-192 153l-192 -153h-56z" />
    <glyph glyph-name="Edieresis" unicode="&#xcb;" horiz-adv-x="1113" 
d="M1015 330l-47.0029 -330h-903v50c57.333 4 97 10.667 119 20c27.333 12 43 31.667 47 59c2 10.667 3 29.667 3 57v993c0 42 -4 70.333 -12 85c-18 29.333 -70.333 46.333 -157 51v50h892l36 -307h-46c-24 91.333 -51.667 154.333 -83 189
c-33.333 36 -86.666 54.333 -159.999 55h-296v-561h293c37.333 0 63 6 77 18c25.333 22.667 40 73 44 151h50v-402h-50c-2 61.333 -11.667 105 -29 131c-18.667 26 -53 39 -103 39h-282v-494c0 -37.333 3 -61.333 9 -72c14.667 -32 57.334 -48.333 128.001 -49h145
c78.667 0 135.334 15.333 170.001 46c46.667 41.333 82.667 115 108 221h47zM385.997 1739c30.667 0 57.333 -11.333 80 -34s34 -50 34 -82s-11.333 -59.333 -34 -82s-50 -34 -82 -34s-59.333 11.333 -82 34s-34 50 -34 82c0 32.667 11.333 60 34 82
c23.333 22.667 51.333 34 84 34zM750.996 1739c30.667 0 57.333 -11.333 80 -34s34 -50 34 -82s-11.333 -59.333 -34 -82s-50 -34 -82 -34s-59.333 11.333 -82 34s-34 50 -34 82c0 32.667 11.333 60 34 82c23.333 22.667 51.333 34 84 34z" />
    <glyph glyph-name="Igrave" unicode="&#xcc;" horiz-adv-x="642" 
d="M234 180l0.000976562 1005c0 42 -4 70.333 -12 85c-12 22.667 -40.333 37.334 -85 44.001c-18 2.66699 -42 5 -72 7v50c104 -10 189.333 -15 256 -15s152 5 256 15v-50c-57.333 -4 -97 -10.667 -119 -20c-26.667 -12 -42.334 -31.667 -47.001 -59
c-2 -10.667 -3 -29.667 -3 -57v-1005c0 -42.667 4 -71 12 -85c12 -22.667 40.333 -37.334 85 -44.001c16.667 -2 40.667 -4.33301 72 -7v-50c-108.667 10 -194 15 -256 15s-147.333 -5 -256 -15v50c58 4.66699 97.667 11.334 119 20.001c27.333 12.667 43 32.334 47 59.001
c2 10.667 3 29.667 3 57zM386.001 1482l-285 256h167l170 -256h-52z" />
    <glyph glyph-name="Iacute" unicode="&#xcd;" horiz-adv-x="642" 
d="M234 180l0.000976562 1005c0 42 -4 70.333 -12 85c-12 22.667 -40.333 37.334 -85 44.001c-18 2.66699 -42 5 -72 7v50c104 -10 189.333 -15 256 -15s152 5 256 15v-50c-57.333 -4 -97 -10.667 -119 -20c-26.667 -12 -42.334 -31.667 -47.001 -59
c-2 -10.667 -3 -29.667 -3 -57v-1005c0 -42.667 4 -71 12 -85c12 -22.667 40.333 -37.334 85 -44.001c16.667 -2 40.667 -4.33301 72 -7v-50c-108.667 10 -194 15 -256 15s-147.333 -5 -256 -15v50c58 4.66699 97.667 11.334 119 20.001c27.333 12.667 43 32.334 47 59.001
c2 10.667 3 29.667 3 57zM384.001 1738h167l-285 -256h-52z" />
    <glyph glyph-name="Icircumflex" unicode="&#xce;" horiz-adv-x="642" 
d="M234 180l0.000976562 1005c0 42 -4 70.333 -12 85c-12 22.667 -40.333 37.334 -85 44.001c-18 2.66699 -42 5 -72 7v50c104 -10 189.333 -15 256 -15s152 5 256 15v-50c-57.333 -4 -97 -10.667 -119 -20c-26.667 -12 -42.334 -31.667 -47.001 -59
c-2 -10.667 -3 -29.667 -3 -57v-1005c0 -42.667 4 -71 12 -85c12 -22.667 40.333 -37.334 85 -44.001c16.667 -2 40.667 -4.33301 72 -7v-50c-108.667 10 -194 15 -256 15s-147.333 -5 -256 -15v50c58 4.66699 97.667 11.334 119 20.001c27.333 12.667 43 32.334 47 59.001
c2 10.667 3 29.667 3 57zM0.000976562 1485l263 277h116l263 -277h-102l-219 171l-219 -171h-102z" />
    <glyph glyph-name="Idieresis" unicode="&#xcf;" horiz-adv-x="642" 
d="M235 180l0.000976562 1005c0 42 -4 70.333 -12 85c-12 22.667 -40.333 37.334 -85 44.001c-18 2.66699 -42 5 -72 7v50c104 -10 189.333 -15 256 -15s152 5 256 15v-50c-57.333 -4 -97 -10.667 -119 -20c-26.667 -12 -42.334 -31.667 -47.001 -59
c-2 -10.667 -3 -29.667 -3 -57v-1005c0 -42.667 4 -71 12 -85c12 -22.667 40.333 -37.334 85 -44.001c16.667 -2 40.667 -4.33301 72 -7v-50c-108.667 10 -194 15 -256 15s-147.333 -5 -256 -15v50c58 4.66699 97.667 11.334 119 20.001c27.333 12.667 43 32.334 47 59.001
c2 10.667 3 29.667 3 57zM161.001 1738c30.667 0 57.333 -11.333 80 -34c22 -22 33 -48.667 33 -80c0 -32 -11 -59 -33 -81c-22.667 -22.667 -50 -34 -82 -34c-31.333 0 -58 11.333 -80 34c-22.667 22 -34 48.667 -34 80c0 32.667 11.333 59.667 34 81
c22.667 22.667 50 34 82 34zM487 1738c30 0 56.333 -11.333 79 -34c22.667 -22 34 -48.667 34 -80c0 -32 -11.333 -59 -34 -81c-22 -22.667 -49 -34 -81 -34c-31.333 0 -58 11.333 -80 34c-22.667 22 -34 48.667 -34 80c0 32.667 11.333 59.667 34 81
c22.667 22.667 50 34 82 34z" />
    <glyph glyph-name="Eth" unicode="&#xd0;" horiz-adv-x="1301" 
d="M226 680h-169.001v75h169v424c0 42 -4 70.333 -12 85c-18 29.333 -70.333 46.333 -157 51v50h502c123.333 0 221 -16 293 -48c113.333 -50.667 202.333 -140.667 267 -270c56 -110.667 84 -232 84 -364c0 -151.333 -36.333 -288 -109 -410
c-75.333 -126.667 -180.666 -209 -315.999 -247c-62 -17.333 -135.333 -26 -220 -26h-501v50c57.333 4 97 10.667 119 20c27.333 12 43 31.667 47 59c2 10.667 3 29.667 3 57v494zM399.999 1302l-0.000976562 -546.999h312v-75h-312v-514
c0 -34.667 2.66699 -57.334 8 -68.001c10 -20 31.333 -32 64 -36c14 -2 35.333 -3 64 -3c150.667 0 262.334 38.667 335.001 116c100 106.667 150 277 150 511c0 216 -44.667 378.667 -134 488c-69.333 85.333 -177.333 128 -324 128h-163z" />
    <glyph glyph-name="Ntilde" unicode="&#xd1;" horiz-adv-x="1377" 
d="M1149 -41h-29.999l-163 250l-50 76l-604 908v-1013c0 -44.667 3.66699 -73.334 11 -86.001c20 -28 72.667 -44.667 158 -50v-50c-97.333 6.66699 -166.333 10 -207 10c-43.333 0 -109.666 -3.33301 -198.999 -10v50c56.667 4 96.334 10.667 119.001 20
c28 12.667 43.667 32.334 47 59.001c2 11.333 3 30.333 3 57v1081c-20.667 22 -45.334 37.333 -74.001 46c-25.333 7.33301 -57.666 12 -96.999 14v50c61.333 -4.66699 118.666 -7 171.999 -7c50.667 0 100.667 2.33301 150 7l695 -1037v851
c0 44.667 -3.66699 73.334 -11 86.001c-18 28 -70.667 44.667 -158 50v50c92.667 -6.66699 162 -10 208 -10c47.333 0 113.666 3.33301 198.999 10v-50c-54.667 -3.33301 -94.334 -10 -119.001 -20c-28 -12.667 -43.667 -32.334 -47 -59.001c-2 -10 -3 -29 -3 -57v-1226z
M431.001 1535c14.667 55.333 33.667 95.332 57 119.999c29.333 30 63 44.333 101 43c40.667 0 79.667 -14.333 117 -43c53.333 -37.333 94.666 -55.333 123.999 -54c38 2 67.333 33.667 88 95l35 -8c-9.33301 -56 -28.333 -98.333 -57 -127
c-25.333 -28 -55.666 -43.333 -90.999 -46c-39.333 -1.33301 -88.666 20.334 -147.999 65.001c-32 23.333 -61 35 -87 35c-42.667 0 -76.334 -30 -101.001 -90z" />
    <glyph glyph-name="Ograve" unicode="&#xd2;" horiz-adv-x="1295" 
d="M655 1391c118 0 223.667 -38 317 -114c84 -69.333 145.333 -167.666 184 -294.999c27.333 -90.667 41 -190.334 41 -299.001c0 -192 -42.333 -354 -127 -486c-48 -74.667 -111.333 -131.667 -190 -171c-68 -34.667 -144.333 -52 -229 -52c-122 0 -229 36.333 -321 109
c-88 68.667 -152 170.667 -192 306c-26.667 90 -40 188 -40 294c0 194.667 41.667 355 125 481c99.333 151.333 243.333 227 432 227zM644 1334c-90 0 -166.667 -39.668 -230 -119.001c-87.333 -108.667 -131 -284 -131 -526c0 -170 24 -314.667 72 -434
c26 -66 64.333 -120 115 -162c50.667 -41.333 111.334 -62 182.001 -62c96.667 0 175.334 40.333 236.001 121c47.333 64 81.666 155.667 102.999 275c14 78.667 21 165 21 259c0 172.667 -23 315.334 -69 428.001c-60.667 146.667 -160.334 220 -299.001 220zM735 1485
l-285 256h167l170 -256h-52z" />
    <glyph glyph-name="Oacute" unicode="&#xd3;" horiz-adv-x="1295" 
d="M655 1391c118 0 223.667 -38 317 -114c84 -69.333 145.333 -167.666 184 -294.999c27.333 -90.667 41 -190.334 41 -299.001c0 -192 -42.333 -354 -127 -486c-48 -74.667 -111.333 -131.667 -190 -171c-68 -34.667 -144.333 -52 -229 -52c-122 0 -229 36.333 -321 109
c-88 68.667 -152 170.667 -192 306c-26.667 90 -40 188 -40 294c0 194.667 41.667 355 125 481c99.333 151.333 243.333 227 432 227zM644 1334c-90 0 -166.667 -39.668 -230 -119.001c-87.333 -108.667 -131 -284 -131 -526c0 -170 24 -314.667 72 -434
c26 -66 64.333 -120 115 -162c50.667 -41.333 111.334 -62 182.001 -62c96.667 0 175.334 40.333 236.001 121c47.333 64 81.666 155.667 102.999 275c14 78.667 21 165 21 259c0 172.667 -23 315.334 -69 428.001c-60.667 146.667 -160.334 220 -299.001 220zM698 1737h167
l-285 -256h-52z" />
    <glyph glyph-name="Ocircumflex" unicode="&#xd4;" horiz-adv-x="1295" 
d="M655 1391c118 0 223.667 -38 317 -114c84 -69.333 145.333 -167.666 184 -294.999c27.333 -90.667 41 -190.334 41 -299.001c0 -192 -42.333 -354 -127 -486c-48 -74.667 -111.333 -131.667 -190 -171c-68 -34.667 -144.333 -52 -229 -52c-122 0 -229 36.333 -321 109
c-88 68.667 -152 170.667 -192 306c-26.667 90 -40 188 -40 294c0 194.667 41.667 355 125 481c99.333 151.333 243.333 227 432 227zM644 1334c-90 0 -166.667 -39.668 -230 -119.001c-87.333 -108.667 -131 -284 -131 -526c0 -170 24 -314.667 72 -434
c26 -66 64.333 -120 115 -162c50.667 -41.333 111.334 -62 182.001 -62c96.667 0 175.334 40.333 236.001 121c47.333 64 81.666 155.667 102.999 275c14 78.667 21 165 21 259c0 172.667 -23 315.334 -69 428.001c-60.667 146.667 -160.334 220 -299.001 220zM605 1687h96
l205 -242h-67l-192 153l-192 -153h-56z" />
    <glyph glyph-name="Otilde" unicode="&#xd5;" horiz-adv-x="1295" 
d="M655 1391c118 0 223.667 -38 317 -114c84 -69.333 145.333 -167.666 184 -294.999c27.333 -90.667 41 -190.334 41 -299.001c0 -192 -42.333 -354 -127 -486c-48 -74.667 -111.333 -131.667 -190 -171c-68 -34.667 -144.333 -52 -229 -52c-122 0 -229 36.333 -321 109
c-88 68.667 -152 170.667 -192 306c-26.667 90 -40 188 -40 294c0 194.667 41.667 355 125 481c99.333 151.333 243.333 227 432 227zM644 1334c-90 0 -166.667 -39.668 -230 -119.001c-87.333 -108.667 -131 -284 -131 -526c0 -170 24 -314.667 72 -434
c26 -66 64.333 -120 115 -162c50.667 -41.333 111.334 -62 182.001 -62c96.667 0 175.334 40.333 236.001 121c47.333 64 81.666 155.667 102.999 275c14 78.667 21 165 21 259c0 172.667 -23 315.334 -69 428.001c-60.667 146.667 -160.334 220 -299.001 220zM402 1535
c14.667 55.333 33.667 95.332 57 119.999c29.333 30 63 44.333 101 43c40.667 0 79.667 -14.333 117 -43c53.333 -37.333 94.666 -55.333 123.999 -54c38 2 67.333 33.667 88 95l35 -8c-9.33301 -56 -28.333 -98.333 -57 -127c-25.333 -28 -55.666 -43.333 -90.999 -46
c-39.333 -1.33301 -88.666 20.334 -147.999 65.001c-32 23.333 -61 35 -87 35c-42.667 0 -76.334 -30 -101.001 -90z" />
    <glyph glyph-name="Odieresis" unicode="&#xd6;" horiz-adv-x="1295" 
d="M655 1391c118 0 223.667 -38 317 -114c84 -69.333 145.333 -167.666 184 -294.999c27.333 -90.667 41 -190.334 41 -299.001c0 -192 -42.333 -354 -127 -486c-48 -74.667 -111.333 -131.667 -190 -171c-68 -34.667 -144.333 -52 -229 -52c-122 0 -229 36.333 -321 109
c-88 68.667 -152 170.667 -192 306c-26.667 90 -40 188 -40 294c0 194.667 41.667 355 125 481c99.333 151.333 243.333 227 432 227zM644 1334c-90 0 -166.667 -39.668 -230 -119.001c-87.333 -108.667 -131 -284 -131 -526c0 -170 24 -314.667 72 -434
c26 -66 64.333 -120 115 -162c50.667 -41.333 111.334 -62 182.001 -62c96.667 0 175.334 40.333 236.001 121c47.333 64 81.666 155.667 102.999 275c14 78.667 21 165 21 259c0 172.667 -23 315.334 -69 428.001c-60.667 146.667 -160.334 220 -299.001 220zM467 1739
c30.667 0 57.333 -11.333 80 -34s34 -50 34 -82s-11.333 -59.333 -34 -82s-50 -34 -82 -34s-59.333 11.333 -82 34s-34 50 -34 82c0 32.667 11.333 60 34 82c23.333 22.667 51.333 34 84 34zM831.999 1739c30.667 0 57.333 -11.333 80 -34s34 -50 34 -82
s-11.333 -59.333 -34 -82s-50 -34 -82 -34s-59.333 11.333 -82 34s-34 50 -34 82c0 32.667 11.333 60 34 82c23.333 22.667 51.333 34 84 34z" />
    <glyph glyph-name="multiply" unicode="&#xd7;" horiz-adv-x="1071" 
d="M151 987l88 88l299 -298l295 295l84 -83l-296 -296l299 -298l-89 -89l-298 299l-295 -296l-84 84l296 295z" />
    <glyph glyph-name="Oslash" unicode="&#xd8;" horiz-adv-x="1295" 
d="M1159 1365l93 0.000976562l-169 -209c75.333 -123.333 113 -275.666 113 -456.999c0 -204 -46.667 -374.667 -140 -512c-46.667 -68.667 -105.167 -121.334 -175.5 -158.001s-147.5 -55 -231.5 -55c-159.333 0 -290 57.333 -392 172l-119 -146h-94l169 206
c-77.333 128.667 -116 283 -116 463c0 203.333 45.667 372 137 506c48 69.333 110 123.666 186 162.999c70 35.333 146 53 228 53c158 0 288 -58 390 -174zM951 1120c-66 142 -164.333 213 -295 213c-92 0 -170.333 -37.333 -235 -112
c-54 -62.667 -93.667 -153.667 -119 -273c-19.333 -89.333 -29 -188 -29 -296c0 -114 14.667 -223 44 -327zM346 245.001c29.333 -69.333 69.332 -122.168 119.999 -158.501s109.334 -54.5 176.001 -54.5c96 0 174.667 38 236 114c50 62 87.667 152.667 113 272
c19.333 92 29 192.667 29 302c0 118.667 -13.667 225.334 -41 320.001z" />
    <glyph glyph-name="Ugrave" unicode="&#xd9;" horiz-adv-x="1361" 
d="M1138 1185l0.00195312 -749.004c0 -85.333 -8 -151 -24 -197c-31.333 -89.333 -88 -156.666 -170 -201.999c-72.667 -40 -160.667 -60 -264 -60c-154.667 0 -274.667 46.333 -360 139c-46 50 -75 107 -87 171c-6.66699 38 -10 82.333 -10 133v765c0 42 -4 70.333 -12 85
c-12 22.667 -40.333 37.334 -85 44.001c-18 2.66699 -42 5 -72 7v50c104 -10 189.333 -15 256 -15s152 5 256 15v-50c-57.333 -4 -97 -10.667 -119 -20c-26.667 -12 -42.334 -31.667 -47.001 -59c-2 -10.667 -3 -29.667 -3 -57v-782c0 -81.333 8 -140.333 24 -177
c25.333 -57.333 69 -99.333 131 -126c47.333 -21.333 103.333 -32 168 -32c68 0 128.5 11.833 181.5 35.5s92.833 56.834 119.5 99.501c32 50.667 48 125 48 223v759c0 42 -4 70.333 -12 85c-12 22.667 -40.333 37.334 -85 44.001c-18 2.66699 -42 5 -72 7v50
c93.333 -6.66699 162.666 -10 207.999 -10c46.667 0 113 3.33301 199 10v-50c-57.333 -4 -97 -10.667 -119 -20c-27.333 -12 -43 -31.667 -47 -59c-2 -10 -3 -29 -3 -57zM820.002 1485l-285 256h167l170 -256h-52z" />
    <glyph glyph-name="Uacute" unicode="&#xda;" horiz-adv-x="1361" 
d="M1138 1185l0.00195312 -749.004c0 -85.333 -8 -151 -24 -197c-31.333 -89.333 -88 -156.666 -170 -201.999c-72.667 -40 -160.667 -60 -264 -60c-154.667 0 -274.667 46.333 -360 139c-46 50 -75 107 -87 171c-6.66699 38 -10 82.333 -10 133v765c0 42 -4 70.333 -12 85
c-12 22.667 -40.333 37.334 -85 44.001c-18 2.66699 -42 5 -72 7v50c104 -10 189.333 -15 256 -15s152 5 256 15v-50c-57.333 -4 -97 -10.667 -119 -20c-26.667 -12 -42.334 -31.667 -47.001 -59c-2 -10.667 -3 -29.667 -3 -57v-782c0 -81.333 8 -140.333 24 -177
c25.333 -57.333 69 -99.333 131 -126c47.333 -21.333 103.333 -32 168 -32c68 0 128.5 11.833 181.5 35.5s92.833 56.834 119.5 99.501c32 50.667 48 125 48 223v759c0 42 -4 70.333 -12 85c-12 22.667 -40.333 37.334 -85 44.001c-18 2.66699 -42 5 -72 7v50
c93.333 -6.66699 162.666 -10 207.999 -10c46.667 0 113 3.33301 199 10v-50c-57.333 -4 -97 -10.667 -119 -20c-27.333 -12 -43 -31.667 -47 -59c-2 -10 -3 -29 -3 -57zM775.002 1737h167l-285 -256h-52z" />
    <glyph glyph-name="Ucircumflex" unicode="&#xdb;" horiz-adv-x="1361" 
d="M1138 1185l0.00195312 -749.004c0 -85.333 -8 -151 -24 -197c-31.333 -89.333 -88 -156.666 -170 -201.999c-72.667 -40 -160.667 -60 -264 -60c-154.667 0 -274.667 46.333 -360 139c-46 50 -75 107 -87 171c-6.66699 38 -10 82.333 -10 133v765c0 42 -4 70.333 -12 85
c-12 22.667 -40.333 37.334 -85 44.001c-18 2.66699 -42 5 -72 7v50c104 -10 189.333 -15 256 -15s152 5 256 15v-50c-57.333 -4 -97 -10.667 -119 -20c-26.667 -12 -42.334 -31.667 -47.001 -59c-2 -10.667 -3 -29.667 -3 -57v-782c0 -81.333 8 -140.333 24 -177
c25.333 -57.333 69 -99.333 131 -126c47.333 -21.333 103.333 -32 168 -32c68 0 128.5 11.833 181.5 35.5s92.833 56.834 119.5 99.501c32 50.667 48 125 48 223v759c0 42 -4 70.333 -12 85c-12 22.667 -40.333 37.334 -85 44.001c-18 2.66699 -42 5 -72 7v50
c93.333 -6.66699 162.666 -10 207.999 -10c46.667 0 113 3.33301 199 10v-50c-57.333 -4 -97 -10.667 -119 -20c-27.333 -12 -43 -31.667 -47 -59c-2 -10 -3 -29 -3 -57zM689.002 1687h96l205 -242h-67l-192 153l-192 -153h-56z" />
    <glyph glyph-name="Udieresis" unicode="&#xdc;" horiz-adv-x="1361" 
d="M1138 1185l0.00195312 -749.004c0 -85.333 -8 -151 -24 -197c-31.333 -89.333 -88 -156.666 -170 -201.999c-72.667 -40 -160.667 -60 -264 -60c-154.667 0 -274.667 46.333 -360 139c-46 50 -75 107 -87 171c-6.66699 38 -10 82.333 -10 133v765c0 42 -4 70.333 -12 85
c-12 22.667 -40.333 37.334 -85 44.001c-18 2.66699 -42 5 -72 7v50c104 -10 189.333 -15 256 -15s152 5 256 15v-50c-57.333 -4 -97 -10.667 -119 -20c-26.667 -12 -42.334 -31.667 -47.001 -59c-2 -10.667 -3 -29.667 -3 -57v-782c0 -81.333 8 -140.333 24 -177
c25.333 -57.333 69 -99.333 131 -126c47.333 -21.333 103.333 -32 168 -32c68 0 128.5 11.833 181.5 35.5s92.833 56.834 119.5 99.501c32 50.667 48 125 48 223v759c0 42 -4 70.333 -12 85c-12 22.667 -40.333 37.334 -85 44.001c-18 2.66699 -42 5 -72 7v50
c93.333 -6.66699 162.666 -10 207.999 -10c46.667 0 113 3.33301 199 10v-50c-57.333 -4 -97 -10.667 -119 -20c-27.333 -12 -43 -31.667 -47 -59c-2 -10 -3 -29 -3 -57zM551.002 1739c30.667 0 57.333 -11.333 80 -34s34 -50 34 -82s-11.333 -59.333 -34 -82
s-50 -34 -82 -34s-59.333 11.333 -82 34s-34 50 -34 82c0 32.667 11.333 60 34 82c23.333 22.667 51.333 34 84 34zM916.001 1739c30.667 0 57.333 -11.333 80 -34s34 -50 34 -82s-11.333 -59.333 -34 -82s-50 -34 -82 -34s-59.333 11.333 -82 34s-34 50 -34 82
c0 32.667 11.333 60 34 82c23.333 22.667 51.333 34 84 34z" />
    <glyph glyph-name="Yacute" unicode="&#xdd;" horiz-adv-x="1211" 
d="M523 595l-304.001 605c-26 51.333 -54 84.333 -84 99c-23.333 10.667 -59 18 -107 22v50c92 -9.33301 176 -14 252 -14s159.667 4.66699 251 14v-50c-34 -2 -62.333 -5 -85 -9c-38.667 -6.66699 -58 -22.334 -58 -47.001c0 -13.333 7 -34 21 -62l262 -520l261 523
c13.333 26 20 46 20 60c0 24.667 -18.333 40.334 -55 47.001c-20 3.33301 -48 6 -84 8v50c75.333 -6.66699 138.333 -10 189 -10s113.667 3.33301 189 10v-50c-47.333 -5.33301 -82 -12.333 -104 -21c-30.667 -13.333 -58 -43 -82 -89l-308 -616v-415
c0 -44.667 3.66699 -73.334 11 -86.001c20 -28 72.667 -44.667 158 -50v-50c-108.667 10 -194 15 -256 15c-62.667 0 -148 -5 -256 -15v50c56.667 4 96.334 10.667 119.001 20c28 12.667 43.667 32.334 47 59.001c2 11.333 3 30.333 3 57v415zM705.999 1737h167l-285 -256
h-52z" />
    <glyph glyph-name="Thorn" unicode="&#xde;" horiz-adv-x="1116" 
d="M408 400l0.000976562 -220.001c0 -42.667 4 -71 12 -85c12 -22.667 40.333 -37.334 85 -44.001c16.667 -2 40.667 -4.33301 72 -7v-50c-108.667 10 -194 15 -256 15s-147.333 -5 -256 -15v50c58 4.66699 97.667 11.334 119 20.001c27.333 12.667 43 32.334 47 59.001
c2 10.667 3 29.667 3 57v1005c0 42 -4 70.333 -12 85c-12 22.667 -40.333 37.334 -85 44.001c-18 2.66699 -42 5 -72 7v50c104 -10 189.333 -15 256 -15s152 5 256 15v-50c-57.333 -4 -97 -10.667 -119 -20c-26.667 -12 -42.334 -31.667 -47.001 -59
c-2 -10.667 -3 -29.667 -3 -57v-36h197c71.333 0 130.5 -5.66699 177.5 -17s88.833 -30 125.5 -56c46 -32.667 82.667 -76.334 110 -131.001c26.667 -54.667 40 -112.667 40 -174c0 -127.333 -50 -226 -150 -296c-70.667 -50 -164.667 -75 -282 -75h-218zM408.001 462.999
l162.999 -0.000976562c94.667 0 166 20.333 214 61c66 56.667 99 141.334 99 254.001c0 102 -25.667 180.667 -77 236c-45.333 48 -119.666 72 -222.999 72h-176v-623z" />
    <glyph glyph-name="germandbls" unicode="&#xdf;" horiz-adv-x="1054" 
d="M438 721v64.998c82.667 3.33301 145.334 20.666 188.001 51.999c60.667 46 91 121.667 91 227c0 167.333 -58.333 251 -175 251c-34 0 -65.333 -8.16699 -94 -24.5s-50 -38.5 -64 -66.5c-19.333 -38 -29 -93.667 -29 -167v-1062c-56.667 4.66699 -103.667 7 -141 7
c-42 0 -98.667 -3 -170 -9v41c47.333 2 81.666 7 102.999 15c22.667 9.33301 36.334 25.333 41.001 48c2 8.66699 3 24.334 3 47.001v834c0 110 22.667 196.333 68 259c31.333 42.667 72.5 76.334 123.5 101.001s106.167 37 165.5 37c98.667 0 179 -30.333 241 -91
c60 -59.333 90 -134 90 -224c0 -90.667 -32.333 -164.334 -97 -221.001c-29.333 -25.333 -72.333 -50.666 -129 -75.999c213.333 -55.333 320 -187.333 320 -396c0 -102 -27.667 -188.333 -83 -259c-64 -82 -143.667 -123 -239 -123c-58.667 0 -117.667 21.333 -177 64v56
c44 -23.333 83 -35 117 -35c69.333 0 122.666 28 159.999 84c36 53.333 54 121.333 54 204c0 142.667 -51 245.334 -153 308.001c-52.667 32.667 -124 50.667 -214 54z" />
    <glyph glyph-name="agrave" unicode="&#xe0;" horiz-adv-x="955" 
d="M639 161c-27.333 -49.333 -53.668 -85.668 -79.001 -109.001c-49.333 -46.667 -114.666 -70 -195.999 -70c-82 0 -149.333 23.667 -202 71c-55.333 50 -83 114 -83 192c0 122.667 77.667 216.334 233 281.001c88 36.667 189 62.334 303 77.001v122
c0 68.667 -10.333 117.334 -31 146.001c-29.333 40 -75.333 60 -138 60c-53.333 0 -98.333 -14.333 -135 -43c-23.333 -19.333 -35 -45 -35 -77v-18c0.666992 -12 1 -22 1 -30c0 -60.667 -27.667 -91 -83 -91c-45.333 0 -68 23 -68 69c0 62.667 30 117.667 90 165
c68 53.333 150 80 246 80c66.667 0 126.667 -14.333 180 -43c66 -36 107.333 -87.667 124 -155c8.66699 -34.667 13 -81.334 13 -140.001v-418c0 -64.667 5 -111.334 15 -140.001s31.667 -43 65 -43c12.667 0 30 2.33301 52 7v-54c-46 -9.33301 -84.333 -14 -115 -14
c-58 0 -100 21 -126 63c-16 26 -26.333 63.333 -31 112zM614.998 549.998c-93.333 -16.667 -170 -40.002 -230 -70.002c-93.333 -47.333 -140 -121.666 -140 -222.999c0 -59.333 16 -105.666 48 -138.999c29.333 -31.333 70 -47 122 -47c88 0 147.333 40.333 178 121
c14.667 39.333 22 99.333 22 180v178zM535.998 1129l-285 256h167l170 -256h-52z" />
    <glyph glyph-name="aacute" unicode="&#xe1;" horiz-adv-x="955" 
d="M639 161c-27.333 -49.333 -53.668 -85.668 -79.001 -109.001c-49.333 -46.667 -114.666 -70 -195.999 -70c-82 0 -149.333 23.667 -202 71c-55.333 50 -83 114 -83 192c0 122.667 77.667 216.334 233 281.001c88 36.667 189 62.334 303 77.001v122
c0 68.667 -10.333 117.334 -31 146.001c-29.333 40 -75.333 60 -138 60c-53.333 0 -98.333 -14.333 -135 -43c-23.333 -19.333 -35 -45 -35 -77v-18c0.666992 -12 1 -22 1 -30c0 -60.667 -27.667 -91 -83 -91c-45.333 0 -68 23 -68 69c0 62.667 30 117.667 90 165
c68 53.333 150 80 246 80c66.667 0 126.667 -14.333 180 -43c66 -36 107.333 -87.667 124 -155c8.66699 -34.667 13 -81.334 13 -140.001v-418c0 -64.667 5 -111.334 15 -140.001s31.667 -43 65 -43c12.667 0 30 2.33301 52 7v-54c-46 -9.33301 -84.333 -14 -115 -14
c-58 0 -100 21 -126 63c-16 26 -26.333 63.333 -31 112zM614.998 549.998c-93.333 -16.667 -170 -40.002 -230 -70.002c-93.333 -47.333 -140 -121.666 -140 -222.999c0 -59.333 16 -105.666 48 -138.999c29.333 -31.333 70 -47 122 -47c88 0 147.333 40.333 178 121
c14.667 39.333 22 99.333 22 180v178zM532.998 1385h167l-285 -256h-52z" />
    <glyph glyph-name="acircumflex" unicode="&#xe2;" horiz-adv-x="955" 
d="M639 161c-27.333 -49.333 -53.668 -85.668 -79.001 -109.001c-49.333 -46.667 -114.666 -70 -195.999 -70c-82 0 -149.333 23.667 -202 71c-55.333 50 -83 114 -83 192c0 122.667 77.667 216.334 233 281.001c88 36.667 189 62.334 303 77.001v122
c0 68.667 -10.333 117.334 -31 146.001c-29.333 40 -75.333 60 -138 60c-53.333 0 -98.333 -14.333 -135 -43c-23.333 -19.333 -35 -45 -35 -77v-18c0.666992 -12 1 -22 1 -30c0 -60.667 -27.667 -91 -83 -91c-45.333 0 -68 23 -68 69c0 62.667 30 117.667 90 165
c68 53.333 150 80 246 80c66.667 0 126.667 -14.333 180 -43c66 -36 107.333 -87.667 124 -155c8.66699 -34.667 13 -81.334 13 -140.001v-418c0 -64.667 5 -111.334 15 -140.001s31.667 -43 65 -43c12.667 0 30 2.33301 52 7v-54c-46 -9.33301 -84.333 -14 -115 -14
c-58 0 -100 21 -126 63c-16 26 -26.333 63.333 -31 112zM614.998 549.998c-93.333 -16.667 -170 -40.002 -230 -70.002c-93.333 -47.333 -140 -121.666 -140 -222.999c0 -59.333 16 -105.666 48 -138.999c29.333 -31.333 70 -47 122 -47c88 0 147.333 40.333 178 121
c14.667 39.333 22 99.333 22 180v178zM418.998 1332h96l205 -242h-67l-192 153l-192 -153h-56z" />
    <glyph glyph-name="atilde" unicode="&#xe3;" horiz-adv-x="955" 
d="M639 161c-27.333 -49.333 -53.668 -85.668 -79.001 -109.001c-49.333 -46.667 -114.666 -70 -195.999 -70c-82 0 -149.333 23.667 -202 71c-55.333 50 -83 114 -83 192c0 122.667 77.667 216.334 233 281.001c88 36.667 189 62.334 303 77.001v122
c0 68.667 -10.333 117.334 -31 146.001c-29.333 40 -75.333 60 -138 60c-53.333 0 -98.333 -14.333 -135 -43c-23.333 -19.333 -35 -45 -35 -77v-18c0.666992 -12 1 -22 1 -30c0 -60.667 -27.667 -91 -83 -91c-45.333 0 -68 23 -68 69c0 62.667 30 117.667 90 165
c68 53.333 150 80 246 80c66.667 0 126.667 -14.333 180 -43c66 -36 107.333 -87.667 124 -155c8.66699 -34.667 13 -81.334 13 -140.001v-418c0 -64.667 5 -111.334 15 -140.001s31.667 -43 65 -43c12.667 0 30 2.33301 52 7v-54c-46 -9.33301 -84.333 -14 -115 -14
c-58 0 -100 21 -126 63c-16 26 -26.333 63.333 -31 112zM614.998 549.998c-93.333 -16.667 -170 -40.002 -230 -70.002c-93.333 -47.333 -140 -121.666 -140 -222.999c0 -59.333 16 -105.666 48 -138.999c29.333 -31.333 70 -47 122 -47c88 0 147.333 40.333 178 121
c14.667 39.333 22 99.333 22 180v178zM227.998 1182c14.667 55.333 33.667 95.332 57 119.999c29.333 30 63 44.333 101 43c40.667 0 79.667 -14.333 117 -43c53.333 -37.333 94.666 -55.333 123.999 -54c38 2 67.333 33.667 88 95l35 -8
c-9.33301 -56 -28.333 -98.333 -57 -127c-25.333 -28 -55.666 -43.333 -90.999 -46c-39.333 -1.33301 -88.666 20.334 -147.999 65.001c-32 23.333 -61 35 -87 35c-42.667 0 -76.334 -30 -101.001 -90z" />
    <glyph glyph-name="adieresis" unicode="&#xe4;" horiz-adv-x="955" 
d="M639 161c-27.333 -49.333 -53.668 -85.668 -79.001 -109.001c-49.333 -46.667 -114.666 -70 -195.999 -70c-82 0 -149.333 23.667 -202 71c-55.333 50 -83 114 -83 192c0 122.667 77.667 216.334 233 281.001c88 36.667 189 62.334 303 77.001v122
c0 68.667 -10.333 117.334 -31 146.001c-29.333 40 -75.333 60 -138 60c-53.333 0 -98.333 -14.333 -135 -43c-23.333 -19.333 -35 -45 -35 -77v-18c0.666992 -12 1 -22 1 -30c0 -60.667 -27.667 -91 -83 -91c-45.333 0 -68 23 -68 69c0 62.667 30 117.667 90 165
c68 53.333 150 80 246 80c66.667 0 126.667 -14.333 180 -43c66 -36 107.333 -87.667 124 -155c8.66699 -34.667 13 -81.334 13 -140.001v-418c0 -64.667 5 -111.334 15 -140.001s31.667 -43 65 -43c12.667 0 30 2.33301 52 7v-54c-46 -9.33301 -84.333 -14 -115 -14
c-58 0 -100 21 -126 63c-16 26 -26.333 63.333 -31 112zM614.998 549.998c-93.333 -16.667 -170 -40.002 -230 -70.002c-93.333 -47.333 -140 -121.666 -140 -222.999c0 -59.333 16 -105.666 48 -138.999c29.333 -31.333 70 -47 122 -47c88 0 147.333 40.333 178 121
c14.667 39.333 22 99.333 22 180v178zM278.998 1378c29.333 0 54.667 -10.667 76 -32s32 -47 32 -77c0 -30.667 -10.667 -56.667 -32 -78s-47 -32 -77 -32c-30.667 0 -56.667 10.667 -78 32c-21.333 22 -32 47.667 -32 77c0 31.333 10.667 57.333 32 78
c22 21.333 48.333 32 79 32zM651.999 1378c29.333 0 54.667 -10.667 76 -32s32 -47 32 -77c0 -30.667 -10.667 -56.667 -32 -78s-47 -32 -77 -32c-30.667 0 -56.667 10.667 -78 32c-21.333 22 -32 47.667 -32 77c0 31.333 10.667 57.333 32 78c22 21.333 48.333 32 79 32z
" />
    <glyph glyph-name="aring" unicode="&#xe5;" horiz-adv-x="955" 
d="M639 161c-26.667 -49.333 -53.001 -85.668 -79.001 -109.001c-50 -46.667 -115.333 -70 -196 -70c-82 0 -149.333 23.667 -202 71c-55.333 49.333 -83 113.333 -83 192c0 123.333 77.667 217 233 281c88.667 36.667 189.667 62.334 303 77.001v122
c0 69.333 -10.333 118 -31 146c-29.333 40 -75.333 60 -138 60c-63.333 0 -112.333 -17.333 -147 -52c-16.667 -17.333 -25 -38.333 -25 -63c0 -3.33301 0.666992 -18.666 2 -45.999v-11c0 -58 -27 -87 -81 -87c-46 0 -69 23.333 -69 70c0 62 30 116.667 90 164
c68 53.333 150 80 246 80c66.667 0 126.667 -14.333 180 -43c66 -36 107.333 -87.667 124 -155c8.66699 -34.667 13 -81.334 13 -140.001v-418c0 -65.333 5 -112 15 -140c10 -28.667 31.333 -43 64 -43c13.333 0 31 2.33301 53 7v-54c-44 -9.33301 -82.667 -14 -116 -14
c-57.333 0 -99 21 -125 63c-15.333 24.667 -25.666 62 -30.999 112zM614.999 549.998c-93.333 -16.667 -170 -40.002 -230 -70.002c-93.333 -47.333 -140 -121.666 -140 -222.999c0 -59.333 16 -105.666 48 -138.999c29.333 -31.333 70 -47 122 -47
c88 0 147.333 40.333 178 121c14.667 39.333 22 99.333 22 180v178zM470.999 1463c46 0 85.665 -16.668 118.998 -50.001s50 -73.666 50 -120.999c0 -46.667 -16.667 -87 -50 -121c-33.333 -33.333 -73.666 -50 -120.999 -50s-87.666 16.667 -120.999 50
c-33.333 34 -50 74.333 -50 121c0 48 16.667 88.333 50 121c34 33.333 75 50 123 50zM467.997 1391c-26.667 0 -49.665 -9.66797 -68.998 -29.001s-29 -42.666 -29 -69.999s9.66699 -50.666 29 -69.999s42.666 -29 69.999 -29s50.666 9.66699 69.999 29s29 42.666 29 69.999
c0 28 -9.66699 51.333 -29 70c-20 19.333 -43.667 29 -71 29z" />
    <glyph glyph-name="ae" unicode="&#xe6;" horiz-adv-x="1472" 
d="M1309 315h81.9971c-8.66699 -76.667 -33 -142.334 -73 -197.001c-66.667 -91.333 -166.334 -137 -299.001 -137c-165.333 0 -285.666 76.333 -360.999 229c-52 -152.667 -149 -229 -291 -229c-96 0 -170.667 29.667 -224 89c-42.667 47.333 -64 104.333 -64 171
c0 110 62 195 186 255c74.667 36 191.334 62.667 350.001 80v149c0 83.333 -16.333 138.666 -49 165.999c-31.333 26.667 -71.666 40 -120.999 40c-62.667 0 -111.334 -17.667 -146.001 -53c-17.333 -18 -26 -37.333 -26 -58c0 -4.66699 0.666992 -11.667 2 -21
c1.33301 -14.667 2 -28 2 -40c0 -58.667 -27.667 -88 -83 -88c-45.333 0 -68 23 -68 69c0 58.667 27.667 111.667 83 159c67.333 58 150 87 248 87c90 0 165.667 -24 227 -72c16.667 -13.333 32.334 -30.666 47.001 -51.999c76 82.667 170.667 124 284 124
c86 0 162 -26.667 228 -80c89.333 -72.667 138.333 -207 147 -403h-614c1.33301 -131.333 13.333 -226.666 36 -285.999c42.667 -112 121.334 -168 236.001 -168c86.667 0 152.667 32 198 96c32 45.333 53 102 63 170zM614.997 513
c-122.667 -16.667 -209.667 -40.334 -261 -71.001c-72.667 -44 -109 -107.333 -109 -190c0 -61.333 18 -108.666 54 -141.999c28.667 -26.667 67.334 -40 116.001 -40c75.333 0 129.666 30 162.999 90c24.667 44 37 114.667 37 212v141zM1224 580
c-6.66699 235.333 -78 353 -214 353s-213.333 -117.667 -232 -353h446z" />
    <glyph glyph-name="ccedilla" unicode="&#xe7;" horiz-adv-x="892" 
d="M530 -19l-51.999 -101.999c115.333 -10.667 173 -56.667 173 -138c0 -48 -19 -86 -57 -114c-34 -25.333 -77.333 -38 -130 -38c-48 0 -99.333 11 -154 33v61c46 -12 81.333 -18 106 -18c28 0 50.667 6 68 18c23.333 16.667 35 39.667 35 69c0 35.333 -19.333 60 -58 74
c-20 7.33301 -51.667 12 -95 14l76 140c-78 10.667 -144.333 39.334 -199 86.001c-105.333 90 -158 227 -158 411c0 157.333 39.667 284 119 380c74 90 169.333 135 286 135c80.667 0 150 -29 208 -87l55 104h36v-337h-46c-12.667 61.333 -28.667 110 -48 146
c-19.333 36.667 -45.833 65.667 -79.5 87s-69.834 32 -108.501 32c-85.333 0 -148 -45 -188 -135c-37.333 -84.667 -56 -192.667 -56 -324c0 -288.667 79.333 -433 238 -433c126 0 201.667 90 227 270h82c-11.333 -98.667 -40.333 -175.834 -87 -231.501
s-111 -89.834 -193 -102.501z" />
    <glyph glyph-name="egrave" unicode="&#xe8;" horiz-adv-x="939" 
d="M777 315h80c-8.66699 -78 -33.667 -145 -75 -201c-65.333 -89.333 -161 -134 -287 -134c-130 0 -230.333 44.667 -301 134c-75.333 95.333 -113 219 -113 371c0 150 37.667 272.333 113 367c72 90 168 135 288 135c93.333 0 173 -29.667 239 -89
c86 -78 131 -208.333 135 -391h-609c-0.666992 -18.667 -1 -33 -1 -43c0 -115.333 20 -213.333 60 -294c40.667 -81.333 111 -122 211 -122c99.333 0 172 43 218 129c20 37.333 34 83.333 42 138zM692 580c-10.667 236 -81.333 354 -212 354c-132.667 0 -209 -118 -229 -354
h441zM550.001 1129l-285 256h167l170 -256h-52z" />
    <glyph glyph-name="eacute" unicode="&#xe9;" horiz-adv-x="939" 
d="M777 315h80c-8.66699 -78 -33.667 -145 -75 -201c-65.333 -89.333 -161 -134 -287 -134c-130 0 -230.333 44.667 -301 134c-75.333 95.333 -113 219 -113 371c0 150 37.667 272.333 113 367c72 90 168 135 288 135c93.333 0 173 -29.667 239 -89
c86 -78 131 -208.333 135 -391h-609c-0.666992 -18.667 -1 -33 -1 -43c0 -115.333 20 -213.333 60 -294c40.667 -81.333 111 -122 211 -122c99.333 0 172 43 218 129c20 37.333 34 83.333 42 138zM692 580c-10.667 236 -81.333 354 -212 354c-132.667 0 -209 -118 -229 -354
h441zM553.001 1385h167l-285 -256h-52z" />
    <glyph glyph-name="ecircumflex" unicode="&#xea;" horiz-adv-x="939" 
d="M777 315h80c-8.66699 -78 -33.667 -145 -75 -201c-65.333 -89.333 -161 -134 -287 -134c-130 0 -230.333 44.667 -301 134c-75.333 95.333 -113 219 -113 371c0 150 37.667 272.333 113 367c72 90 168 135 288 135c93.333 0 173 -29.667 239 -89
c86 -78 131 -208.333 135 -391h-609c-0.666992 -18.667 -1 -33 -1 -43c0 -115.333 20 -213.333 60 -294c40.667 -81.333 111 -122 211 -122c99.333 0 172 43 218 129c20 37.333 34 83.333 42 138zM692 580c-10.667 236 -81.333 354 -212 354c-132.667 0 -209 -118 -229 -354
h441zM433.001 1332h96l205 -242h-67l-192 153l-192 -153h-56z" />
    <glyph glyph-name="edieresis" unicode="&#xeb;" horiz-adv-x="939" 
d="M777 315h80c-8.66699 -78 -33.667 -145 -75 -201c-65.333 -89.333 -161 -134 -287 -134c-130 0 -230.333 44.667 -301 134c-75.333 95.333 -113 219 -113 371c0 150 37.667 272.333 113 367c72 90 168 135 288 135c93.333 0 173 -29.667 239 -89
c86 -78 131 -208.333 135 -391h-609c-0.666992 -18.667 -1 -33 -1 -43c0 -115.333 20 -213.333 60 -294c40.667 -81.333 111 -122 211 -122c99.333 0 172 43 218 129c20 37.333 34 83.333 42 138zM692 580c-10.667 236 -81.333 354 -212 354c-132.667 0 -209 -118 -229 -354
h441zM300.001 1378c29.333 0 54.667 -10.667 76 -32s32 -47 32 -77c0 -30.667 -10.667 -56.667 -32 -78s-47 -32 -77 -32c-30.667 0 -56.667 10.667 -78 32c-21.333 22 -32 47.667 -32 77c0 31.333 10.667 57.333 32 78c22 21.333 48.333 32 79 32zM673.002 1378
c29.333 0 54.667 -10.667 76 -32s32 -47 32 -77c0 -30.667 -10.667 -56.667 -32 -78s-47 -32 -77 -32c-30.667 0 -56.667 10.667 -78 32c-21.333 22 -32 47.667 -32 77c0 31.333 10.667 57.333 32 78c22 21.333 48.333 32 79 32z" />
    <glyph glyph-name="igrave" unicode="&#xec;" horiz-adv-x="571" 
d="M372 1003l-0.00195312 -858.001c0 -33.333 4 -56.666 12 -69.999c16.667 -24 61.667 -37.333 135 -40v-41c-97.333 8 -173.666 12 -228.999 12s-131.666 -4 -228.999 -12v41c47.333 2 81.666 7 102.999 15c22.667 9.33301 36.334 25.333 41.001 48
c2 8.66699 3 24.334 3 47.001v648c0 39.333 -4 66.666 -12 81.999c-11.333 20 -34.333 31.667 -69 35c-16.667 2 -38 3 -64 3v35c110.667 10 213.667 28.333 309 55zM337.998 1129l-285 256h167l170 -256h-52z" />
    <glyph glyph-name="iacute" unicode="&#xed;" horiz-adv-x="571" 
d="M372 1003l-0.00195312 -858.001c0 -33.333 4 -56.666 12 -69.999c16.667 -24 61.667 -37.333 135 -40v-41c-97.333 8 -173.666 12 -228.999 12s-131.666 -4 -228.999 -12v41c47.333 2 81.666 7 102.999 15c22.667 9.33301 36.334 25.333 41.001 48
c2 8.66699 3 24.334 3 47.001v648c0 39.333 -4 66.666 -12 81.999c-11.333 20 -34.333 31.667 -69 35c-16.667 2 -38 3 -64 3v35c110.667 10 213.667 28.333 309 55zM348.998 1385h167l-285 -256h-52z" />
    <glyph glyph-name="icircumflex" unicode="&#xee;" horiz-adv-x="571" 
d="M371 1003v-858c0 -34 4 -57.333 12 -70c15.333 -23.333 60.333 -36.666 135 -39.999v-41c-94.667 8 -171 12 -229 12s-134.333 -4 -229 -12v41c47.333 2 81.333 7 102 15c23.333 9.33301 37.333 25.333 42 48c2 8.66699 3 24.334 3 47.001v648
c0 39.333 -4 66.666 -12 81.999c-11.333 20 -34.333 31.667 -69 35c-16.667 2 -38 3 -64 3v35c106.667 9.33301 209.667 27.666 309 54.999zM-6 1130l230 301h95l230 -301h-91l-187 177l-186 -177h-91z" />
    <glyph glyph-name="idieresis" unicode="&#xef;" horiz-adv-x="571" 
d="M372 1003l-0.00195312 -858.001c0 -33.333 4 -56.666 12 -69.999c16.667 -24 61.667 -37.333 135 -40v-41c-97.333 8 -173.666 12 -228.999 12s-131.666 -4 -228.999 -12v41c47.333 2 81.666 7 102.999 15c22.667 9.33301 36.334 25.333 41.001 48
c2 8.66699 3 24.334 3 47.001v648c0 39.333 -4 66.666 -12 81.999c-11.333 20 -34.333 31.667 -69 35c-16.667 2 -38 3 -64 3v35c110.667 10 213.667 28.333 309 55zM125.998 1405c28.667 0 53.333 -10.666 74 -31.999c21.333 -20.667 32 -46 32 -76
s-10.667 -55.333 -32 -76c-20.667 -21.333 -46 -32 -76 -32s-55.333 10.667 -76 32c-21.333 21.333 -32 46.666 -32 75.999c0 30 10.667 55.333 32 76c21.333 21.333 47.333 32 78 32zM430.997 1405c28 0 52.667 -10.666 74 -31.999c21.333 -20.667 32 -46 32 -76
s-10.667 -55.333 -32 -76c-20.667 -21.333 -46 -32 -76 -32s-55.333 10.667 -76 32c-21.333 21.333 -32 46.666 -32 75.999c0 30 10.667 55.333 32 76c21.333 21.333 47.333 32 78 32z" />
    <glyph glyph-name="eth" unicode="&#xf0;" horiz-adv-x="960" 
d="M303 1348l49.999 33.002l110 -137l160 101l38 -60l-150 -95l169 -212c65.333 -82 110.333 -150 135 -204c42.667 -90.667 64 -190.667 64 -300c0 -132.667 -32.333 -245 -97 -337c-72.667 -104 -172 -156 -298 -156c-117.333 0 -213.666 47 -288.999 141
c-76 95.333 -114 217.666 -114 366.999c0 139.333 34.333 254.666 103 345.999c76.667 100 176.667 150 300 150c18 0 37.667 -1.66699 59 -5l-106 163l-152 -95l-37 58l151 96zM473.999 932.002c-56.667 0 -104.667 -25.333 -144 -76c-51.333 -67.333 -77 -182 -77 -344
c0 -318.667 77.333 -478 232 -478c148.667 0 223 138.667 223 416c0 321.333 -78 482 -234 482z" />
    <glyph glyph-name="ntilde" unicode="&#xf1;" horiz-adv-x="1122" 
d="M62 907l-0.000976562 35.001c113.333 16 203.666 36.333 270.999 61c10 -36.667 17 -96 21 -178c72 107.333 164.333 161 277 161c110.667 0 193.667 -42 249 -126c33.333 -50 50 -124.333 50 -223v-492c0 -34 4 -57.333 12 -70c16 -24 61 -37.333 135 -40v-41
c-89.333 8 -164.333 12 -225 12s-134.334 -4 -221.001 -12v40c40.667 1.33301 72.334 7 95.001 17c20.667 10.667 33 26 37 46c2 8 3 23 3 45v502c0 81.333 -10.333 138.666 -31 171.999c-30.667 51.333 -81 77 -151 77c-72.667 0 -130 -27.667 -172 -83
c-27.333 -36.667 -41 -94.667 -41 -174v-494c0 -31.333 3.66699 -53.333 11 -66c16.667 -26 57.334 -40 122.001 -42v-40c-87.333 8 -161 12 -221 12c-59.333 0 -133.666 -4 -222.999 -12v41c47.333 2 81.666 7 102.999 15c22.667 9.33301 36.334 25.333 41.001 48
c2 8.66699 3 24.334 3 47.001v634c-0.666992 36 -2 60.333 -4 73c-4 29.333 -24 46.333 -60 51c-16.667 1.33301 -43.667 2.66602 -81 3.99902zM310.999 1191c14.667 55.333 33.667 95.332 57 119.999c29.333 30 63 44.333 101 43c40.667 0 79.667 -14.333 117 -43
c53.333 -37.333 94.666 -55.333 123.999 -54c38 2 67.333 33.667 88 95l35 -8c-9.33301 -56 -28.333 -98.333 -57 -127c-25.333 -28 -55.666 -43.333 -90.999 -46c-39.333 -1.33301 -88.666 20.334 -147.999 65.001c-32 23.333 -61 35 -87 35
c-42.667 0 -76.334 -30 -101.001 -90z" />
    <glyph glyph-name="ograve" unicode="&#xf2;" horiz-adv-x="960" 
d="M494 992c118 0 212 -49.332 282 -147.999c68.667 -97.333 103 -216.333 103 -357c0 -142.667 -35.333 -262.334 -106 -359.001c-73.333 -100 -171.333 -150 -294 -150s-220.667 50 -294 150c-69.333 94 -104 211.667 -104 353c0 150 37.667 272.333 113 367
c76 96 176 144 300 144zM480 939.001c-54 0 -100.666 -24.333 -139.999 -73c-58 -72 -87 -199.667 -87 -383c0 -301.333 75 -452 225 -452c61.333 0 111.666 26.667 150.999 80c52 71.333 78 194 78 368c0 306.667 -75.667 460 -227 460zM581.001 1129l-285 256h167
l170 -256h-52z" />
    <glyph glyph-name="oacute" unicode="&#xf3;" horiz-adv-x="960" 
d="M494 992c118 0 212 -49.332 282 -147.999c68.667 -97.333 103 -216.333 103 -357c0 -142.667 -35.333 -262.334 -106 -359.001c-73.333 -100 -171.333 -150 -294 -150s-220.667 50 -294 150c-69.333 94 -104 211.667 -104 353c0 150 37.667 272.333 113 367
c76 96 176 144 300 144zM480 939.001c-54 0 -100.666 -24.333 -139.999 -73c-58 -72 -87 -199.667 -87 -383c0 -301.333 75 -452 225 -452c61.333 0 111.666 26.667 150.999 80c52 71.333 78 194 78 368c0 306.667 -75.667 460 -227 460zM564.001 1385h167l-285 -256h-52z
" />
    <glyph glyph-name="ocircumflex" unicode="&#xf4;" horiz-adv-x="960" 
d="M494 992c118 0 212 -49.332 282 -147.999c68.667 -97.333 103 -216.333 103 -357c0 -142.667 -35.333 -262.334 -106 -359.001c-73.333 -100 -171.333 -150 -294 -150s-220.667 50 -294 150c-69.333 94 -104 211.667 -104 353c0 150 37.667 272.333 113 367
c76 96 176 144 300 144zM480 939.001c-54 0 -100.666 -24.333 -139.999 -73c-58 -72 -87 -199.667 -87 -383c0 -301.333 75 -452 225 -452c61.333 0 111.666 26.667 150.999 80c52 71.333 78 194 78 368c0 306.667 -75.667 460 -227 460zM430.001 1332h96l205 -242h-67
l-192 153l-192 -153h-56z" />
    <glyph glyph-name="otilde" unicode="&#xf5;" horiz-adv-x="960" 
d="M494 992c118 0 212 -49.332 282 -147.999c68.667 -97.333 103 -216.333 103 -357c0 -142.667 -35.333 -262.334 -106 -359.001c-73.333 -100 -171.333 -150 -294 -150s-220.667 50 -294 150c-69.333 94 -104 211.667 -104 353c0 150 37.667 272.333 113 367
c76 96 176 144 300 144zM480 939.001c-54 0 -100.666 -24.333 -139.999 -73c-58 -72 -87 -199.667 -87 -383c0 -301.333 75 -452 225 -452c61.333 0 111.666 26.667 150.999 80c52 71.333 78 194 78 368c0 306.667 -75.667 460 -227 460zM232.001 1182
c14.667 55.333 33.667 95.332 57 119.999c29.333 30 63 44.333 101 43c40.667 0 79.667 -14.333 117 -43c53.333 -37.333 94.666 -55.333 123.999 -54c38 2 67.333 33.667 88 95l35 -8c-9.33301 -56 -28.333 -98.333 -57 -127c-25.333 -28 -55.666 -43.333 -90.999 -46
c-39.333 -1.33301 -88.666 20.334 -147.999 65.001c-32 23.333 -61 35 -87 35c-42.667 0 -76.334 -30 -101.001 -90z" />
    <glyph glyph-name="odieresis" unicode="&#xf6;" horiz-adv-x="960" 
d="M494 992c118 0 212 -49.332 282 -147.999c68.667 -97.333 103 -216.333 103 -357c0 -142.667 -35.333 -262.334 -106 -359.001c-73.333 -100 -171.333 -150 -294 -150s-220.667 50 -294 150c-69.333 94 -104 211.667 -104 353c0 150 37.667 272.333 113 367
c76 96 176 144 300 144zM480 939.001c-54 0 -100.666 -24.333 -139.999 -73c-58 -72 -87 -199.667 -87 -383c0 -301.333 75 -452 225 -452c61.333 0 111.666 26.667 150.999 80c52 71.333 78 194 78 368c0 306.667 -75.667 460 -227 460zM297.001 1378
c29.333 0 54.667 -10.667 76 -32s32 -47 32 -77c0 -30.667 -10.667 -56.667 -32 -78s-47 -32 -77 -32c-30.667 0 -56.667 10.667 -78 32c-21.333 22 -32 47.667 -32 77c0 31.333 10.667 57.333 32 78c22 21.333 48.333 32 79 32zM670.002 1378
c29.333 0 54.667 -10.667 76 -32s32 -47 32 -77c0 -30.667 -10.667 -56.667 -32 -78s-47 -32 -77 -32c-30.667 0 -56.667 10.667 -78 32c-21.333 22 -32 47.667 -32 77c0 31.333 10.667 57.333 32 78c22 21.333 48.333 32 79 32z" />
    <glyph glyph-name="divide" unicode="&#xf7;" horiz-adv-x="1071" 
d="M110 631v119h852v-119h-852zM537 516c28 0 52.666 -10.333 73.999 -31c20.667 -20.667 31 -46 31 -76c0 -29.333 -10.333 -54.333 -31 -75s-45.667 -31 -75 -31s-54.666 10.333 -75.999 31c-20.667 21.333 -31 46.333 -31 75c0 30 10.333 55.333 31 76
c21.333 20.667 47 31 77 31zM536.999 1078c28 0 52.666 -10.333 73.999 -31c20.667 -20.667 31 -45.667 31 -75c0 -30 -10.333 -55.333 -31 -76c-21.333 -20.667 -46.333 -31 -75 -31c-29.333 0 -54.666 10.333 -75.999 31c-20.667 21.333 -31 46.333 -31 75
c0 30 10.333 55.333 31 76c21.333 20.667 47 31 77 31z" />
    <glyph glyph-name="oslash" unicode="&#xf8;" horiz-adv-x="960" 
d="M125 -6l-84 -0.000976562l125 157c-55.333 90 -83 196 -83 318c0 156.667 41.667 284.334 125 383.001c74.667 89.333 169.667 134 285 134c101.333 0 186.333 -35.667 255 -107l75 94h84l-117 -148c58 -92 87 -200.667 87 -326c0 -152 -39.333 -278 -118 -378
c-73.333 -93.333 -168 -140 -284 -140c-105.333 0 -194.333 38.667 -267 116zM287 186.999c14 -36.667 34.334 -67.001 61.001 -91.001c41.333 -37.333 85.666 -56 132.999 -56c34 0 66.5 10.333 97.5 31s55.833 48.667 74.5 84c42 80.667 63 189.334 63 326.001
c0 94.667 -8.33301 171 -25 229zM669.001 789.998c-35.333 91.333 -96.667 136.999 -184 136.999c-95.333 0 -163.333 -61 -204 -183c-24.667 -73.333 -37 -168.666 -37 -285.999c0 -68.667 7.66699 -132.667 23 -192z" />
    <glyph glyph-name="ugrave" unicode="&#xf9;" horiz-adv-x="1103" 
d="M341 1003v-683.994c0 -82 11.333 -140 34 -174c30.667 -46.667 81 -70 151 -70c77.333 0 135 29.333 173 88c25.333 38.667 38 100 38 184v446c0 39.333 -4 66.666 -12 81.999c-11.333 20 -34 31.667 -68 35c-18 2 -39.667 3 -65 3v35c106 9.33301 209 27.666 309 54.999
v-833c0 -34.667 4 -58 12 -70c10.667 -16.667 34.667 -26.334 72 -29.001c14.667 -0.666992 37.334 -1.33398 68.001 -2.00098v-36c-111.333 -10.667 -205.333 -28.667 -282 -54c-6 38 -10.333 100.333 -13 187c-26.667 -50.667 -54.334 -88.667 -83.001 -114
c-52.667 -46 -118.334 -69 -197.001 -69c-110 0 -192.667 38.333 -248 115c-35.333 49.333 -53 124.333 -53 225v470c0 39.333 -4 66.666 -12 81.999c-11.333 20 -34.333 31.667 -69 35c-17.333 2 -38.666 3 -63.999 3v35c106 9.33301 209 27.666 309 54.999zM620 1129.01
l-285 256h167l170 -256h-52z" />
    <glyph glyph-name="uacute" unicode="&#xfa;" horiz-adv-x="1103" 
d="M341 1003v-683.994c0 -82 11.333 -140 34 -174c30.667 -46.667 81 -70 151 -70c77.333 0 135 29.333 173 88c25.333 38.667 38 100 38 184v446c0 39.333 -4 66.666 -12 81.999c-11.333 20 -34 31.667 -68 35c-18 2 -39.667 3 -65 3v35c106 9.33301 209 27.666 309 54.999
v-833c0 -34.667 4 -58 12 -70c10.667 -16.667 34.667 -26.334 72 -29.001c14.667 -0.666992 37.334 -1.33398 68.001 -2.00098v-36c-111.333 -10.667 -205.333 -28.667 -282 -54c-6 38 -10.333 100.333 -13 187c-26.667 -50.667 -54.334 -88.667 -83.001 -114
c-52.667 -46 -118.334 -69 -197.001 -69c-110 0 -192.667 38.333 -248 115c-35.333 49.333 -53 124.333 -53 225v470c0 39.333 -4 66.666 -12 81.999c-11.333 20 -34.333 31.667 -69 35c-17.333 2 -38.666 3 -63.999 3v35c106 9.33301 209 27.666 309 54.999zM597 1385.01
h167l-285 -256h-52z" />
    <glyph glyph-name="ucircumflex" unicode="&#xfb;" horiz-adv-x="1103" 
d="M341 1003v-683.994c0 -82 11.333 -140 34 -174c30.667 -46.667 81 -70 151 -70c77.333 0 135 29.333 173 88c25.333 38.667 38 100 38 184v446c0 39.333 -4 66.666 -12 81.999c-11.333 20 -34 31.667 -68 35c-18 2 -39.667 3 -65 3v35c106 9.33301 209 27.666 309 54.999
v-833c0 -34.667 4 -58 12 -70c10.667 -16.667 34.667 -26.334 72 -29.001c14.667 -0.666992 37.334 -1.33398 68.001 -2.00098v-36c-111.333 -10.667 -205.333 -28.667 -282 -54c-6 38 -10.333 100.333 -13 187c-26.667 -50.667 -54.334 -88.667 -83.001 -114
c-52.667 -46 -118.334 -69 -197.001 -69c-110 0 -192.667 38.333 -248 115c-35.333 49.333 -53 124.333 -53 225v470c0 39.333 -4 66.666 -12 81.999c-11.333 20 -34.333 31.667 -69 35c-17.333 2 -38.666 3 -63.999 3v35c106 9.33301 209 27.666 309 54.999zM490 1332.01
h96l205 -242h-67l-192 153l-192 -153h-56z" />
    <glyph glyph-name="udieresis" unicode="&#xfc;" horiz-adv-x="1103" 
d="M341 1003v-683.994c0 -82 11.333 -140 34 -174c30.667 -46.667 81 -70 151 -70c77.333 0 135 29.333 173 88c25.333 38.667 38 100 38 184v446c0 39.333 -4 66.666 -12 81.999c-11.333 20 -34 31.667 -68 35c-18 2 -39.667 3 -65 3v35c106 9.33301 209 27.666 309 54.999
v-833c0 -34.667 4 -58 12 -70c10.667 -16.667 34.667 -26.334 72 -29.001c14.667 -0.666992 37.334 -1.33398 68.001 -2.00098v-36c-111.333 -10.667 -205.333 -28.667 -282 -54c-6 38 -10.333 100.333 -13 187c-26.667 -50.667 -54.334 -88.667 -83.001 -114
c-52.667 -46 -118.334 -69 -197.001 -69c-110 0 -192.667 38.333 -248 115c-35.333 49.333 -53 124.333 -53 225v470c0 39.333 -4 66.666 -12 81.999c-11.333 20 -34.333 31.667 -69 35c-17.333 2 -38.666 3 -63.999 3v35c106 9.33301 209 27.666 309 54.999zM356 1378.01
c29.333 0 54.667 -10.667 76 -32s32 -47 32 -77c0 -30.667 -10.667 -56.667 -32 -78s-47 -32 -77 -32c-30.667 0 -56.667 10.667 -78 32c-21.333 22 -32 47.667 -32 77c0 31.333 10.667 57.333 32 78c22 21.333 48.333 32 79 32zM729.001 1378.01
c29.333 0 54.667 -10.667 76 -32s32 -47 32 -77c0 -30.667 -10.667 -56.667 -32 -78s-47 -32 -77 -32c-30.667 0 -56.667 10.667 -78 32c-21.333 22 -32 47.667 -32 77c0 31.333 10.667 57.333 32 78c22 21.333 48.333 32 79 32z" />
    <glyph glyph-name="yacute" unicode="&#xfd;" horiz-adv-x="1022" 
d="M478 33l-301.996 804.001c-16 41.333 -36.333 67.666 -61 78.999c-20 8 -51.333 13.333 -94 16v41c78 -6.66699 147.667 -10 209 -10s131 3.33301 209 10v-41c-22.667 -1.33301 -42.334 -3.33301 -59.001 -6c-32 -5.33301 -48 -18 -48 -38c0 -6.66699 5 -24.667 15 -54
l215 -591l224 585c11.333 28.667 17 47.667 17 57c0 22 -15.333 35.667 -46 41c-18.667 3.33301 -42.334 5.33301 -71.001 6v41c51.333 -5.33301 102 -8 152 -8c51.333 0 110 2.66699 176 8v-41c-34.667 -4 -63.334 -10.667 -86.001 -20
c-30.667 -14.667 -53.667 -41.667 -69 -81l-387 -1000c-35.333 -91.333 -80.333 -154.333 -135 -189c-44.667 -28 -98.667 -42 -162 -42c-6 0 -15.667 0.333008 -29 1v103c47.333 0 85.666 4.66699 114.999 14c64 20 115.333 74.333 154 163zM608.004 1385h167l-285 -256
h-52z" />
    <glyph glyph-name="thorn" unicode="&#xfe;" horiz-adv-x="1068" 
d="M356 842c60 95.333 141.332 142.998 243.999 142.998c112.667 0 205 -47 277 -141c73.333 -94 110 -214 110 -360c0 -144 -34.667 -263.333 -104 -358c-70.667 -96 -162.667 -144 -276 -144c-72 0 -130.333 20.667 -175 62c-22.667 20 -48 52 -76 96v-399
c0 -33.333 4 -56.666 12 -69.999c16 -23.333 60.667 -36.666 134 -39.999v-41c-93.333 8 -169.333 12 -228 12c-58 0 -134.333 -4 -229 -12v41c47.333 2 81.666 7 102.999 15c22.667 9.33301 36.334 25.333 41.001 48c2 8.66699 3 24.334 3 47.001v1437
c0 39.333 -4 66.666 -12 81.999c-11.333 20 -34.333 32 -69 36c-17.333 1.33301 -38.666 2 -63.999 2v36c110 9.33301 213 27.333 309 54v-546zM578.999 927.998c-52.667 0 -99 -22.667 -139 -68c-57.333 -64 -86 -185.667 -86 -365c0 -304 78.333 -456 235 -456
c150.667 0 226 146 226 438c0 300.667 -78.667 451 -236 451z" />
    <glyph glyph-name="ydieresis" unicode="&#xff;" horiz-adv-x="1022" 
d="M478 33l-301.996 804.001c-16 41.333 -36.333 67.666 -61 78.999c-20 8 -51.333 13.333 -94 16v41c78 -6.66699 147.667 -10 209 -10s131 3.33301 209 10v-41c-22.667 -1.33301 -42.334 -3.33301 -59.001 -6c-32 -5.33301 -48 -18 -48 -38c0 -6.66699 5 -24.667 15 -54
l215 -591l224 585c11.333 28.667 17 47.667 17 57c0 22 -15.333 35.667 -46 41c-18.667 3.33301 -42.334 5.33301 -71.001 6v41c51.333 -5.33301 102 -8 152 -8c51.333 0 110 2.66699 176 8v-41c-34.667 -4 -63.334 -10.667 -86.001 -20
c-30.667 -14.667 -53.667 -41.667 -69 -81l-387 -1000c-35.333 -91.333 -80.333 -154.333 -135 -189c-44.667 -28 -98.667 -42 -162 -42c-6 0 -15.667 0.333008 -29 1v103c47.333 0 85.666 4.66699 114.999 14c64 20 115.333 74.333 154 163zM358.004 1378
c29.333 0 54.667 -10.667 76 -32s32 -47 32 -77c0 -30.667 -10.667 -56.667 -32 -78s-47 -32 -77 -32c-30.667 0 -56.667 10.667 -78 32c-21.333 22 -32 47.667 -32 77c0 31.333 10.667 57.333 32 78c22 21.333 48.333 32 79 32zM731.005 1378
c29.333 0 54.667 -10.667 76 -32s32 -47 32 -77c0 -30.667 -10.667 -56.667 -32 -78s-47 -32 -77 -32c-30.667 0 -56.667 10.667 -78 32c-21.333 22 -32 47.667 -32 77c0 31.333 10.667 57.333 32 78c22 21.333 48.333 32 79 32z" />
    <glyph glyph-name="Abreve" unicode="&#x102;" horiz-adv-x="1316" 
d="M844 395l-476.001 -0.000976562l-68 -192c-16.667 -46.667 -25 -78.667 -25 -96c0 -28.667 18.333 -47 55 -55c17.333 -4 44 -6.66699 80 -8v-50c-78 7.33301 -143 11 -195 11s-117 -3.66699 -195 -11v50c60.667 4 102.334 13.333 125.001 28
c24.667 17.333 48.667 56 72 116l467 1221l421 -1244c20 -56 46.667 -90 80 -102c24 -9.33301 60.667 -15.666 110 -18.999v-50c-94 10 -177 15 -249 15c-72.667 0 -156 -5 -250 -15v50c36.667 2.66699 65 7 85 13c30.667 8.66699 46 24.667 46 48c0 18 -4.33301 41 -13 69z
M391.999 458.999h432l-199 627zM929.999 1715c-12 -66.667 -38.334 -121.999 -79.001 -165.999c-45.333 -45.333 -100.666 -68 -165.999 -68c-62.667 0 -118 24 -166 72c-40 42.667 -66.667 96.667 -80 162h41c20.667 -46.667 49 -83.334 85 -110.001
c36.667 -25.333 76.667 -38 120 -38c42.667 0 82 12.667 118 38c39.333 28 67 64.667 83 110h44z" />
    <glyph glyph-name="abreve" unicode="&#x103;" horiz-adv-x="955" 
d="M639 161c-27.333 -49.333 -53.668 -85.668 -79.001 -109.001c-49.333 -46.667 -114.666 -70 -195.999 -70c-82 0 -149.333 23.667 -202 71c-55.333 50 -83 114 -83 192c0 122.667 77.667 216.334 233 281.001c88 36.667 189 62.334 303 77.001v122
c0 68.667 -10.333 117.334 -31 146.001c-29.333 40 -75.333 60 -138 60c-53.333 0 -98.333 -14.333 -135 -43c-23.333 -19.333 -35 -45 -35 -77v-18c0.666992 -12 1 -22 1 -30c0 -60.667 -27.667 -91 -83 -91c-45.333 0 -68 23 -68 69c0 62.667 30 117.667 90 165
c68 53.333 150 80 246 80c66.667 0 126.667 -14.333 180 -43c66 -36 107.333 -87.667 124 -155c8.66699 -34.667 13 -81.334 13 -140.001v-418c0 -64.667 5 -111.334 15 -140.001s31.667 -43 65 -43c12.667 0 30 2.33301 52 7v-54c-46 -9.33301 -84.333 -14 -115 -14
c-58 0 -100 21 -126 63c-16 26 -26.333 63.333 -31 112zM614.998 549.998c-93.333 -16.667 -170 -40.002 -230 -70.002c-93.333 -47.333 -140 -121.666 -140 -222.999c0 -59.333 16 -105.666 48 -138.999c29.333 -31.333 70 -47 122 -47c88 0 147.333 40.333 178 121
c14.667 39.333 22 99.333 22 180v178zM723.998 1337c-12 -66.667 -38.334 -121.999 -79.001 -165.999c-45.333 -45.333 -100.666 -68 -165.999 -68c-62.667 0 -118 24 -166 72c-40 42.667 -66.667 96.667 -80 162h41c20.667 -46.667 49 -83.334 85 -110.001
c36.667 -25.333 76.667 -38 120 -38c42.667 0 82 12.667 118 38c39.333 28 67 64.667 83 110h44z" />
    <glyph glyph-name="Dcroat" unicode="&#x110;" horiz-adv-x="1301" 
d="M226 680h-169.001v75h169v424c0 42 -4 70.333 -12 85c-18 29.333 -70.333 46.333 -157 51v50h502c123.333 0 221 -16 293 -48c113.333 -50.667 202.333 -140.667 267 -270c56 -110.667 84 -232 84 -364c0 -151.333 -36.333 -288 -109 -410
c-75.333 -126.667 -180.666 -209 -315.999 -247c-62 -17.333 -135.333 -26 -220 -26h-501v50c57.333 4 97 10.667 119 20c27.333 12 43 31.667 47 59c2 10.667 3 29.667 3 57v494zM399.999 1302l-0.000976562 -546.999h312v-75h-312v-514
c0 -34.667 2.66699 -57.334 8 -68.001c10 -20 31.333 -32 64 -36c14 -2 35.333 -3 64 -3c150.667 0 262.334 38.667 335.001 116c100 106.667 150 277 150 511c0 216 -44.667 378.667 -134 488c-69.333 85.333 -177.333 128 -324 128h-163z" />
    <glyph glyph-name="dcroat" unicode="&#x111;" horiz-adv-x="1051" 
d="M1014 33c-57.333 -6.66699 -108.164 -14.498 -152.497 -23.498s-83.833 -18.833 -118.5 -29.5c-6.66699 26.667 -12.334 53.667 -17.001 81s-8.33398 54.666 -11.001 81.999c-54.667 -112 -138.667 -168 -252 -168c-124.667 0 -221.667 54.667 -291 164
c-60 97.333 -90 210 -90 338c0 130 29.333 241.333 88 334c66.667 112 161.667 168 285 168c70.667 0 128 -20.333 172 -61c21.333 -20.667 45.666 -53.667 72.999 -99v275h-303v58l303 -2v28c0 39.333 -4 66.666 -12 81.999c-9.33301 20 -32.666 32 -69.999 36
c-6.66699 1.33301 -15.334 2 -26.001 2h-37v35c109.333 10 212.333 28.667 309 56v-237h133v-58h-133v-885c0 -39.333 2 -67.333 6 -84c6 -24.667 22.667 -40.334 50 -47.001c9.33301 -2.66699 21.833 -4.66699 37.5 -6s34.5 -2.66602 56.5 -3.99902v-35zM702.002 463.002
c0 306 -77.666 459 -232.999 459c-143.333 0 -215 -147.667 -215 -443c0 -122.667 14.333 -223.667 43 -303c34 -95.333 94.667 -143 182 -143c53.333 0 99.666 22.333 138.999 67c56 64.667 84 185.667 84 363z" />
    <glyph glyph-name="Itilde" unicode="&#x128;" horiz-adv-x="642" 
d="M234 180l0.000976562 1005c0 42 -4 70.333 -12 85c-12 22.667 -40.333 37.334 -85 44.001c-18 2.66699 -42 5 -72 7v50c104 -10 189.333 -15 256 -15s152 5 256 15v-50c-57.333 -4 -97 -10.667 -119 -20c-26.667 -12 -42.334 -31.667 -47.001 -59
c-2 -10.667 -3 -29.667 -3 -57v-1005c0 -42.667 4 -71 12 -85c12 -22.667 40.333 -37.334 85 -44.001c16.667 -2 40.667 -4.33301 72 -7v-50c-108.667 10 -194 15 -256 15s-147.333 -5 -256 -15v50c58 4.66699 97.667 11.334 119 20.001c27.333 12.667 43 32.334 47 59.001
c2 10.667 3 29.667 3 57zM63.001 1559c14.667 55.333 33.667 95.332 57 119.999c29.333 30 63 44.333 101 43c40.667 0 79.667 -14.333 117 -43c53.333 -37.333 94.666 -55.333 123.999 -54c38 2 67.333 33.667 88 95l35 -8c-9.33301 -56 -28.333 -98.333 -57 -127
c-25.333 -28 -55.666 -43.333 -90.999 -46c-39.333 -1.33301 -88.666 20.334 -147.999 65.001c-32 23.333 -61 35 -87 35c-42.667 0 -76.334 -30 -101.001 -90z" />
    <glyph glyph-name="itilde" unicode="&#x129;" horiz-adv-x="571" 
d="M372 1003l-0.00195312 -858.001c0 -33.333 4 -56.666 12 -69.999c16.667 -24 61.667 -37.333 135 -40v-41c-97.333 8 -173.666 12 -228.999 12s-131.666 -4 -228.999 -12v41c47.333 2 81.666 7 102.999 15c22.667 9.33301 36.334 25.333 41.001 48
c2 8.66699 3 24.334 3 47.001v648c0 39.333 -4 66.666 -12 81.999c-11.333 20 -34.333 31.667 -69 35c-16.667 2 -38 3 -64 3v35c110.667 10 213.667 28.333 309 55zM14.998 1181c14.667 55.333 33.667 95.332 57 119.999c29.333 30 63 44.333 101 43
c40.667 0 79.667 -14.333 117 -43c53.333 -37.333 94.666 -55.333 123.999 -54c38 2 67.333 33.667 88 95l35 -8c-9.33301 -56 -28.333 -98.333 -57 -127c-25.333 -28 -55.666 -43.333 -90.999 -46c-39.333 -1.33301 -88.666 20.334 -147.999 65.001
c-32 23.333 -61 35 -87 35c-42.667 0 -76.334 -30 -101.001 -90z" />
    <glyph glyph-name="dotlessi" unicode="&#x131;" horiz-adv-x="571" 
d="M372 1003l-0.00195312 -858.001c0 -33.333 4 -56.666 12 -69.999c16.667 -24 61.667 -37.333 135 -40v-41c-97.333 8 -173.666 12 -228.999 12s-131.666 -4 -228.999 -12v41c47.333 2 81.666 7 102.999 15c22.667 9.33301 36.334 25.333 41.001 48
c2 8.66699 3 24.334 3 47.001v648c0 39.333 -4 66.666 -12 81.999c-11.333 20 -34.333 31.667 -69 35c-16.667 2 -38 3 -64 3v35c110.667 10 213.667 28.333 309 55z" />
    <glyph glyph-name="Lslash" unicode="&#x141;" horiz-adv-x="1035" 
d="M234 606l-169 -102.002v86l169 101v494c0 42 -4 70.333 -12 85c-12 22.667 -40.333 37.334 -85 44.001c-18 2.66699 -42 5 -72 7v50c103.333 -10 188.666 -15 255.999 -15c66.667 0 152 5 256 15v-50c-57.333 -4 -97 -10.667 -119 -20
c-26.667 -12 -42.334 -31.667 -47.001 -59c-2 -10.667 -3 -29.667 -3 -57v-414l288 168v-85l-288 -169v-495c0 -37.333 3 -61.333 9 -72c14.667 -32 57.334 -48.333 128.001 -49h145c63.333 0.666992 110 8.66699 140 24c28 14.667 53.833 42.334 77.5 83.001
s43.834 92 60.501 154h47l-47 -330h-903v50c57.333 4 97 10.667 119 20c27.333 12 43 31.667 47 59c2 10.667 3 29.667 3 57v420z" />
    <glyph glyph-name="lslash" unicode="&#x142;" horiz-adv-x="559" 
d="M368 1388l-0.000976562 -579.001l146 87v-86l-146 -87v-578c0 -34 4 -57.333 12 -70c15.333 -23.333 60.333 -36.666 135 -39.999v-41c-94.667 8 -171 12 -229 12c-58.667 0 -135 -4 -229 -12v41c47.333 2 81.666 7 102.999 15c22.667 9.33301 36.334 25.333 41.001 48
c2 8.66699 3 24.334 3 47.001v501l-146 -87v85l146 88v446c0 39.333 -4 66.666 -12 81.999c-11.333 20 -34.333 32 -69 36c-17.333 1.33301 -38.666 2 -63.999 2v36c110.667 9.33301 213.667 27.333 309 54z" />
    <glyph glyph-name="OE" unicode="&#x152;" horiz-adv-x="1883" 
d="M1013 1158l0.000976562 207h723l36 -307h-46c-23.333 92.667 -51 156 -83 190c-32 35.333 -85.333 53.333 -160 54h-314v-561h311c37.333 0 63 6 77 18c25.333 23.333 40 73.666 44 150.999h50v-402h-50c-2.66699 62 -12.334 105.667 -29.001 131
c-18 26 -52.333 39 -103 39h-300v-494c0 -36.667 3.33301 -61 10 -73c16 -31.333 62.333 -47.333 139 -48h151c63.333 0.666992 110 9 140 25c58.667 27.333 104.667 108 138 242h47l-47 -330h-734v207c-87.333 -153.333 -212.333 -230 -375 -230
c-114.667 0 -217 35.667 -307 107c-86 68 -149.333 167 -190 297c-28.667 93.333 -43 196 -43 308c0 188 41.333 345.667 124 473c46 70.667 105.333 126.334 178 167.001c72 39.333 149.333 59 232 59c166.667 0 293.667 -76.667 381 -230zM642.001 1330
c-92 0 -170.334 -40.667 -235.001 -122c-84.667 -106.667 -127 -280.334 -127 -521.001c0 -175.333 24.333 -320.666 73 -435.999c26.667 -62.667 65.334 -114 116.001 -154c51.333 -41.333 112.333 -62 183 -62c96 0 174 39 234 117c84.667 110.667 127 287.667 127 531
c0 172.667 -22.667 314 -68 424c-61.333 148.667 -162.333 223 -303 223z" />
    <glyph glyph-name="oe" unicode="&#x153;" horiz-adv-x="1564" 
d="M1401 315l81.999 -0.00195312c-9.33301 -77.333 -34.666 -144 -75.999 -200c-65.333 -89.333 -161 -134 -287 -134c-135.333 0 -247 57 -335 171c-81.333 -113.333 -183.666 -170 -306.999 -170c-121.333 0 -219 49.333 -293 148c-69.333 92.667 -104 209.667 -104 351
c0 146.667 37.667 267.334 113 362.001c75.333 95.333 173.666 143 294.999 143c120 0 219.333 -56 298 -168c38.667 54 85.5 95.5 140.5 124.5s113.833 43.5 176.5 43.5c94.667 0 175 -29.667 241 -89c89.333 -80 134.666 -217.667 135.999 -413h-614
c2.66699 -117.333 14.334 -204.666 35.001 -261.999c42 -115.333 120.667 -173 236 -173c100.667 0 174 42.667 220 128c20.667 36.667 35 82.667 43 138zM479.999 932.998c-54 0 -100.667 -24.001 -140 -72.001c-58 -71.333 -87 -197.666 -87 -378.999
c0 -298 75 -447 225 -447c152.667 0 229 148.333 229 445c0 302 -75.667 453 -227 453zM1317 560.997c-8.66699 251.333 -80.332 377.001 -214.999 377.001c-100.667 0 -169.334 -67 -206.001 -201c-12 -42.667 -21.333 -101.334 -28 -176.001h449z" />
    <glyph glyph-name="Scaron" unicode="&#x160;" horiz-adv-x="1063" 
d="M119 413l48 0.000976562c40.667 -244.667 161 -367 361 -367c87.333 0 157 27 209 81c49.333 51.333 74 114.333 74 189c0 82 -30.667 146 -92 192c-30.667 23.333 -96 60.666 -196 111.999c-153.333 78 -249.333 135.333 -288 172c-62.667 58 -94 135.333 -94 232
c0 110 37.333 198 112 264c71.333 64 164 96 278 96c103.333 0 192.333 -35.333 267 -106l61 114h37v-377h-48c-16.667 72.667 -39 132 -67 178c-52 86 -130 129 -234 129c-76.667 0 -139.334 -25.667 -188.001 -77c-46.667 -48.667 -70 -106.667 -70 -174
c0 -76.667 38.667 -139 116 -187c32 -20 98.667 -55.667 200 -107c110.667 -56 188.334 -101 233.001 -135c82.667 -62.667 124 -152.667 124 -270c0 -116.667 -39.333 -211.667 -118 -285c-75.333 -70.667 -172.333 -106 -291 -106c-122 0 -229.667 39.667 -323 119
l-74 -131h-37v444zM885 1758l-290 -277h-116l-290 277h102l246 -171l247 171h101z" />
    <glyph glyph-name="scaron" unicode="&#x161;" horiz-adv-x="872" 
d="M109 -24v342.002h45c11.333 -58 26.333 -105.667 45 -143c20.667 -40.667 50.834 -72.834 90.501 -96.501s83.167 -35.5 130.5 -35.5c62.667 0 114.667 19 156 57c37.333 35.333 56 77.666 56 126.999c0 50 -22 89.667 -66 119c-24.667 16.667 -75.667 42.667 -153 78
c-82 37.333 -132.667 61 -152 71c-92.667 48.667 -139 121 -139 217c0 82.667 28.667 148.334 86 197.001c60 50.667 134 76 222 76c73.333 0 143.333 -21.667 210 -65l34 84h36v-318h-46c-17.333 160.667 -89 241 -215 241c-59.333 0 -107.666 -18.667 -144.999 -56
c-32.667 -32 -49 -69.667 -49 -113c0 -39.333 14.333 -72.333 43 -99c19.333 -18 62.666 -42 129.999 -72l132 -58c67.333 -29.333 116.666 -59.333 147.999 -90c41.333 -40 62 -94.667 62 -164c0 -80.667 -28 -148.334 -84 -203.001c-62 -60.667 -143.667 -91 -245 -91
c-90 0 -172.333 28.667 -247 86l-49 -91h-36zM756 1425l-269 -299h-99l-269 299h97l221 -177l221 177h98z" />
    <glyph glyph-name="Utilde" unicode="&#x168;" horiz-adv-x="1361" 
d="M1138 1185l0.00195312 -749.004c0 -85.333 -8 -151 -24 -197c-31.333 -89.333 -88 -156.666 -170 -201.999c-72.667 -40 -160.667 -60 -264 -60c-154.667 0 -274.667 46.333 -360 139c-46 50 -75 107 -87 171c-6.66699 38 -10 82.333 -10 133v765c0 42 -4 70.333 -12 85
c-12 22.667 -40.333 37.334 -85 44.001c-18 2.66699 -42 5 -72 7v50c104 -10 189.333 -15 256 -15s152 5 256 15v-50c-57.333 -4 -97 -10.667 -119 -20c-26.667 -12 -42.334 -31.667 -47.001 -59c-2 -10.667 -3 -29.667 -3 -57v-782c0 -81.333 8 -140.333 24 -177
c25.333 -57.333 69 -99.333 131 -126c47.333 -21.333 103.333 -32 168 -32c68 0 128.5 11.833 181.5 35.5s92.833 56.834 119.5 99.501c32 50.667 48 125 48 223v759c0 42 -4 70.333 -12 85c-12 22.667 -40.333 37.334 -85 44.001c-18 2.66699 -42 5 -72 7v50
c93.333 -6.66699 162.666 -10 207.999 -10c46.667 0 113 3.33301 199 10v-50c-57.333 -4 -97 -10.667 -119 -20c-27.333 -12 -43 -31.667 -47 -59c-2 -10 -3 -29 -3 -57zM449.002 1569c14.667 55.333 33.667 95.332 57 119.999c29.333 30 63 44.333 101 43
c40.667 0 79.667 -14.333 117 -43c53.333 -37.333 94.666 -55.333 123.999 -54c38 2 67.333 33.667 88 95l35 -8c-9.33301 -56 -28.333 -98.333 -57 -127c-25.333 -28 -55.666 -43.333 -90.999 -46c-39.333 -1.33301 -88.666 20.334 -147.999 65.001
c-32 23.333 -61 35 -87 35c-42.667 0 -76.334 -30 -101.001 -90z" />
    <glyph glyph-name="utilde" unicode="&#x169;" horiz-adv-x="1103" 
d="M341 1003v-683.994c0 -82 11.333 -140 34 -174c30.667 -46.667 81 -70 151 -70c77.333 0 135 29.333 173 88c25.333 38.667 38 100 38 184v446c0 39.333 -4 66.666 -12 81.999c-11.333 20 -34 31.667 -68 35c-18 2 -39.667 3 -65 3v35c106 9.33301 209 27.666 309 54.999
v-833c0 -34.667 4 -58 12 -70c10.667 -16.667 34.667 -26.334 72 -29.001c14.667 -0.666992 37.334 -1.33398 68.001 -2.00098v-36c-111.333 -10.667 -205.333 -28.667 -282 -54c-6 38 -10.333 100.333 -13 187c-26.667 -50.667 -54.334 -88.667 -83.001 -114
c-52.667 -46 -118.334 -69 -197.001 -69c-110 0 -192.667 38.333 -248 115c-35.333 49.333 -53 124.333 -53 225v470c0 39.333 -4 66.666 -12 81.999c-11.333 20 -34.333 31.667 -69 35c-17.333 2 -38.666 3 -63.999 3v35c106 9.33301 209 27.666 309 54.999zM290 1191.01
c14.667 55.333 33.667 95.332 57 119.999c29.333 30 63 44.333 101 43c40.667 0 79.667 -14.333 117 -43c53.333 -37.333 94.666 -55.333 123.999 -54c38 2 67.333 33.667 88 95l35 -8c-9.33301 -56 -28.333 -98.333 -57 -127c-25.333 -28 -55.666 -43.333 -90.999 -46
c-39.333 -1.33301 -88.666 20.334 -147.999 65.001c-32 23.333 -61 35 -87 35c-42.667 0 -76.334 -30 -101.001 -90z" />
    <glyph glyph-name="Ydieresis" unicode="&#x178;" horiz-adv-x="1211" 
d="M523 595l-304.001 605c-26 51.333 -54 84.333 -84 99c-23.333 10.667 -59 18 -107 22v50c92 -9.33301 176 -14 252 -14s159.667 4.66699 251 14v-50c-34 -2 -62.333 -5 -85 -9c-38.667 -6.66699 -58 -22.334 -58 -47.001c0 -13.333 7 -34 21 -62l262 -520l261 523
c13.333 26 20 46 20 60c0 24.667 -18.333 40.334 -55 47.001c-20 3.33301 -48 6 -84 8v50c75.333 -6.66699 138.333 -10 189 -10s113.667 3.33301 189 10v-50c-47.333 -5.33301 -82 -12.333 -104 -21c-30.667 -13.333 -58 -43 -82 -89l-308 -616v-415
c0 -44.667 3.66699 -73.334 11 -86.001c20 -28 72.667 -44.667 158 -50v-50c-108.667 10 -194 15 -256 15c-62.667 0 -148 -5 -256 -15v50c56.667 4 96.334 10.667 119.001 20c28 12.667 43.667 32.334 47 59.001c2 11.333 3 30.333 3 57v415zM473.999 1739
c30.667 0 57.333 -11.333 80 -34s34 -50 34 -82s-11.333 -59.333 -34 -82s-50 -34 -82 -34s-59.333 11.333 -82 34s-34 50 -34 82c0 32.667 11.333 60 34 82c23.333 22.667 51.333 34 84 34zM838.998 1739c30.667 0 57.333 -11.333 80 -34s34 -50 34 -82
s-11.333 -59.333 -34 -82s-50 -34 -82 -34s-59.333 11.333 -82 34s-34 50 -34 82c0 32.667 11.333 60 34 82c23.333 22.667 51.333 34 84 34z" />
    <glyph glyph-name="Zcaron" unicode="&#x17d;" horiz-adv-x="1102" 
d="M64 0l739.999 1302h-343c-56 -0.666992 -98.667 -8 -128 -22c-61.333 -29.333 -106.333 -101.333 -135 -216h-53l55 301h833l-739 -1302h387c66.667 0 113.334 6.33301 140.001 19c62 28 117.667 111.667 167 251h50l-61 -333h-913zM964.999 1759l-290 -277h-116
l-290 277h102l246 -171l247 171h101z" />
    <glyph glyph-name="zcaron" unicode="&#x17e;" horiz-adv-x="915" 
d="M69 0l554.998 913.999h-227c-47.333 0 -83.666 -6 -108.999 -18c-36.667 -17.333 -68 -54 -94 -110c-9.33301 -20 -21.333 -48.333 -36 -85h-42l46 266h680l-557 -914h241c62.667 0.666992 107 10.334 133 29.001c50.667 36 92.334 107 125.001 213h42l-53 -295h-704z
M819.998 1414l-269 -299h-99l-269 299h97l221 -177l221 177h98z" />
    <glyph glyph-name="florin" unicode="&#x192;" horiz-adv-x="1071" 
d="M883 966l-3 -77h-222l-116 -656c-32 -178.667 -69.333 -300 -112 -364c-58 -86.667 -139 -130 -243 -130c-66 0 -118 17 -156 51c-33.333 29.333 -50 66 -50 110c0 27.333 7.66699 49.333 23 66c15.333 17.333 35.666 26 60.999 26c22 0 39.667 -6.66699 53 -20
c11.333 -10.667 17 -24.334 17 -41.001c0 -10.667 -3 -25 -9 -43c-5.33301 -16 -8 -28.333 -8 -37c0 -16 7 -28.333 21 -37c12.667 -8 27.334 -12 44.001 -12c49.333 0 88 27.667 116 83c18.667 38 36.334 104.667 53.001 200l143 804h-143l3 67h31
c52.667 0 87.334 6.66699 104.001 20c15.333 13.333 29.666 49 42.999 107c14 61.333 24.667 105 32 131c22 76 60 134.333 114 175c53.333 40 117.666 60 192.999 60c58.667 0 105.334 -14.667 140.001 -44c32.667 -27.333 49 -62.666 49 -105.999
c0 -62.667 -26.333 -94 -79 -94c-22.667 0 -41.334 6 -56.001 18c-12.667 10.667 -19 24.667 -19 42c0 10 2.66699 23.333 8 40c5.33301 18 8 31 8 39c0 28 -19 42 -57 42c-80 0 -132 -66.667 -156 -200l-39 -220h212z" />
    <glyph glyph-name="Ohorn" unicode="&#x1a0;" horiz-adv-x="1294" 
d="M1196 682c0 -190 -42.332 -351.669 -126.999 -485.002c-94 -149.333 -233.333 -224 -418 -224c-126.667 0 -236.334 38.333 -329.001 115c-84.667 74 -146.334 174.333 -185.001 301c-26 87.333 -39 185 -39 293c0 196.667 41.667 357 125 481c100 152 244 228 432 228
c96 0 181.333 -23.333 256 -70c41.333 46.667 62 89 62 127h-6h-15c-53.333 12 -73.666 44.667 -60.999 98c10.667 48 40.667 72 90 72c66.667 0 98.667 -34 96 -102c-2.66699 -60.667 -34.667 -127 -96 -199c-2.66699 -5.33301 -6 -10.166 -10 -14.499
s-9 -9.16602 -15 -14.499c94.667 -70.667 161 -173 199 -307c27.333 -90 41 -189.667 41 -299zM1012 685.998c0 174.667 -23.333 317.331 -70 427.998c-60 146 -159.667 219 -299 219c-90 0 -166.333 -39.667 -229 -119c-87.333 -107.333 -131 -282.666 -131 -525.999
c0 -168 23.667 -312 71 -432c60 -150 159 -225 297 -225c180.667 0 294 131.667 340 395c14 76.667 21 163.334 21 260.001z" />
    <glyph glyph-name="ohorn" unicode="&#x1a1;" horiz-adv-x="961" 
d="M879 487c0 -134.667 -32.332 -250.002 -96.999 -346.002c-72 -109.333 -173 -164 -303 -164c-128 0 -229 54 -303 162c-62.667 91.333 -94 205.333 -94 342c0 139.333 32.667 256 98 350c75.333 106.667 180 160 314 160c86 0 158.333 -25.333 217 -76
c40.667 46.667 61 90.667 61 132l-4 2c-6.66699 -3.33301 -11.334 -3.33301 -14.001 0c-54.667 12 -76 44.667 -64 98c11.333 48 41.333 72 90 72c67.333 0 99.666 -34.333 96.999 -103c0 -61.333 -31.667 -127.333 -95 -198
c-5.33301 -7.33301 -10.666 -13.666 -15.999 -18.999l-18 -18c87.333 -97.333 131 -228.666 131 -393.999zM707.001 478.998c0 306 -76.001 459 -228.001 459c-53.333 0 -99.666 -24 -138.999 -72c-57.333 -72 -86 -199.667 -86 -383c0 -301.333 74.333 -452 223 -452
c153.333 0 230 149.333 230 448z" />
    <glyph glyph-name="Uhorn" unicode="&#x1af;" horiz-adv-x="1362" 
d="M1296 1526c-2.66699 -76.667 -54.999 -168.332 -156.999 -274.999v-65v-750c0 -86 -8.33301 -151.333 -25 -196c-61.333 -175.333 -206 -263 -434 -263c-154 0 -274.333 46.667 -361 140c-47.333 52 -76 108.667 -86 170c-2.66699 18.667 -5 39 -7 61s-3 46 -3 72v766
c0 40.667 -4 68.667 -12 84c-14 24.667 -42 39.667 -84 45c-19.333 1.33301 -44 3.33301 -74 6v49c52 -5.33301 99.5 -9 142.5 -11s80.833 -3 113.5 -3c34 0 72.167 1 114.5 3s89.5 5.66699 141.5 11v-49c-48.667 -2.66699 -81.334 -6.66699 -98.001 -12
c-39.333 -12.667 -62 -35.334 -68 -68.001c-1.33301 -6.66699 -2 -25 -2 -55v-783c0 -81.333 8.33301 -140.666 25 -177.999c44.667 -104.667 144.334 -157 299.001 -157c143.333 0 243.666 45 300.999 135c31.333 52 47 126.333 47 223v760c0 40.667 -4 68.667 -12 84
c-14 24.667 -42 39.667 -84 45c-19.333 1.33301 -44 3.33301 -74 6v49c48 -2.66699 89 -4.66699 123 -6s62.667 -2 86 -2h49c23.333 31.333 35 62.666 35 93.999l-6 2c-5.33301 -1.33301 -10.333 -1.33301 -15 0c-52.667 10 -73 42.667 -61 98c10.667 48 40 72 88 72
c68 0 100.667 -34 98 -102z" />
    <glyph glyph-name="uhorn" unicode="&#x1b0;" horiz-adv-x="1104" 
d="M1067 1137c0 -62 -31.3369 -128.334 -94.0039 -199.001l-35 -39.5c-12 -13 -24.333 -25.167 -37 -36.5v-692c0 -34 4 -57.333 12 -70c11.333 -16 35.333 -25.333 72 -28c5.33301 -1.33301 28 -2 68 -2v-37c-108 -10 -202.333 -27.667 -283 -53
c-6.66699 39.333 -10.667 101.333 -12 186c-27.333 -53.333 -54.666 -91.666 -81.999 -114.999c-53.333 -44.667 -119.666 -67 -198.999 -67c-109.333 0 -192 38 -248 114c-35.333 50.667 -53 126 -53 226v469c0 38 -3.33301 65 -10 81c-14 26 -58.333 39 -133 39v35
c106.667 11.333 209.667 30 309 56v-685c0 -81.333 11 -139.333 33 -174c30 -46 80.333 -69 151 -69c76.667 0 134 29.333 172 88c26 38 39 98.667 39 182v447c0 39.333 -4 66.333 -12 81c-13.333 26 -57.666 39 -132.999 39v35c105.333 10 208.333 28.667 309 56v-66
c41.333 46.667 62 89.667 62 129h-7h-14c-53.333 12 -73.666 44.667 -60.999 98c10.667 48 40.667 72 90 72c65.333 0 97.333 -33.333 96 -100z" />
    <glyph glyph-name="circumflex" unicode="&#x2c6;" 
d="M461 1332h96l205 -242h-67l-192 153l-192 -153h-56z" />
    <glyph glyph-name="caron" unicode="&#x2c7;" 
d="M831 1426l-269 -299h-99l-269 299h97l221 -177l221 177h98z" />
    <glyph glyph-name="breve" unicode="&#x2d8;" 
d="M758 1337c-12 -66.667 -38.334 -121.999 -79.001 -165.999c-45.333 -45.333 -100.666 -68 -165.999 -68c-62.667 0 -118 24 -166 72c-40 42.667 -66.667 96.667 -80 162h41c20.667 -46.667 49 -83.334 85 -110.001c36.667 -25.333 76.667 -38 120 -38
c42.667 0 82 12.667 118 38c39.333 28 67 64.667 83 110h44z" />
    <glyph glyph-name="dotaccent" unicode="&#x2d9;" 
d="M515 1386c31.333 0 58.668 -11.3311 82.001 -33.998c22.667 -22.667 34 -50.334 34 -83.001s-11.333 -60.334 -34 -83.001c-23.333 -23.333 -51 -35 -83 -35c-32.667 0 -60.334 11.667 -83.001 35c-23.333 22.667 -35 50 -35 82c0 33.333 11.667 61.333 35 84
s51.333 34 84 34z" />
    <glyph glyph-name="ring" unicode="&#x2da;" 
d="M515 1463c46 0 85.667 -16.668 119 -50.001s50 -73.666 50 -120.999c0 -46.667 -16.667 -87 -50 -121c-34 -33.333 -74.333 -50 -121 -50c-47.333 0 -88 16.667 -122 50c-33.333 34 -50 74.333 -50 121c0 48 16.667 88.333 50 121c34 33.333 75.333 50 124 50zM511 1391
c-26.667 0 -49.666 -9.66797 -68.999 -29.001s-29 -42.666 -29 -69.999s9.66699 -50.666 29 -69.999s43 -29 71 -29c27.333 0 50.666 9.66699 69.999 29s29 42.666 29 69.999c0 28 -9.66699 51.333 -29 70c-20 19.333 -44 29 -72 29z" />
    <glyph glyph-name="ogonek" unicode="&#x2db;" 
d="M625 23l62.999 -15c-117.333 -46.667 -176 -101 -176 -163c0 -28 11 -50.667 33 -68c20 -16 45.667 -24 77 -24c18.667 0 41 4 67 12v-64c-46 -16.667 -87.333 -25 -124 -25c-49.333 0 -90.666 12 -123.999 36c-42 29.333 -63 68 -63 116
c0 84.667 82.333 149.667 247 195z" />
    <glyph glyph-name="tilde" unicode="&#x2dc;" 
d="M249 1191c14.667 55.333 33.667 95.332 57 119.999c29.333 30 63 44.333 101 43c40.667 0 79.667 -14.333 117 -43c53.333 -37.333 94.666 -55.333 123.999 -54c38 2 67.333 33.667 88 95l35 -8c-9.33301 -56 -28.333 -98.333 -57 -127
c-25.333 -28 -55.666 -43.333 -90.999 -46c-39.333 -1.33301 -88.666 20.334 -147.999 65.001c-32 23.333 -61 35 -87 35c-42.667 0 -76.334 -30 -101.001 -90z" />
    <glyph glyph-name="hungarumlaut" unicode="&#x2dd;" 
d="M339 1129l174 301h177l-268 -301h-83zM621 1129l176 301h177l-271 -301h-82z" />
    <glyph glyph-name="pi" unicode="&#x3c0;" 
d="M1133 953l0.000976562 -98.001h-318c-25.333 -64 -41.333 -106.333 -48 -127c-17.333 -56 -25.666 -101.667 -24.999 -137v-330c0 -67.333 2.66699 -110.333 8 -129c10 -38.667 35.333 -58 76 -58c9.33301 0 42.666 8 99.999 24v-34l-204 -83
c-11.333 -4.66699 -19 -7 -23 -7c-9.33301 0 -20.666 6.83301 -33.999 20.5s-25 30.167 -35 49.5c-16 31.333 -24 73.333 -24 126v323c0 49.333 8 98 24 146c6.66699 16.667 25.667 54 57 112c24.667 50 42.667 84.333 54 103h-356l-3 -253
c-1.33301 -120.667 -13 -270 -35 -448c-8.66699 -69.333 -18.334 -116 -29.001 -140c-14.667 -32 -33 -48 -55 -48c-18.667 0 -35 10.333 -49 31c-10.667 14.667 -16 30 -16 46c0 26.667 7 58.667 21 96c53.333 144.667 86 383.334 98 716.001
c-82.667 0 -147.667 -14.333 -195 -43c-44.667 -28.667 -90.334 -74.667 -137.001 -138l-23 27l144 184c20 26 43.5 44 70.5 54s64.833 15 113.5 15h843z" />
    <glyph glyph-name="uni1EA0" unicode="&#x1ea0;" horiz-adv-x="1316" 
d="M844 395l-476.001 -0.000976562l-68 -192c-16.667 -46.667 -25 -78.667 -25 -96c0 -28.667 18.333 -47 55 -55c17.333 -4 44 -6.66699 80 -8v-50c-78 7.33301 -143 11 -195 11s-117 -3.66699 -195 -11v50c60.667 4 102.334 13.333 125.001 28
c24.667 17.333 48.667 56 72 116l467 1221l421 -1244c20 -56 46.667 -90 80 -102c24 -9.33301 60.667 -15.666 110 -18.999v-50c-94 10 -177 15 -249 15c-72.667 0 -156 -5 -250 -15v50c36.667 2.66699 65 7 85 13c30.667 8.66699 46 24.667 46 48c0 18 -4.33301 41 -13 69z
M391.999 458.999h432l-199 627zM641.999 -209.001c26 0 47.833 -8.83301 65.5 -26.5s26.5 -39.5 26.5 -65.5s-8.83301 -48.167 -26.5 -66.5s-39.5 -27.5 -65.5 -27.5s-48.167 8.83301 -66.5 26.5s-27.5 40.167 -27.5 67.5c0 26 9.16699 47.833 27.5 65.5
s40.5 26.5 66.5 26.5z" />
    <glyph glyph-name="uni1EA1" unicode="&#x1ea1;" horiz-adv-x="955" 
d="M639 161c-27.333 -49.333 -53.668 -85.668 -79.001 -109.001c-49.333 -46.667 -114.666 -70 -195.999 -70c-82 0 -149.333 23.667 -202 71c-55.333 50 -83 114 -83 192c0 122.667 77.667 216.334 233 281.001c88 36.667 189 62.334 303 77.001v122
c0 68.667 -10.333 117.334 -31 146.001c-29.333 40 -75.333 60 -138 60c-53.333 0 -98.333 -14.333 -135 -43c-23.333 -19.333 -35 -45 -35 -77v-18c0.666992 -12 1 -22 1 -30c0 -60.667 -27.667 -91 -83 -91c-45.333 0 -68 23 -68 69c0 62.667 30 117.667 90 165
c68 53.333 150 80 246 80c66.667 0 126.667 -14.333 180 -43c66 -36 107.333 -87.667 124 -155c8.66699 -34.667 13 -81.334 13 -140.001v-418c0 -64.667 5 -111.334 15 -140.001s31.667 -43 65 -43c12.667 0 30 2.33301 52 7v-54c-46 -9.33301 -84.333 -14 -115 -14
c-58 0 -100 21 -126 63c-16 26 -26.333 63.333 -31 112zM614.998 549.998c-93.333 -16.667 -170 -40.002 -230 -70.002c-93.333 -47.333 -140 -121.666 -140 -222.999c0 -59.333 16 -105.666 48 -138.999c29.333 -31.333 70 -47 122 -47c88 0 147.333 40.333 178 121
c14.667 39.333 22 99.333 22 180v178zM435.998 -209.004c26 0 47.833 -8.83301 65.5 -26.5s26.5 -39.5 26.5 -65.5s-8.83301 -48.167 -26.5 -66.5s-39.5 -27.5 -65.5 -27.5s-48.167 8.83301 -66.5 26.5s-27.5 40.167 -27.5 67.5c0 26 9.16699 47.833 27.5 65.5
s40.5 26.5 66.5 26.5z" />
    <glyph glyph-name="uni1EA2" unicode="&#x1ea2;" horiz-adv-x="1316" 
d="M844 395l-476.001 -0.000976562l-68 -192c-16.667 -46.667 -25 -78.667 -25 -96c0 -28.667 18.333 -47 55 -55c17.333 -4 44 -6.66699 80 -8v-50c-78 7.33301 -143 11 -195 11s-117 -3.66699 -195 -11v50c60.667 4 102.334 13.333 125.001 28
c24.667 17.333 48.667 56 72 116l467 1221l421 -1244c20 -56 46.667 -90 80 -102c24 -9.33301 60.667 -15.666 110 -18.999v-50c-94 10 -177 15 -249 15c-72.667 0 -156 -5 -250 -15v50c36.667 2.66699 65 7 85 13c30.667 8.66699 46 24.667 46 48c0 18 -4.33301 41 -13 69z
M391.999 458.999h432l-199 627zM864.999 1730c2 -35.333 -11.999 -66.3311 -41.999 -92.998c-12 -8 -25.833 -18 -41.5 -30s-33.167 -27 -52.5 -45c-16.667 -18.667 -28 -39.667 -34 -63h-43c2.66699 32 7.66699 53.667 15 65c12 23.333 32 48.666 60 75.999
c28.667 30 43 59.333 43 88c0 50.667 -25 76 -75 76c-64 0 -99.667 -34.667 -107 -104h-37c0 66 26.667 112 80 138c23.333 11.333 52.333 17 87 17c39.333 0 70.666 -8 93.999 -24c35.333 -24.667 53 -58.334 53 -101.001z" />
    <glyph glyph-name="uni1EA3" unicode="&#x1ea3;" horiz-adv-x="955" 
d="M639 161c-27.333 -49.333 -53.668 -85.668 -79.001 -109.001c-49.333 -46.667 -114.666 -70 -195.999 -70c-82 0 -149.333 23.667 -202 71c-55.333 50 -83 114 -83 192c0 122.667 77.667 216.334 233 281.001c88 36.667 189 62.334 303 77.001v122
c0 68.667 -10.333 117.334 -31 146.001c-29.333 40 -75.333 60 -138 60c-53.333 0 -98.333 -14.333 -135 -43c-23.333 -19.333 -35 -45 -35 -77v-18c0.666992 -12 1 -22 1 -30c0 -60.667 -27.667 -91 -83 -91c-45.333 0 -68 23 -68 69c0 62.667 30 117.667 90 165
c68 53.333 150 80 246 80c66.667 0 126.667 -14.333 180 -43c66 -36 107.333 -87.667 124 -155c8.66699 -34.667 13 -81.334 13 -140.001v-418c0 -64.667 5 -111.334 15 -140.001s31.667 -43 65 -43c12.667 0 30 2.33301 52 7v-54c-46 -9.33301 -84.333 -14 -115 -14
c-58 0 -100 21 -126 63c-16 26 -26.333 63.333 -31 112zM614.998 549.998c-93.333 -16.667 -170 -40.002 -230 -70.002c-93.333 -47.333 -140 -121.666 -140 -222.999c0 -59.333 16 -105.666 48 -138.999c29.333 -31.333 70 -47 122 -47c88 0 147.333 40.333 178 121
c14.667 39.333 22 99.333 22 180v178zM646.998 1330c2 -35.333 -11.999 -66.3311 -41.999 -92.998c-12 -8 -25.833 -18 -41.5 -30s-33.167 -27 -52.5 -45c-16.667 -18.667 -28 -39.667 -34 -63h-43c2.66699 32 7.66699 53.667 15 65c12 23.333 32 48.666 60 75.999
c28.667 30 43 59.333 43 88c0 50.667 -25 76 -75 76c-64 0 -99.667 -34.667 -107 -104h-37c0 66 26.667 112 80 138c23.333 11.333 52.333 17 87 17c39.333 0 70.666 -8 93.999 -24c35.333 -24.667 53 -58.334 53 -101.001z" />
    <glyph glyph-name="uni1EA4" unicode="&#x1ea4;" horiz-adv-x="1316" 
d="M844 395l-476.001 -0.000976562l-68 -192c-16.667 -46.667 -25 -78.667 -25 -96c0 -28.667 18.333 -47 55 -55c17.333 -4 44 -6.66699 80 -8v-50c-78 7.33301 -143 11 -195 11s-117 -3.66699 -195 -11v50c60.667 4 102.334 13.333 125.001 28
c24.667 17.333 48.667 56 72 116l467 1221l421 -1244c20 -56 46.667 -90 80 -102c24 -9.33301 60.667 -15.666 110 -18.999v-50c-94 10 -177 15 -249 15c-72.667 0 -156 -5 -250 -15v50c36.667 2.66699 65 7 85 13c30.667 8.66699 46 24.667 46 48c0 18 -4.33301 41 -13 69z
M391.999 458.999h432l-199 627zM639.999 1687h96l205 -242h-67l-192 153l-192 -153h-56zM1050 1857h167l-285 -256h-52z" />
    <glyph glyph-name="uni1EA5" unicode="&#x1ea5;" horiz-adv-x="955" 
d="M639 161c-27.333 -49.333 -53.668 -85.668 -79.001 -109.001c-49.333 -46.667 -114.666 -70 -195.999 -70c-82 0 -149.333 23.667 -202 71c-55.333 50 -83 114 -83 192c0 122.667 77.667 216.334 233 281.001c88 36.667 189 62.334 303 77.001v122
c0 68.667 -10.333 117.334 -31 146.001c-29.333 40 -75.333 60 -138 60c-53.333 0 -98.333 -14.333 -135 -43c-23.333 -19.333 -35 -45 -35 -77v-18c0.666992 -12 1 -22 1 -30c0 -60.667 -27.667 -91 -83 -91c-45.333 0 -68 23 -68 69c0 62.667 30 117.667 90 165
c68 53.333 150 80 246 80c66.667 0 126.667 -14.333 180 -43c66 -36 107.333 -87.667 124 -155c8.66699 -34.667 13 -81.334 13 -140.001v-418c0 -64.667 5 -111.334 15 -140.001s31.667 -43 65 -43c12.667 0 30 2.33301 52 7v-54c-46 -9.33301 -84.333 -14 -115 -14
c-58 0 -100 21 -126 63c-16 26 -26.333 63.333 -31 112zM614.998 549.998c-93.333 -16.667 -170 -40.002 -230 -70.002c-93.333 -47.333 -140 -121.666 -140 -222.999c0 -59.333 16 -105.666 48 -138.999c29.333 -31.333 70 -47 122 -47c88 0 147.333 40.333 178 121
c14.667 39.333 22 99.333 22 180v178zM418.998 1332h96l205 -242h-67l-192 153l-192 -153h-56zM823.998 1540h167l-285 -256h-52z" />
    <glyph glyph-name="uni1EA6" unicode="&#x1ea6;" horiz-adv-x="1316" 
d="M844 395l-476.001 -0.000976562l-68 -192c-16.667 -46.667 -25 -78.667 -25 -96c0 -28.667 18.333 -47 55 -55c17.333 -4 44 -6.66699 80 -8v-50c-78 7.33301 -143 11 -195 11s-117 -3.66699 -195 -11v50c60.667 4 102.334 13.333 125.001 28
c24.667 17.333 48.667 56 72 116l467 1221l421 -1244c20 -56 46.667 -90 80 -102c24 -9.33301 60.667 -15.666 110 -18.999v-50c-94 10 -177 15 -249 15c-72.667 0 -156 -5 -250 -15v50c36.667 2.66699 65 7 85 13c30.667 8.66699 46 24.667 46 48c0 18 -4.33301 41 -13 69z
M391.999 458.999h432l-199 627zM639.999 1697h96l205 -242h-67l-192 153l-192 -153h-56zM1038 1601l-285 256h167l170 -256h-52z" />
    <glyph glyph-name="uni1EA7" unicode="&#x1ea7;" horiz-adv-x="955" 
d="M639 161c-27.333 -49.333 -53.668 -85.668 -79.001 -109.001c-49.333 -46.667 -114.666 -70 -195.999 -70c-82 0 -149.333 23.667 -202 71c-55.333 50 -83 114 -83 192c0 122.667 77.667 216.334 233 281.001c88 36.667 189 62.334 303 77.001v122
c0 68.667 -10.333 117.334 -31 146.001c-29.333 40 -75.333 60 -138 60c-53.333 0 -98.333 -14.333 -135 -43c-23.333 -19.333 -35 -45 -35 -77v-18c0.666992 -12 1 -22 1 -30c0 -60.667 -27.667 -91 -83 -91c-45.333 0 -68 23 -68 69c0 62.667 30 117.667 90 165
c68 53.333 150 80 246 80c66.667 0 126.667 -14.333 180 -43c66 -36 107.333 -87.667 124 -155c8.66699 -34.667 13 -81.334 13 -140.001v-418c0 -64.667 5 -111.334 15 -140.001s31.667 -43 65 -43c12.667 0 30 2.33301 52 7v-54c-46 -9.33301 -84.333 -14 -115 -14
c-58 0 -100 21 -126 63c-16 26 -26.333 63.333 -31 112zM614.998 549.998c-93.333 -16.667 -170 -40.002 -230 -70.002c-93.333 -47.333 -140 -121.666 -140 -222.999c0 -59.333 16 -105.666 48 -138.999c29.333 -31.333 70 -47 122 -47c88 0 147.333 40.333 178 121
c14.667 39.333 22 99.333 22 180v178zM418.998 1332h96l205 -242h-67l-192 153l-192 -153h-56zM798.998 1242l-285 256h167l170 -256h-52z" />
    <glyph glyph-name="uni1EA8" unicode="&#x1ea8;" horiz-adv-x="1316" 
d="M645 1665h86l185 -218h-61l-172 138l-173 -138h-51zM844 395l-476.001 -0.000976562l-68 -192c-16.667 -46.667 -25 -78.667 -25 -96c0 -28.667 18.333 -47 55 -55c17.333 -4 44 -6.66699 80 -8v-50c-78 7.33301 -143 11 -195 11s-117 -3.66699 -195 -11v50
c60.667 4 102.334 13.333 125.001 28c24.667 17.333 48.667 56 72 116l467 1221l421 -1244c20 -56 46.667 -90 80 -102c24 -9.33301 60.667 -15.666 110 -18.999v-50c-94 10 -177 15 -249 15c-72.667 0 -156 -5 -250 -15v50c36.667 2.66699 65 7 85 13
c30.667 8.66699 46 24.667 46 48c0 18 -4.33301 41 -13 69zM391.999 458.999h432l-199 627zM1065 1766c1.33301 -25.333 -10.998 -47.6689 -36.998 -67.002l-35.5 -21.5c-13.667 -8.33301 -28.834 -19.166 -45.501 -32.499c-14.667 -13.333 -24.334 -28.333 -29.001 -45h-37
c2 22.667 6 38.334 12 47.001c10.667 16.667 28 34.667 52 54c25.333 21.333 38 42.666 38 63.999c0 36.667 -21.667 55 -65 55c-55.333 0 -86.333 -25.333 -93 -76h-31c0 48 23 81.333 69 100c20 8 44.667 12 74 12c34.667 0 62 -5.66699 82 -17
c30.667 -17.333 46 -41.666 46 -72.999z" />
    <glyph glyph-name="uni1EA9" unicode="&#x1ea9;" horiz-adv-x="955" 
d="M639 161c-27.333 -49.333 -53.668 -85.668 -79.001 -109.001c-49.333 -46.667 -114.666 -70 -195.999 -70c-82 0 -149.333 23.667 -202 71c-55.333 50 -83 114 -83 192c0 122.667 77.667 216.334 233 281.001c88 36.667 189 62.334 303 77.001v122
c0 68.667 -10.333 117.334 -31 146.001c-29.333 40 -75.333 60 -138 60c-53.333 0 -98.333 -14.333 -135 -43c-23.333 -19.333 -35 -45 -35 -77v-18c0.666992 -12 1 -22 1 -30c0 -60.667 -27.667 -91 -83 -91c-45.333 0 -68 23 -68 69c0 62.667 30 117.667 90 165
c68 53.333 150 80 246 80c66.667 0 126.667 -14.333 180 -43c66 -36 107.333 -87.667 124 -155c8.66699 -34.667 13 -81.334 13 -140.001v-418c0 -64.667 5 -111.334 15 -140.001s31.667 -43 65 -43c12.667 0 30 2.33301 52 7v-54c-46 -9.33301 -84.333 -14 -115 -14
c-58 0 -100 21 -126 63c-16 26 -26.333 63.333 -31 112zM614.998 549.998c-93.333 -16.667 -170 -40.002 -230 -70.002c-93.333 -47.333 -140 -121.666 -140 -222.999c0 -59.333 16 -105.666 48 -138.999c29.333 -31.333 70 -47 122 -47c88 0 147.333 40.333 178 121
c14.667 39.333 22 99.333 22 180v178zM418.998 1332h96l205 -242h-67l-192 153l-192 -153h-56zM865.998 1533c2 -35.333 -11.999 -66.3311 -41.999 -92.998c-12 -8 -25.833 -18 -41.5 -30s-33.167 -27 -52.5 -45c-16.667 -18.667 -28 -39.667 -34 -63h-43
c2.66699 32 7.66699 53.667 15 65c12 23.333 32 48.666 60 75.999c28.667 30 43 59.333 43 88c0 50.667 -25 76 -75 76c-64 0 -99.667 -34.667 -107 -104h-37c0 66 26.667 112 80 138c23.333 11.333 52.333 17 87 17c39.333 0 70.666 -8 93.999 -24
c35.333 -24.667 53 -58.334 53 -101.001z" />
    <glyph glyph-name="uni1EAA" unicode="&#x1eaa;" horiz-adv-x="1316" 
d="M644 1650h86l185 -218h-61l-172 138l-173 -138h-51zM494 1709c13.333 50 30.332 86 50.999 108c26.667 27.333 57 40.333 91 39c36.667 0 72 -13 106 -39c48 -33.333 85 -49.333 111 -48c34 1.33301 60.333 29.666 79 84.999l32 -7
c-8.66699 -50.667 -25.667 -88.667 -51 -114c-23.333 -25.333 -50.666 -39.333 -81.999 -42c-35.333 -1.33301 -80 18.334 -134 59.001c-28.667 20.667 -54.667 31 -78 31c-38 0 -68.333 -27 -91 -81zM843.999 395l-476.001 -0.000976562l-68 -192
c-16.667 -46.667 -25 -78.667 -25 -96c0 -28.667 18.333 -47 55 -55c17.333 -4 44 -6.66699 80 -8v-50c-78 7.33301 -143 11 -195 11s-117 -3.66699 -195 -11v50c60.667 4 102.334 13.333 125.001 28c24.667 17.333 48.667 56 72 116l467 1221l421 -1244
c20 -56 46.667 -90 80 -102c24 -9.33301 60.667 -15.666 110 -18.999v-50c-94 10 -177 15 -249 15c-72.667 0 -156 -5 -250 -15v50c36.667 2.66699 65 7 85 13c30.667 8.66699 46 24.667 46 48c0 18 -4.33301 41 -13 69zM391.998 458.999h432l-199 627z" />
    <glyph glyph-name="uni1EAB" unicode="&#x1eab;" horiz-adv-x="955" 
d="M639 161c-27.333 -49.333 -53.668 -85.668 -79.001 -109.001c-49.333 -46.667 -114.666 -70 -195.999 -70c-82 0 -149.333 23.667 -202 71c-55.333 50 -83 114 -83 192c0 122.667 77.667 216.334 233 281.001c88 36.667 189 62.334 303 77.001v122
c0 68.667 -10.333 117.334 -31 146.001c-29.333 40 -75.333 60 -138 60c-53.333 0 -98.333 -14.333 -135 -43c-23.333 -19.333 -35 -45 -35 -77v-18c0.666992 -12 1 -22 1 -30c0 -60.667 -27.667 -91 -83 -91c-45.333 0 -68 23 -68 69c0 62.667 30 117.667 90 165
c68 53.333 150 80 246 80c66.667 0 126.667 -14.333 180 -43c66 -36 107.333 -87.667 124 -155c8.66699 -34.667 13 -81.334 13 -140.001v-418c0 -64.667 5 -111.334 15 -140.001s31.667 -43 65 -43c12.667 0 30 2.33301 52 7v-54c-46 -9.33301 -84.333 -14 -115 -14
c-58 0 -100 21 -126 63c-16 26 -26.333 63.333 -31 112zM614.998 549.998c-93.333 -16.667 -170 -40.002 -230 -70.002c-93.333 -47.333 -140 -121.666 -140 -222.999c0 -59.333 16 -105.666 48 -138.999c29.333 -31.333 70 -47 122 -47c88 0 147.333 40.333 178 121
c14.667 39.333 22 99.333 22 180v178zM418.998 1332h96l205 -242h-67l-192 153l-192 -153h-56zM237.998 1439c14.667 55.333 33.667 95.332 57 119.999c29.333 30 63 44.333 101 43c40.667 0 79.667 -14.333 117 -43c53.333 -37.333 94.666 -55.333 123.999 -54
c38 2 67.333 33.667 88 95l35 -8c-9.33301 -56 -28.333 -98.333 -57 -127c-25.333 -28 -55.666 -43.333 -90.999 -46c-39.333 -1.33301 -88.666 20.334 -147.999 65.001c-32 23.333 -61 35 -87 35c-42.667 0 -76.334 -30 -101.001 -90z" />
    <glyph glyph-name="uni1EAC" unicode="&#x1eac;" horiz-adv-x="1316" 
d="M844 395l-476.001 -0.000976562l-68 -192c-16.667 -46.667 -25 -78.667 -25 -96c0 -28.667 18.333 -47 55 -55c17.333 -4 44 -6.66699 80 -8v-50c-78 7.33301 -143 11 -195 11s-117 -3.66699 -195 -11v50c60.667 4 102.334 13.333 125.001 28
c24.667 17.333 48.667 56 72 116l467 1221l421 -1244c20 -56 46.667 -90 80 -102c24 -9.33301 60.667 -15.666 110 -18.999v-50c-94 10 -177 15 -249 15c-72.667 0 -156 -5 -250 -15v50c36.667 2.66699 65 7 85 13c30.667 8.66699 46 24.667 46 48c0 18 -4.33301 41 -13 69z
M391.999 458.999h432l-199 627zM641.999 -209.001c26 0 47.833 -8.83301 65.5 -26.5s26.5 -39.5 26.5 -65.5s-8.83301 -48.167 -26.5 -66.5s-39.5 -27.5 -65.5 -27.5s-48.167 8.83301 -66.5 26.5s-27.5 40.167 -27.5 67.5c0 26 9.16699 47.833 27.5 65.5
s40.5 26.5 66.5 26.5zM637.999 1710h96l205 -242h-67l-192 153l-192 -153h-56z" />
    <glyph glyph-name="uni1EAD" unicode="&#x1ead;" horiz-adv-x="955" 
d="M639 161c-27.333 -49.333 -53.668 -85.668 -79.001 -109.001c-49.333 -46.667 -114.666 -70 -195.999 -70c-82 0 -149.333 23.667 -202 71c-55.333 50 -83 114 -83 192c0 122.667 77.667 216.334 233 281.001c88 36.667 189 62.334 303 77.001v122
c0 68.667 -10.333 117.334 -31 146.001c-29.333 40 -75.333 60 -138 60c-53.333 0 -98.333 -14.333 -135 -43c-23.333 -19.333 -35 -45 -35 -77v-18c0.666992 -12 1 -22 1 -30c0 -60.667 -27.667 -91 -83 -91c-45.333 0 -68 23 -68 69c0 62.667 30 117.667 90 165
c68 53.333 150 80 246 80c66.667 0 126.667 -14.333 180 -43c66 -36 107.333 -87.667 124 -155c8.66699 -34.667 13 -81.334 13 -140.001v-418c0 -64.667 5 -111.334 15 -140.001s31.667 -43 65 -43c12.667 0 30 2.33301 52 7v-54c-46 -9.33301 -84.333 -14 -115 -14
c-58 0 -100 21 -126 63c-16 26 -26.333 63.333 -31 112zM614.998 549.998c-93.333 -16.667 -170 -40.002 -230 -70.002c-93.333 -47.333 -140 -121.666 -140 -222.999c0 -59.333 16 -105.666 48 -138.999c29.333 -31.333 70 -47 122 -47c88 0 147.333 40.333 178 121
c14.667 39.333 22 99.333 22 180v178zM435.998 -209.004c26 0 47.833 -8.83301 65.5 -26.5s26.5 -39.5 26.5 -65.5s-8.83301 -48.167 -26.5 -66.5s-39.5 -27.5 -65.5 -27.5s-48.167 8.83301 -66.5 26.5s-27.5 40.167 -27.5 67.5c0 26 9.16699 47.833 27.5 65.5
s40.5 26.5 66.5 26.5zM430.998 1332h96l205 -242h-67l-192 153l-192 -153h-56z" />
    <glyph glyph-name="uni1EAE" unicode="&#x1eae;" horiz-adv-x="1316" 
d="M893 1657c-10 -56.667 -32.333 -103.667 -67 -141c-38.667 -38 -85.667 -57 -141 -57c-53.333 0 -100.333 20.333 -141 61c-34 36 -56.667 81.667 -68 137h35c17.333 -39.333 41.333 -70.333 72 -93c31.333 -21.333 65.333 -32 102 -32c36 0 69.333 10.667 100 32
c33.333 24 57 55 71 93h37zM767 1857h142l-243 -218h-44zM844 395l-476.001 -0.000976562l-68 -192c-16.667 -46.667 -25 -78.667 -25 -96c0 -28.667 18.333 -47 55 -55c17.333 -4 44 -6.66699 80 -8v-50c-78 7.33301 -143 11 -195 11s-117 -3.66699 -195 -11v50
c60.667 4 102.334 13.333 125.001 28c24.667 17.333 48.667 56 72 116l467 1221l421 -1244c20 -56 46.667 -90 80 -102c24 -9.33301 60.667 -15.666 110 -18.999v-50c-94 10 -177 15 -249 15c-72.667 0 -156 -5 -250 -15v50c36.667 2.66699 65 7 85 13
c30.667 8.66699 46 24.667 46 48c0 18 -4.33301 41 -13 69zM391.999 458.999h432l-199 627z" />
    <glyph glyph-name="uni1EAF" unicode="&#x1eaf;" horiz-adv-x="955" 
d="M639 161c-27.333 -49.333 -53.668 -85.668 -79.001 -109.001c-49.333 -46.667 -114.666 -70 -195.999 -70c-82 0 -149.333 23.667 -202 71c-55.333 50 -83 114 -83 192c0 122.667 77.667 216.334 233 281.001c88 36.667 189 62.334 303 77.001v122
c0 68.667 -10.333 117.334 -31 146.001c-29.333 40 -75.333 60 -138 60c-53.333 0 -98.333 -14.333 -135 -43c-23.333 -19.333 -35 -45 -35 -77v-18c0.666992 -12 1 -22 1 -30c0 -60.667 -27.667 -91 -83 -91c-45.333 0 -68 23 -68 69c0 62.667 30 117.667 90 165
c68 53.333 150 80 246 80c66.667 0 126.667 -14.333 180 -43c66 -36 107.333 -87.667 124 -155c8.66699 -34.667 13 -81.334 13 -140.001v-418c0 -64.667 5 -111.334 15 -140.001s31.667 -43 65 -43c12.667 0 30 2.33301 52 7v-54c-46 -9.33301 -84.333 -14 -115 -14
c-58 0 -100 21 -126 63c-16 26 -26.333 63.333 -31 112zM614.998 549.998c-93.333 -16.667 -170 -40.002 -230 -70.002c-93.333 -47.333 -140 -121.666 -140 -222.999c0 -59.333 16 -105.666 48 -138.999c29.333 -31.333 70 -47 122 -47c88 0 147.333 40.333 178 121
c14.667 39.333 22 99.333 22 180v178zM723.998 1337c-12 -66.667 -38.334 -121.999 -79.001 -165.999c-45.333 -45.333 -100.666 -68 -165.999 -68c-62.667 0 -118 24 -166 72c-40 42.667 -66.667 96.667 -80 162h41c20.667 -46.667 49 -83.334 85 -110.001
c36.667 -25.333 76.667 -38 120 -38c42.667 0 82 12.667 118 38c39.333 28 67 64.667 83 110h44zM589.997 1611h167l-285 -256h-52z" />
    <glyph glyph-name="uni1EB0" unicode="&#x1eb0;" horiz-adv-x="1316" 
d="M712 1638l-243 218h142l145 -218h-44zM893 1657c-10 -56.667 -32.333 -103.667 -67 -141c-38.667 -38 -85.667 -57 -141 -57c-53.333 0 -100.333 20.333 -141 61c-34 36 -56.667 81.667 -68 137h35c17.333 -39.333 41.333 -70.333 72 -93
c31.333 -21.333 65.333 -32 102 -32c36 0 69.333 10.667 100 32c33.333 24 57 55 71 93h37zM844 395l-476.001 -0.000976562l-68 -192c-16.667 -46.667 -25 -78.667 -25 -96c0 -28.667 18.333 -47 55 -55c17.333 -4 44 -6.66699 80 -8v-50c-78 7.33301 -143 11 -195 11
s-117 -3.66699 -195 -11v50c60.667 4 102.334 13.333 125.001 28c24.667 17.333 48.667 56 72 116l467 1221l421 -1244c20 -56 46.667 -90 80 -102c24 -9.33301 60.667 -15.666 110 -18.999v-50c-94 10 -177 15 -249 15c-72.667 0 -156 -5 -250 -15v50
c36.667 2.66699 65 7 85 13c30.667 8.66699 46 24.667 46 48c0 18 -4.33301 41 -13 69zM391.999 458.999h432l-199 627z" />
    <glyph glyph-name="uni1EB1" unicode="&#x1eb1;" horiz-adv-x="955" 
d="M639 161c-27.333 -49.333 -53.668 -85.668 -79.001 -109.001c-49.333 -46.667 -114.666 -70 -195.999 -70c-82 0 -149.333 23.667 -202 71c-55.333 50 -83 114 -83 192c0 122.667 77.667 216.334 233 281.001c88 36.667 189 62.334 303 77.001v122
c0 68.667 -10.333 117.334 -31 146.001c-29.333 40 -75.333 60 -138 60c-53.333 0 -98.333 -14.333 -135 -43c-23.333 -19.333 -35 -45 -35 -77v-18c0.666992 -12 1 -22 1 -30c0 -60.667 -27.667 -91 -83 -91c-45.333 0 -68 23 -68 69c0 62.667 30 117.667 90 165
c68 53.333 150 80 246 80c66.667 0 126.667 -14.333 180 -43c66 -36 107.333 -87.667 124 -155c8.66699 -34.667 13 -81.334 13 -140.001v-418c0 -64.667 5 -111.334 15 -140.001s31.667 -43 65 -43c12.667 0 30 2.33301 52 7v-54c-46 -9.33301 -84.333 -14 -115 -14
c-58 0 -100 21 -126 63c-16 26 -26.333 63.333 -31 112zM614.998 549.998c-93.333 -16.667 -170 -40.002 -230 -70.002c-93.333 -47.333 -140 -121.666 -140 -222.999c0 -59.333 16 -105.666 48 -138.999c29.333 -31.333 70 -47 122 -47c88 0 147.333 40.333 178 121
c14.667 39.333 22 99.333 22 180v178zM723.998 1337c-12 -66.667 -38.334 -121.999 -79.001 -165.999c-45.333 -45.333 -100.666 -68 -165.999 -68c-62.667 0 -118 24 -166 72c-40 42.667 -66.667 96.667 -80 162h41c20.667 -46.667 49 -83.334 85 -110.001
c36.667 -25.333 76.667 -38 120 -38c42.667 0 82 12.667 118 38c39.333 28 67 64.667 83 110h44zM480.997 1354l-285 256h167l170 -256h-52z" />
    <glyph glyph-name="uni1EB2" unicode="&#x1eb2;" horiz-adv-x="1316" 
d="M880 1630c-10 -53.333 -31 -97.668 -63 -133.001c-36.667 -36.667 -81 -55 -133 -55c-50 0 -94.333 19.333 -133 58c-32 34 -53.333 77.333 -64 130h33c16.667 -37.333 39.334 -66.666 68.001 -87.999c29.333 -20.667 61.333 -31 96 -31c34 0 65.333 10.333 94 31
c31.333 22 53.666 51.333 66.999 88h35zM844 394.998l-476.001 -0.000976562l-68 -192c-16.667 -46.667 -25 -78.667 -25 -96c0 -28.667 18.333 -47 55 -55c17.333 -4 44 -6.66699 80 -8v-50c-78 7.33301 -143 11 -195 11s-117 -3.66699 -195 -11v50
c60.667 4 102.334 13.333 125.001 28c24.667 17.333 48.667 56 72 116l467 1221l421 -1244c20 -56 46.667 -90 80 -102c24 -9.33301 60.667 -15.666 110 -18.999v-50c-94 10 -177 15 -249 15c-72.667 0 -156 -5 -250 -15v50c36.667 2.66699 65 7 85 13
c30.667 8.66699 46 24.667 46 48c0 18 -4.33301 41 -13 69zM391.999 458.997h432l-199 627zM833.999 1766c1.33301 -25.333 -10.998 -47.6689 -36.998 -67.002l-35.5 -21.5c-13.667 -8.33301 -28.834 -19.166 -45.501 -32.499c-14.667 -13.333 -24.334 -28.333 -29.001 -45
h-37c2 22.667 6 38.334 12 47.001c10.667 16.667 28 34.667 52 54c25.333 21.333 38 42.666 38 63.999c0 36.667 -21.667 55 -65 55c-55.333 0 -86.333 -25.333 -93 -76h-31c0 48 23 81.333 69 100c20 8 44.667 12 74 12c34.667 0 62 -5.66699 82 -17
c30.667 -17.333 46 -41.666 46 -72.999z" />
    <glyph glyph-name="uni1EB3" unicode="&#x1eb3;" horiz-adv-x="955" 
d="M639 161c-27.333 -49.333 -53.668 -85.668 -79.001 -109.001c-49.333 -46.667 -114.666 -70 -195.999 -70c-82 0 -149.333 23.667 -202 71c-55.333 50 -83 114 -83 192c0 122.667 77.667 216.334 233 281.001c88 36.667 189 62.334 303 77.001v122
c0 68.667 -10.333 117.334 -31 146.001c-29.333 40 -75.333 60 -138 60c-53.333 0 -98.333 -14.333 -135 -43c-23.333 -19.333 -35 -45 -35 -77v-18c0.666992 -12 1 -22 1 -30c0 -60.667 -27.667 -91 -83 -91c-45.333 0 -68 23 -68 69c0 62.667 30 117.667 90 165
c68 53.333 150 80 246 80c66.667 0 126.667 -14.333 180 -43c66 -36 107.333 -87.667 124 -155c8.66699 -34.667 13 -81.334 13 -140.001v-418c0 -64.667 5 -111.334 15 -140.001s31.667 -43 65 -43c12.667 0 30 2.33301 52 7v-54c-46 -9.33301 -84.333 -14 -115 -14
c-58 0 -100 21 -126 63c-16 26 -26.333 63.333 -31 112zM614.998 549.998c-93.333 -16.667 -170 -40.002 -230 -70.002c-93.333 -47.333 -140 -121.666 -140 -222.999c0 -59.333 16 -105.666 48 -138.999c29.333 -31.333 70 -47 122 -47c88 0 147.333 40.333 178 121
c14.667 39.333 22 99.333 22 180v178zM723.998 1337c-12 -66.667 -38.334 -121.999 -79.001 -165.999c-45.333 -45.333 -100.666 -68 -165.999 -68c-62.667 0 -118 24 -166 72c-40 42.667 -66.667 96.667 -80 162h41c20.667 -46.667 49 -83.334 85 -110.001
c36.667 -25.333 76.667 -38 120 -38c42.667 0 82 12.667 118 38c39.333 28 67 64.667 83 110h44zM652.997 1555c2 -35.333 -11.999 -66.3311 -41.999 -92.998c-12 -8 -25.833 -18 -41.5 -30s-33.167 -27 -52.5 -45c-16.667 -18.667 -28 -39.667 -34 -63h-43
c2.66699 32 7.66699 53.667 15 65c12 23.333 32 48.666 60 75.999c28.667 30 43 59.333 43 88c0 50.667 -25 76 -75 76c-64 0 -99.667 -34.667 -107 -104h-37c0 66 26.667 112 80 138c23.333 11.333 52.333 17 87 17c39.333 0 70.666 -8 93.999 -24
c35.333 -24.667 53 -58.334 53 -101.001z" />
    <glyph glyph-name="uni1EB4" unicode="&#x1eb4;" horiz-adv-x="1316" 
d="M894 1653c-10 -57.333 -32.333 -104.667 -67 -142c-38.667 -38.667 -86 -58 -142 -58c-54 0 -101.333 20.333 -142 61c-34 36.667 -56.667 83 -68 139h34c18 -40 42.333 -71.333 73 -94c31.333 -22 65.666 -33 102.999 -33c36.667 0 70.334 11 101.001 33
c33.333 24 57 55.333 71 94h37zM477 1716c12.667 47.333 28.666 81.666 47.999 102.999c25.333 26 54.333 38.333 87 37c34.667 0 68 -12.333 100 -37c46 -32 81.333 -47.333 106 -46c32 1.33301 57 28.333 75 81l30 -7c-8 -48 -24 -84 -48 -108
c-22 -24 -48 -37.333 -78 -40c-33.333 -1.33301 -75.666 17.334 -126.999 56.001c-27.333 20 -52.333 30 -75 30c-36 0 -64.667 -25.667 -86 -77zM843.999 394.999l-476.001 -0.000976562l-68 -192c-16.667 -46.667 -25 -78.667 -25 -96c0 -28.667 18.333 -47 55 -55
c17.333 -4 44 -6.66699 80 -8v-50c-78 7.33301 -143 11 -195 11s-117 -3.66699 -195 -11v50c60.667 4 102.334 13.333 125.001 28c24.667 17.333 48.667 56 72 116l467 1221l421 -1244c20 -56 46.667 -90 80 -102c24 -9.33301 60.667 -15.666 110 -18.999v-50
c-94 10 -177 15 -249 15c-72.667 0 -156 -5 -250 -15v50c36.667 2.66699 65 7 85 13c30.667 8.66699 46 24.667 46 48c0 18 -4.33301 41 -13 69zM391.998 458.998h432l-199 627z" />
    <glyph glyph-name="uni1EB5" unicode="&#x1eb5;" horiz-adv-x="955" 
d="M639 161c-27.333 -49.333 -53.668 -85.668 -79.001 -109.001c-49.333 -46.667 -114.666 -70 -195.999 -70c-82 0 -149.333 23.667 -202 71c-55.333 50 -83 114 -83 192c0 122.667 77.667 216.334 233 281.001c88 36.667 189 62.334 303 77.001v122
c0 68.667 -10.333 117.334 -31 146.001c-29.333 40 -75.333 60 -138 60c-53.333 0 -98.333 -14.333 -135 -43c-23.333 -19.333 -35 -45 -35 -77v-18c0.666992 -12 1 -22 1 -30c0 -60.667 -27.667 -91 -83 -91c-45.333 0 -68 23 -68 69c0 62.667 30 117.667 90 165
c68 53.333 150 80 246 80c66.667 0 126.667 -14.333 180 -43c66 -36 107.333 -87.667 124 -155c8.66699 -34.667 13 -81.334 13 -140.001v-418c0 -64.667 5 -111.334 15 -140.001s31.667 -43 65 -43c12.667 0 30 2.33301 52 7v-54c-46 -9.33301 -84.333 -14 -115 -14
c-58 0 -100 21 -126 63c-16 26 -26.333 63.333 -31 112zM614.998 549.998c-93.333 -16.667 -170 -40.002 -230 -70.002c-93.333 -47.333 -140 -121.666 -140 -222.999c0 -59.333 16 -105.666 48 -138.999c29.333 -31.333 70 -47 122 -47c88 0 147.333 40.333 178 121
c14.667 39.333 22 99.333 22 180v178zM723.998 1337c-12 -66.667 -38.334 -121.999 -79.001 -165.999c-45.333 -45.333 -100.666 -68 -165.999 -68c-62.667 0 -118 24 -166 72c-40 42.667 -66.667 96.667 -80 162h41c20.667 -46.667 49 -83.334 85 -110.001
c36.667 -25.333 76.667 -38 120 -38c42.667 0 82 12.667 118 38c39.333 28 67 64.667 83 110h44zM237.997 1434c14.667 55.333 33.667 95.332 57 119.999c29.333 30 63 44.333 101 43c40.667 0 79.667 -14.333 117 -43c53.333 -37.333 94.666 -55.333 123.999 -54
c38 2 67.333 33.667 88 95l35 -8c-9.33301 -56 -28.333 -98.333 -57 -127c-25.333 -28 -55.666 -43.333 -90.999 -46c-39.333 -1.33301 -88.666 20.334 -147.999 65.001c-32 23.333 -61 35 -87 35c-42.667 0 -76.334 -30 -101.001 -90z" />
    <glyph glyph-name="uni1EB6" unicode="&#x1eb6;" horiz-adv-x="1316" 
d="M844 395l-476.001 -0.000976562l-68 -192c-16.667 -46.667 -25 -78.667 -25 -96c0 -28.667 18.333 -47 55 -55c17.333 -4 44 -6.66699 80 -8v-50c-78 7.33301 -143 11 -195 11s-117 -3.66699 -195 -11v50c60.667 4 102.334 13.333 125.001 28
c24.667 17.333 48.667 56 72 116l467 1221l421 -1244c20 -56 46.667 -90 80 -102c24 -9.33301 60.667 -15.666 110 -18.999v-50c-94 10 -177 15 -249 15c-72.667 0 -156 -5 -250 -15v50c36.667 2.66699 65 7 85 13c30.667 8.66699 46 24.667 46 48c0 18 -4.33301 41 -13 69z
M391.999 458.999h432l-199 627zM641.999 -209.001c26 0 47.833 -8.83301 65.5 -26.5s26.5 -39.5 26.5 -65.5s-8.83301 -48.167 -26.5 -66.5s-39.5 -27.5 -65.5 -27.5s-48.167 8.83301 -66.5 26.5s-27.5 40.167 -27.5 67.5c0 26 9.16699 47.833 27.5 65.5
s40.5 26.5 66.5 26.5zM930.999 1745c-12 -66.667 -38.334 -121.999 -79.001 -165.999c-45.333 -45.333 -100.666 -68 -165.999 -68c-62.667 0 -118 24 -166 72c-40 42.667 -66.667 96.667 -80 162h41c20.667 -46.667 49 -83.334 85 -110.001
c36.667 -25.333 76.667 -38 120 -38c42.667 0 82 12.667 118 38c39.333 28 67 64.667 83 110h44z" />
    <glyph glyph-name="uni1EB7" unicode="&#x1eb7;" horiz-adv-x="955" 
d="M639 161c-27.333 -49.333 -53.668 -85.668 -79.001 -109.001c-49.333 -46.667 -114.666 -70 -195.999 -70c-82 0 -149.333 23.667 -202 71c-55.333 50 -83 114 -83 192c0 122.667 77.667 216.334 233 281.001c88 36.667 189 62.334 303 77.001v122
c0 68.667 -10.333 117.334 -31 146.001c-29.333 40 -75.333 60 -138 60c-53.333 0 -98.333 -14.333 -135 -43c-23.333 -19.333 -35 -45 -35 -77v-18c0.666992 -12 1 -22 1 -30c0 -60.667 -27.667 -91 -83 -91c-45.333 0 -68 23 -68 69c0 62.667 30 117.667 90 165
c68 53.333 150 80 246 80c66.667 0 126.667 -14.333 180 -43c66 -36 107.333 -87.667 124 -155c8.66699 -34.667 13 -81.334 13 -140.001v-418c0 -64.667 5 -111.334 15 -140.001s31.667 -43 65 -43c12.667 0 30 2.33301 52 7v-54c-46 -9.33301 -84.333 -14 -115 -14
c-58 0 -100 21 -126 63c-16 26 -26.333 63.333 -31 112zM614.998 549.998c-93.333 -16.667 -170 -40.002 -230 -70.002c-93.333 -47.333 -140 -121.666 -140 -222.999c0 -59.333 16 -105.666 48 -138.999c29.333 -31.333 70 -47 122 -47c88 0 147.333 40.333 178 121
c14.667 39.333 22 99.333 22 180v178zM435.998 -209.004c26 0 47.833 -8.83301 65.5 -26.5s26.5 -39.5 26.5 -65.5s-8.83301 -48.167 -26.5 -66.5s-39.5 -27.5 -65.5 -27.5s-48.167 8.83301 -66.5 26.5s-27.5 40.167 -27.5 67.5c0 26 9.16699 47.833 27.5 65.5
s40.5 26.5 66.5 26.5zM723.998 1337c-12 -66.667 -38.334 -121.999 -79.001 -165.999c-45.333 -45.333 -100.666 -68 -165.999 -68c-62.667 0 -118 24 -166 72c-40 42.667 -66.667 96.667 -80 162h41c20.667 -46.667 49 -83.334 85 -110.001
c36.667 -25.333 76.667 -38 120 -38c42.667 0 82 12.667 118 38c39.333 28 67 64.667 83 110h44z" />
    <glyph glyph-name="uni1EB8" unicode="&#x1eb8;" horiz-adv-x="1113" 
d="M1015 330l-47.0029 -330h-903v50c57.333 4 97 10.667 119 20c27.333 12 43 31.667 47 59c2 10.667 3 29.667 3 57v993c0 42 -4 70.333 -12 85c-18 29.333 -70.333 46.333 -157 51v50h892l36 -307h-46c-24 91.333 -51.667 154.333 -83 189
c-33.333 36 -86.666 54.333 -159.999 55h-296v-561h293c37.333 0 63 6 77 18c25.333 22.667 40 73 44 151h50v-402h-50c-2 61.333 -11.667 105 -29 131c-18.667 26 -53 39 -103 39h-282v-494c0 -37.333 3 -61.333 9 -72c14.667 -32 57.334 -48.333 128.001 -49h145
c78.667 0 135.334 15.333 170.001 46c46.667 41.333 82.667 115 108 221h47zM581.997 -209c26 0 47.833 -8.83301 65.5 -26.5s26.5 -39.5 26.5 -65.5s-8.83301 -48.167 -26.5 -66.5s-39.5 -27.5 -65.5 -27.5s-48.167 8.83301 -66.5 26.5s-27.5 40.167 -27.5 67.5
c0 26 9.16699 47.833 27.5 65.5s40.5 26.5 66.5 26.5z" />
    <glyph glyph-name="uni1EB9" unicode="&#x1eb9;" horiz-adv-x="939" 
d="M777 315h80c-8.66699 -78 -33.667 -145 -75 -201c-65.333 -89.333 -161 -134 -287 -134c-130 0 -230.333 44.667 -301 134c-75.333 95.333 -113 219 -113 371c0 150 37.667 272.333 113 367c72 90 168 135 288 135c93.333 0 173 -29.667 239 -89
c86 -78 131 -208.333 135 -391h-609c-0.666992 -18.667 -1 -33 -1 -43c0 -115.333 20 -213.333 60 -294c40.667 -81.333 111 -122 211 -122c99.333 0 172 43 218 129c20 37.333 34 83.333 42 138zM692 580c-10.667 236 -81.333 354 -212 354c-132.667 0 -209 -118 -229 -354
h441zM466.001 -209c26 0 47.833 -8.83301 65.5 -26.5s26.5 -39.5 26.5 -65.5s-8.83301 -48.167 -26.5 -66.5s-39.5 -27.5 -65.5 -27.5s-48.167 8.83301 -66.5 26.5s-27.5 40.167 -27.5 67.5c0 26 9.16699 47.833 27.5 65.5s40.5 26.5 66.5 26.5z" />
    <glyph glyph-name="uni1EBA" unicode="&#x1eba;" horiz-adv-x="1113" 
d="M1015 330l-47.0029 -330h-903v50c57.333 4 97 10.667 119 20c27.333 12 43 31.667 47 59c2 10.667 3 29.667 3 57v993c0 42 -4 70.333 -12 85c-18 29.333 -70.333 46.333 -157 51v50h892l36 -307h-46c-24 91.333 -51.667 154.333 -83 189
c-33.333 36 -86.666 54.333 -159.999 55h-296v-561h293c37.333 0 63 6 77 18c25.333 22.667 40 73 44 151h50v-402h-50c-2 61.333 -11.667 105 -29 131c-18.667 26 -53 39 -103 39h-282v-494c0 -37.333 3 -61.333 9 -72c14.667 -32 57.334 -48.333 128.001 -49h145
c78.667 0 135.334 15.333 170.001 46c46.667 41.333 82.667 115 108 221h47zM734.997 1730c2 -35.333 -11.999 -66.3311 -41.999 -92.998c-12 -8 -25.833 -18 -41.5 -30s-33.167 -27 -52.5 -45c-16.667 -18.667 -28 -39.667 -34 -63h-43c2.66699 32 7.66699 53.667 15 65
c12 23.333 32 48.666 60 75.999c28.667 30 43 59.333 43 88c0 50.667 -25 76 -75 76c-64 0 -99.667 -34.667 -107 -104h-37c0 66 26.667 112 80 138c23.333 11.333 52.333 17 87 17c39.333 0 70.666 -8 93.999 -24c35.333 -24.667 53 -58.334 53 -101.001z" />
    <glyph glyph-name="uni1EBB" unicode="&#x1ebb;" horiz-adv-x="939" 
d="M777 315h80c-8.66699 -78 -33.667 -145 -75 -201c-65.333 -89.333 -161 -134 -287 -134c-130 0 -230.333 44.667 -301 134c-75.333 95.333 -113 219 -113 371c0 150 37.667 272.333 113 367c72 90 168 135 288 135c93.333 0 173 -29.667 239 -89
c86 -78 131 -208.333 135 -391h-609c-0.666992 -18.667 -1 -33 -1 -43c0 -115.333 20 -213.333 60 -294c40.667 -81.333 111 -122 211 -122c99.333 0 172 43 218 129c20 37.333 34 83.333 42 138zM692 580c-10.667 236 -81.333 354 -212 354c-132.667 0 -209 -118 -229 -354
h441zM638.001 1330c2 -35.333 -11.999 -66.3311 -41.999 -92.998c-12 -8 -25.833 -18 -41.5 -30s-33.167 -27 -52.5 -45c-16.667 -18.667 -28 -39.667 -34 -63h-43c2.66699 32 7.66699 53.667 15 65c12 23.333 32 48.666 60 75.999c28.667 30 43 59.333 43 88
c0 50.667 -25 76 -75 76c-64 0 -99.667 -34.667 -107 -104h-37c0 66 26.667 112 80 138c23.333 11.333 52.333 17 87 17c39.333 0 70.666 -8 93.999 -24c35.333 -24.667 53 -58.334 53 -101.001z" />
    <glyph glyph-name="uni1EBC" unicode="&#x1ebc;" horiz-adv-x="1113" 
d="M1015 330l-47.0029 -330h-903v50c57.333 4 97 10.667 119 20c27.333 12 43 31.667 47 59c2 10.667 3 29.667 3 57v993c0 42 -4 70.333 -12 85c-18 29.333 -70.333 46.333 -157 51v50h892l36 -307h-46c-24 91.333 -51.667 154.333 -83 189
c-33.333 36 -86.666 54.333 -159.999 55h-296v-561h293c37.333 0 63 6 77 18c25.333 22.667 40 73 44 151h50v-402h-50c-2 61.333 -11.667 105 -29 131c-18.667 26 -53 39 -103 39h-282v-494c0 -37.333 3 -61.333 9 -72c14.667 -32 57.334 -48.333 128.001 -49h145
c78.667 0 135.334 15.333 170.001 46c46.667 41.333 82.667 115 108 221h47zM294.997 1559c14.667 55.333 33.667 95.332 57 119.999c29.333 30 63 44.333 101 43c40.667 0 79.667 -14.333 117 -43c53.333 -37.333 94.666 -55.333 123.999 -54c38 2 67.333 33.667 88 95
l35 -8c-9.33301 -56 -28.333 -98.333 -57 -127c-25.333 -28 -55.666 -43.333 -90.999 -46c-39.333 -1.33301 -88.666 20.334 -147.999 65.001c-32 23.333 -61 35 -87 35c-42.667 0 -76.334 -30 -101.001 -90z" />
    <glyph glyph-name="uni1EBD" unicode="&#x1ebd;" horiz-adv-x="939" 
d="M777 315h80c-8.66699 -78 -33.667 -145 -75 -201c-65.333 -89.333 -161 -134 -287 -134c-130 0 -230.333 44.667 -301 134c-75.333 95.333 -113 219 -113 371c0 150 37.667 272.333 113 367c72 90 168 135 288 135c93.333 0 173 -29.667 239 -89
c86 -78 131 -208.333 135 -391h-609c-0.666992 -18.667 -1 -33 -1 -43c0 -115.333 20 -213.333 60 -294c40.667 -81.333 111 -122 211 -122c99.333 0 172 43 218 129c20 37.333 34 83.333 42 138zM692 580c-10.667 236 -81.333 354 -212 354c-132.667 0 -209 -118 -229 -354
h441zM230.001 1182c14.667 55.333 33.667 95.332 57 119.999c29.333 30 63 44.333 101 43c40.667 0 79.667 -14.333 117 -43c53.333 -37.333 94.666 -55.333 123.999 -54c38 2 67.333 33.667 88 95l35 -8c-9.33301 -56 -28.333 -98.333 -57 -127
c-25.333 -28 -55.666 -43.333 -90.999 -46c-39.333 -1.33301 -88.666 20.334 -147.999 65.001c-32 23.333 -61 35 -87 35c-42.667 0 -76.334 -30 -101.001 -90z" />
    <glyph glyph-name="uni1EBE" unicode="&#x1ebe;" horiz-adv-x="1113" 
d="M1015 330l-47.0029 -330h-903v50c57.333 4 97 10.667 119 20c27.333 12 43 31.667 47 59c2 10.667 3 29.667 3 57v993c0 42 -4 70.333 -12 85c-18 29.333 -70.333 46.333 -157 51v50h892l36 -307h-46c-24 91.333 -51.667 154.333 -83 189
c-33.333 36 -86.666 54.333 -159.999 55h-296v-561h293c37.333 0 63 6 77 18c25.333 22.667 40 73 44 151h50v-402h-50c-2 61.333 -11.667 105 -29 131c-18.667 26 -53 39 -103 39h-282v-494c0 -37.333 3 -61.333 9 -72c14.667 -32 57.334 -48.333 128.001 -49h145
c78.667 0 135.334 15.333 170.001 46c46.667 41.333 82.667 115 108 221h47zM517.997 1687h96l205 -242h-67l-192 153l-192 -153h-56zM944.997 1855h167l-285 -256h-52z" />
    <glyph glyph-name="uni1EBF" unicode="&#x1ebf;" horiz-adv-x="939" 
d="M777 315h80c-8.66699 -78 -33.667 -145 -75 -201c-65.333 -89.333 -161 -134 -287 -134c-130 0 -230.333 44.667 -301 134c-75.333 95.333 -113 219 -113 371c0 150 37.667 272.333 113 367c72 90 168 135 288 135c93.333 0 173 -29.667 239 -89
c86 -78 131 -208.333 135 -391h-609c-0.666992 -18.667 -1 -33 -1 -43c0 -115.333 20 -213.333 60 -294c40.667 -81.333 111 -122 211 -122c99.333 0 172 43 218 129c20 37.333 34 83.333 42 138zM692 580c-10.667 236 -81.333 354 -212 354c-132.667 0 -209 -118 -229 -354
h441zM433.001 1332h96l205 -242h-67l-192 153l-192 -153h-56zM856.001 1538h167l-285 -256h-52z" />
    <glyph glyph-name="uni1EC0" unicode="&#x1ec0;" horiz-adv-x="1113" 
d="M1015 330l-47.0029 -330h-903v50c57.333 4 97 10.667 119 20c27.333 12 43 31.667 47 59c2 10.667 3 29.667 3 57v993c0 42 -4 70.333 -12 85c-18 29.333 -70.333 46.333 -157 51v50h892l36 -307h-46c-24 91.333 -51.667 154.333 -83 189
c-33.333 36 -86.666 54.333 -159.999 55h-296v-561h293c37.333 0 63 6 77 18c25.333 22.667 40 73 44 151h50v-402h-50c-2 61.333 -11.667 105 -29 131c-18.667 26 -53 39 -103 39h-282v-494c0 -37.333 3 -61.333 9 -72c14.667 -32 57.334 -48.333 128.001 -49h145
c78.667 0 135.334 15.333 170.001 46c46.667 41.333 82.667 115 108 221h47zM517.997 1687h96l205 -242h-67l-192 153l-192 -153h-56zM924.997 1599l-285 256h167l170 -256h-52z" />
    <glyph glyph-name="uni1EC1" unicode="&#x1ec1;" horiz-adv-x="939" 
d="M777 315h80c-8.66699 -78 -33.667 -145 -75 -201c-65.333 -89.333 -161 -134 -287 -134c-130 0 -230.333 44.667 -301 134c-75.333 95.333 -113 219 -113 371c0 150 37.667 272.333 113 367c72 90 168 135 288 135c93.333 0 173 -29.667 239 -89
c86 -78 131 -208.333 135 -391h-609c-0.666992 -18.667 -1 -33 -1 -43c0 -115.333 20 -213.333 60 -294c40.667 -81.333 111 -122 211 -122c99.333 0 172 43 218 129c20 37.333 34 83.333 42 138zM692 580c-10.667 236 -81.333 354 -212 354c-132.667 0 -209 -118 -229 -354
h441zM433.001 1332h96l205 -242h-67l-192 153l-192 -153h-56zM803.001 1261l-285 256h167l170 -256h-52z" />
    <glyph glyph-name="uni1EC2" unicode="&#x1ec2;" horiz-adv-x="1113" 
d="M523 1665h86l185 -218h-61l-172 138l-173 -138h-51zM1015 330l-47.0029 -330h-903v50c57.333 4 97 10.667 119 20c27.333 12 43 31.667 47 59c2 10.667 3 29.667 3 57v993c0 42 -4 70.333 -12 85c-18 29.333 -70.333 46.333 -157 51v50h892l36 -307h-46
c-24 91.333 -51.667 154.333 -83 189c-33.333 36 -86.666 54.333 -159.999 55h-296v-561h293c37.333 0 63 6 77 18c25.333 22.667 40 73 44 151h50v-402h-50c-2 61.333 -11.667 105 -29 131c-18.667 26 -53 39 -103 39h-282v-494c0 -37.333 3 -61.333 9 -72
c14.667 -32 57.334 -48.333 128.001 -49h145c78.667 0 135.334 15.333 170.001 46c46.667 41.333 82.667 115 108 221h47zM960.997 1766c1.33301 -25.333 -10.998 -47.6689 -36.998 -67.002l-35.5 -21.5c-13.667 -8.33301 -28.834 -19.166 -45.501 -32.499
c-14.667 -13.333 -24.334 -28.333 -29.001 -45h-37c2 22.667 6 38.334 12 47.001c10.667 16.667 28 34.667 52 54c25.333 21.333 38 42.666 38 63.999c0 36.667 -21.667 55 -65 55c-55.333 0 -86.333 -25.333 -93 -76h-31c0 48 23 81.333 69 100c20 8 44.667 12 74 12
c34.667 0 62 -5.66699 82 -17c30.667 -17.333 46 -41.666 46 -72.999z" />
    <glyph glyph-name="uni1EC3" unicode="&#x1ec3;" horiz-adv-x="939" 
d="M777 315h80c-8.66699 -78 -33.667 -145 -75 -201c-65.333 -89.333 -161 -134 -287 -134c-130 0 -230.333 44.667 -301 134c-75.333 95.333 -113 219 -113 371c0 150 37.667 272.333 113 367c72 90 168 135 288 135c93.333 0 173 -29.667 239 -89
c86 -78 131 -208.333 135 -391h-609c-0.666992 -18.667 -1 -33 -1 -43c0 -115.333 20 -213.333 60 -294c40.667 -81.333 111 -122 211 -122c99.333 0 172 43 218 129c20 37.333 34 83.333 42 138zM692 580c-10.667 236 -81.333 354 -212 354c-132.667 0 -209 -118 -229 -354
h441zM433.001 1332h96l205 -242h-67l-192 153l-192 -153h-56zM904.001 1525c2 -35.333 -11.999 -66.3311 -41.999 -92.998c-12 -8 -25.833 -18 -41.5 -30s-33.167 -27 -52.5 -45c-16.667 -18.667 -28 -39.667 -34 -63h-43c2.66699 32 7.66699 53.667 15 65
c12 23.333 32 48.666 60 75.999c28.667 30 43 59.333 43 88c0 50.667 -25 76 -75 76c-64 0 -99.667 -34.667 -107 -104h-37c0 66 26.667 112 80 138c23.333 11.333 52.333 17 87 17c39.333 0 70.666 -8 93.999 -24c35.333 -24.667 53 -58.334 53 -101.001z" />
    <glyph glyph-name="uni1EC4" unicode="&#x1ec4;" horiz-adv-x="1113" 
d="M523 1650h86l185 -218h-61l-172 138l-173 -138h-51zM373 1709c13.333 50 30.332 86 50.999 108c26.667 27.333 57 40.333 91 39c36.667 0 72 -13 106 -39c48 -33.333 85 -49.333 111 -48c34 1.33301 60.333 29.666 79 84.999l32 -7
c-8.66699 -50.667 -25.667 -88.667 -51 -114c-23.333 -25.333 -50.666 -39.333 -81.999 -42c-35.333 -1.33301 -80 18.334 -134 59.001c-28.667 20.667 -54.667 31 -78 31c-38 0 -68.333 -27 -91 -81zM1015 330l-47.0029 -330h-903v50c57.333 4 97 10.667 119 20
c27.333 12 43 31.667 47 59c2 10.667 3 29.667 3 57v993c0 42 -4 70.333 -12 85c-18 29.333 -70.333 46.333 -157 51v50h892l36 -307h-46c-24 91.333 -51.667 154.333 -83 189c-33.333 36 -86.666 54.333 -159.999 55h-296v-561h293c37.333 0 63 6 77 18
c25.333 22.667 40 73 44 151h50v-402h-50c-2 61.333 -11.667 105 -29 131c-18.667 26 -53 39 -103 39h-282v-494c0 -37.333 3 -61.333 9 -72c14.667 -32 57.334 -48.333 128.001 -49h145c78.667 0 135.334 15.333 170.001 46c46.667 41.333 82.667 115 108 221h47z" />
    </font>
</defs>
</svg>
